<mxfile host="65bd71144e">
    <diagram name="Page-1" id="03018318-947c-dd8e-b7a3-06fadd420f32">
        <mxGraphModel dx="1929" dy="1070" grid="1" gridSize="10" guides="1" tooltips="1" connect="1" arrows="1" fold="1" page="1" pageScale="1" pageWidth="1654" pageHeight="1169" background="#ffffff" math="0" shadow="0">
            <root>
                <mxCell id="0"/>
                <mxCell id="1" parent="0"/>
                <mxCell id="677b7b8949515195-1" value="" style="whiteSpace=wrap;html=1;rounded=0;shadow=0;labelBackgroundColor=none;strokeWidth=1;fontFamily=Verdana;fontSize=12;align=center;comic=1;fillColor=#FFFFFF;" parent="1" vertex="1">
                    <mxGeometry x="20" y="20" width="1300" height="1000" as="geometry"/>
                </mxCell>
                <mxCell id="677b7b8949515195-25" value="" style="whiteSpace=wrap;html=1;rounded=0;shadow=0;labelBackgroundColor=none;strokeWidth=1;fontFamily=Verdana;fontSize=12;align=center;comic=1;fillColor=#FFFFFF;fontColor=#000000;strokeColor=#000000;" parent="1" vertex="1">
                    <mxGeometry x="1080" y="150" width="230" height="670" as="geometry"/>
                </mxCell>
                <mxCell id="677b7b8949515195-2" value="" style="whiteSpace=wrap;html=1;rounded=0;shadow=0;labelBackgroundColor=none;strokeWidth=1;fontFamily=Verdana;fontSize=28;align=center;comic=1;fillColor=#FFFFFF;fontColor=#000000;strokeColor=#000000;" parent="1" vertex="1">
                    <mxGeometry x="30" y="30" width="200" height="100" as="geometry"/>
                </mxCell>
                <mxCell id="677b7b8949515195-8" value="" style="whiteSpace=wrap;html=1;rounded=0;shadow=0;labelBackgroundColor=none;strokeWidth=1;fontFamily=Verdana;fontSize=12;align=center;comic=1;fillColor=#FFFFFF;fontColor=#000000;strokeColor=#000000;" parent="1" vertex="1">
                    <mxGeometry x="30" y="150" width="200" height="670" as="geometry"/>
                </mxCell>
                <mxCell id="677b7b8949515195-9" value="" style="line;strokeWidth=1;html=1;rounded=0;shadow=0;labelBackgroundColor=none;fontFamily=Verdana;fontSize=14;align=center;comic=1;strokeColor=#000000;" parent="1" vertex="1">
                    <mxGeometry x="20" y="140" width="1290" height="10" as="geometry"/>
                </mxCell>
                <mxCell id="677b7b8949515195-27" value="Übersicht" style="text;html=1;points=[];align=left;verticalAlign=top;spacingTop=-4;fontSize=14;fontFamily=Verdana;fontColor=#000000;" parent="1" vertex="1">
                    <mxGeometry x="40" y="170" width="170" height="20" as="geometry"/>
                </mxCell>
                <mxCell id="677b7b8949515195-28" value="Menü 2" style="text;html=1;points=[];align=left;verticalAlign=top;spacingTop=-4;fontSize=14;fontFamily=Verdana;fontColor=#000000;" parent="1" vertex="1">
                    <mxGeometry x="40" y="206" width="170" height="20" as="geometry"/>
                </mxCell>
                <mxCell id="677b7b8949515195-29" value="Menü 3" style="text;html=1;points=[];align=left;verticalAlign=top;spacingTop=-4;fontSize=14;fontFamily=Verdana;fontColor=#000000;" parent="1" vertex="1">
                    <mxGeometry x="40" y="241" width="170" height="20" as="geometry"/>
                </mxCell>
                <mxCell id="677b7b8949515195-30" value="Menü 4" style="text;html=1;points=[];align=left;verticalAlign=top;spacingTop=-4;fontSize=14;fontFamily=Verdana;fontColor=#000000;" parent="1" vertex="1">
                    <mxGeometry x="40" y="277" width="170" height="20" as="geometry"/>
                </mxCell>
                <mxCell id="677b7b8949515195-39" value="Menü 5" style="text;html=1;points=[];align=left;verticalAlign=top;spacingTop=-4;fontSize=14;fontFamily=Verdana;fontColor=#000000;" parent="1" vertex="1">
                    <mxGeometry x="40" y="313" width="170" height="20" as="geometry"/>
                </mxCell>
                <mxCell id="677b7b8949515195-44" value="Param-Master" style="text;html=1;points=[];align=center;verticalAlign=middle;spacingTop=-4;fontSize=17;fontFamily=Verdana;fontColor=#ffffff;fillColor=#0050ef;strokeColor=#001DBC;" parent="1" vertex="1">
                    <mxGeometry x="1080" y="150" width="230" height="30" as="geometry"/>
                </mxCell>
                <mxCell id="zNGoOxdxhcUfiAMrygO6-3" value="Changebasierter Paramtransport" style="whiteSpace=wrap;html=1;rounded=0;shadow=0;labelBackgroundColor=none;strokeWidth=1;fontFamily=Verdana;fontSize=28;align=center;comic=1;fillColor=#FFFFFF;fontColor=#000000;strokeColor=#000000;" parent="1" vertex="1">
                    <mxGeometry x="240" y="30" width="1070" height="50" as="geometry"/>
                </mxCell>
                <mxCell id="zNGoOxdxhcUfiAMrygO6-14" value="Übersicht CPT Landschaft" style="text;html=1;fontSize=20;fontStyle=0;verticalAlign=middle;align=left;fontFamily=Verdana;fontColor=#000000;" parent="1" vertex="1">
                    <mxGeometry x="240" y="90" width="600" height="40" as="geometry"/>
                </mxCell>
                <mxCell id="58scJgbtM5tuenPCcqmJ-1" value="" style="shape=image;verticalLabelPosition=bottom;verticalAlign=top;imageAspect=0;image=data:image/png,iVBORw0KGgoAAAANSUhEUgAAASwAAADjCAYAAAA/tCmgAAAyyElEQVR4Xu2dB5glRbn+vzUgZi4oKgZQQVR2FxRFDCheE/4xILqGa0BRES+uMLPTM3MCMl7Rq4B6DSCoMAtiIKggIiaCgIJ6VUSuKIpLMMCiSF4JC//v7eqe6fmqu7qrT3efnrPf73neZ2dPd3WsertyESlt5t6sV7J+znqS2NYQM/ei7cY2pWWrXk7Lx3u0fNXnaPnYcRuElo1/nLUfbT+2E2298n78MJbIp6MoCtF9Wbuyvsdaz7qHmjasFSvuTduteiYn2K+wbmHds0Fr+fgVtHT8YFo++RhS41KUEBjVs1jfYd1FxqhiNWdYT5vcgnNUqzmh3mElXNU1tHRsX3r22P3lY1OUDQUY1TNZX2PdTguNqknDWsJGtSMnyktSEqpqXutZs7TDAZvIB6goo8x9WMtYX2TdRrZJNWtY241vzwnxLykJVJWuL9GOUw+Vj1FRRpFtWJ9n3UC2OaWpXsNaPrE5LRv7dUqiVLm0fPxQ2nEf5JAVZaT5FNmm5FKNhjVzL1q66nArMaqKaB1tv+pl8okqyqjxWbJNyaX6DGvpAU/hhHdbSmJUFdOPOYf6QPlYFWWUaIthLaGl40ekJEJVca1nw/p3+WAVZZRoh2FtNbMxJ7hrUxKhykcwfRStFWVEaYdhmc6hdgJU+eoiLRYqo0w7DGv52F4piU/lr9to2fS/ycerKKNCOwxr2Vg/JfGpymj5xOPl41WUUaEdhrV0/CAr4anKafkBT5ePV1FGBTWsUZMaljLCqGGNmtSwlBFGDWvUpIaljDBqWKMmNSxlhFHDGjWpYSkjjBrWqEkNSxlh1LBGTWpYiwrMc41FEzA3ECbsxxSyW7O2TdHmrI2jfRFmMYBxYrheXDc6CCbv59Fk7hkT8hVFDWvUpIbVamA0D2AtZb2F9WnW6axLWTeSneCkMBXw71jfZv036+WsTckv0dcNDGor1ntYX2ZdTNlTGP+TdSbrwyxEXBibCzWsUZMaVuuAST2ctSfrONZVrLvJTlxldQvrNNYbWRiXNazVSR7Eeh3rB5RtUHm6iHUAmdxk2n2oYY2a1LBaA3ILO7O+wLqW7MRUh9awxskYV1PgPmHGPyX7esrqz6z3kTHBJGpYoyY1rKGDBIzpX1HUK5vTGFTIqWBytLrnGnoc60SaXwewSiEXej5rR5rPbalhjZrUsIYGzOFprG+w/kV24mla61jTZCq262BX1uVkn7dqrWXtTaZuTA1r1KSGNTSQs/oW2Ylm2Pok5Vdm+4Kl4IuuXFOFsJxXl8zSXnKbS2pYbZca1lB5LetOshPOMIWi1SFUXUti02YVC8Xrv6f87pIaVtulhjVUHkKmmV4mnGELiX0vGpznsf5B9vHbKjWstksNa+igwr0NdVhSaHl7ApXnsaw/kH3cNksNq+1Swxo66BiKFkKZeIYtFA2xanIZUOF9ElXbf6wJqWG1XWpYrQC5LLTSyQQkhd7t6An+fTJm8gFWwHpDQu9k9VknkOmuMEhXievJ9LL3BZ1SBzkvjO5vrJ+xziDTUx+6kEzOry4jVMNqu9SwWkFWLgv9lVCsmiVjAk9hPYyKjQ1EX6TNWC8gE/5mso+fJxjDR8gPnPMSso9VRCgaoxf+CjLF0YfSwr5hDyYzjGd31tFkTE0eYxCpYbVdalitYVfWTWQSzq1k+mehR/ijaPAOnSii7UZmXKFMpHlCGJ9uDmOsu8g+Tp5+QWasIwZ0FwGGvBXrv8j0vZLHKyM1rLZLDas1bMQ6lswA4GdRPR04tyd/00LO7DkIXADkgHxzV8jFoT8aesGXAWa+HZljDNqDXg2r7VLDahVI8HUYVRLktOKcXBHBUN4bhswHdWh3kH0Ml84lM3h5UDCOcBUVm8UiS2pYbZca1gYH6r++QnZidemIMGQ+qH+SYV1CHdSyMGQ14N5ewbqG7HMVkRpW26WGtUFStFUyFlol89iG/GaZQPGtF4asFtRtYSC3z7XEUsNqu9SwNkjQkofuATLBZukyE8wJJhj0qWxfQ2berzqAaaEl0afoC6lhtV1qWBssF5CdYLOErhV5HE92OJcONcFqA6aFc8jzuqSG1XapYW2woCe6TLBZuppMriyLB5LJhclwWULO5xlhyHpBp1p5bpfUsNouNawNllmyE2yWUHx0teSh4txnZgR0rUA3jrpRwxo1qWFtsMySnWCzlGdYmELGp/7qGBOsdtSwRk1qWK0HHSNR5EKRDOP60Gz/LtYE62DWZyJ9ijVFpi/SW8m0BGJ5rE3JDP2RizTMkp1gs5RnWL7GsJ8JVju+16WG1XapYbUSDKV5DJmOmJ8jMwgYS1zJBFZEGLbyYzJ9qTBGD+v74fizKftmKc+wjiQ7TJYwXvDFJljtqGGNmtSwWgVWr9mTTIW4T52Qj65jfY38Vq3JMyzMpCDDZAkV7sj5NYEa1qhJDasVYFjJ21i/JL+6oKaUZ1i/IjtMljADqavFsUrUsEZNalhDBfVTz2R9j9ppVLFchoXxj1iJWobJEnqgN4Ua1qhJDWtooB5pL6puapQ65TIs5JZ8pkL+ownWCGpYoyY1rKGAFWmwxDqWo5KJpo2q0rB+boI1ghrWqEkNq3EwowCa9ReLWUFqWIOghlWd1LAaB036aCmTiaXNUsMaBDWs6qSG1SiYjx0LQ8iE0nZVaVgXm2CNoIY1alLDagz0NEdPdJlIfIWi5G9ZP2KdLIT+UJjBE6YIkxlk5ZqkqjQsTK7XFGpYoyY1rMZAp1AkfJlIighFSCxKsTeZTpcPJzPcRoLKfAzj2ZRMT/mnsvZgfZR1NpUviroMC+fymakBraKDLqpRFDWsUZMaVmO8g+wEkqc7WV9l7UCDz24Ag0OCxKo26KDqs2CDy7BgPj7FXKx1+IgwZP2oYY2a1LAaAYkaC4LKBOISVqvB4g9Fl73yAev9nUr2ObPkMizwE7LDZAm5POT8mkANa9SkhtUIGHpzC9kJJEuoe3oXFVswtSyzZJ83S3mG9XWyw2QJg59fYoLVjhrWqEkNqxF2IjtxuHQi1b/c1yzZ581SnmF9muwwWcKyYfuYYLWjhjVqUsNqBFSWy8SRpVup+MKlgzBL9rmzlGdY+5MdxqX/McFqRw1r1KSG1QhYTl0mjixhyfZNTLBamSX73FnKM6xXkd/g7fNNsNpRwxo1qWE1gk+RCZXhTTBL9rmzlGdYaMVE658MlyXMybVFGLJe1LBGTWpYjXAc2YkjS1+IwtTNLNnnzlKeYaGP2eVkh8sSlrPfMwxZL2pYoyY1rEY4luzEkaVvRmHqZpbsc2cpz7DAd8gO5xJMvG7UsEZNaliN8DGyE0eWMP96HX2vkqC7BHrOy3NnqYhhdckO5xJ6vD8+DFkPmG/scLLP65IaVtulhtUIPbITR5b+wnqiCVYL6MSKZeUxJlGeO0tFDOsFZFo4ZdgsoXsDGiPkaj5VAENG1wmfe4TUsNouNaxGeDPZicOlt4ehqgdmhZV4fFfgKWJY6D3vMwga+hvrKQhcITCrd5NfR91YalhtlxpWIzyN7MThEpb1wgDnKkER6U3k15oXq4hhAayPKMPmCXV2GAlQBRux9qVyZgWpYbVdaliNgIHHPrkaFJcwwwJMpgrQincQ1TNbQ5Jdyd8sMMD7MBq83g7T3HycBptSRw2r7VLDagQUxXxb0VD/gvmz0qaRKQoMbxfWD8ivY6dUUcPCcKILyA6fJ5jMJ6jc8l8oAr6QTGdUeVxfqWG1XcsnsPq50gCoV5EJJE/IfZxApkjpM4cUcivPJtOdwidnl6WihgX2InPd8hh5gqFi8sHdyMzplcfGrJ1Zx5B/ri5LNRnWqpVWwlOV0V305P3KfNSUEqBOCouIykRSRFgFGqtBo3VvOeuRZBJsDOqAHkfGpMbJzEZ6I9nHKSsfw8KwIsy3JY9RVGhpRG6pQybnhC/qEyJtF/2GnOfZVJ1RxarHsJaPvygl8an8dSVtvfIh8vEq9YAckk9/rCzB9DDDJ8Ycos/WT8hMoLeG/LoV+MjHsMDraLC6pFjoEQ+zvioS+m6Vyb0VVT2GhVzBsvHbUxKgykdLx0+mHfepql5XKQByQVj5WCaUtsvXsBCpTiH7OG1XPYaFvmZLx79rJUCVr94uH6xSL+gkiWZ3n+mJ2yBfwwIowl1N9rHarLoMi4uFY69MSYCq4rqSlu7f1NTaSgK0+n2N7MTStNal/JalMoYFdif/3ubDVH2GtfXK+3Eu67yUhKgqpFVYi6COURFKAfClOI/sBNOEkLv7EpkOm3JblsoaFiIYVrkepEtFWf0v63spv7tUn2GB5eM7c+K7yU6MKrfGzqZl0+hLqAyRrVhnkp1o6hQqwg9mPZiqn60hCzQ2vI+aMy0YMurPtmR9NmW7S/UaFgx82dg7OBGutxOlKkOX03armlq0RMkBK0GjH1ETdVpXsl5DZu1CMJuyT5YGMSwA01pB5bt1FBW6OczQfD+uthkW0a4z9wmLN8vG16UkTtVCXU7bj6MPohYFWwTGv6F/FZrtZQKqQlilBqa4JS188bNiP5cGNSyAcz+ZTP8pefxBhaFM6PuFufCTHWzbZ1hgxYp7s2ntQahIthOpyugM2uGAreSjU9oBEjM6ln6Yquv2gP5KGA6EzqRpy4XNkh0mS1UYVgyG77yN/Gd2yBJaIrPWb2ynYcUsn9iclq46hBPnjSkJdkPVbwndF7aaSXaMVloKjAs9xd9BZvwfWvKQe5AJK0soWv6JdSiZXuGurPQ7yZhWEWGcX9U9jGFcKKJ+i0yH16L3if1wn2i02IvcYy2Rc5X34hJGEDTNkrBCeen43pxQj2ddzLqeMAxl9HUn66+0fPx81qGc63w+bTeDEoeySEHLCBYd7ZMZF4ixdpcKncU6mkwuA8N20nJTbQeNAC8nM9Hhl8kMLUre4yWs77I+RWZusUeZYIqiKIqiKIqiKIqiKIqiFARdKdJaKRVFUVoDWmEfyzqQzDxkiqIorQNG9WgyrZpryHS3OGTBHoqiKEMGRoUuFe9n/ZYW9g9Tw1IUpTVsynoP6/8ovZOrGpaiKEMHIw/2JjNdjWvGCTUsRVGGBsayYYYJzJvvMio1LEVRhg5W6/FZSEMNS1GUobED2abkkhqWoihDQw1LUZRFgxqWoiiLBjUsRVEWDWpYiqIsGtSwFEVZNKhhKYqyaFDDUhRl0aCGpSjKokENS1GURYMalqIoiwY1LEVRFg1qWIqiLBrUsBSlQu5DZmXoLVhbsrZmbRv9/TjWw8gs4+5arl7Jpk7Dwjt5IOsRZN7XNpHwN+aKx6SBi3EF71EF7wtp6ZFkpzUsQoK0hvnT6gZx4qE0fx3QU1hPiP6GF2B7K+IODApG9ArWf7NOY/2SdSVrLesW1h3R39eQmcr3HNYXWfuxnk4mIVRhYPELfFBBNbEEFs4hz5ulIkZetWFhKTC8v9exjmKdy/oDmfd1WyT8fRXrF6xvsDqs57I2o/zrLcp9yX4eLmH/OkHikud06X4mWCq+8RIfjaznivcFE8AkjkeQSUt/JDut/ZX1G9YPWf9D5v0+nqoxDVwDzOlFrA+wTmH9lHU5mXNfRybu3RT9H17wczJxBwuk7ELVxp1CIBf1CtYJrKspfT7xIvoXmWl+P0LGvFwvPg/kDE4mMxtnEX3aBKsN3AuMWZ43S19iPSQMmU1VhnVf1jNZs2TMSIbLExLGr1kfZj2ZBo98byD7ebi0hwlWGzuTfU6X9jfBUoEBrSY7TJbw0cdHPAlM4hlkPipIb/J9FNHfWMeznkPlDB9hns36HOv3rPVkn6OI4rhzMOupVI2JZoKsHRY9+BkVm6LXRzewvsl6IZV7oMgp/Ins42bpTBOsNvBVxXOS580SvohYVMJFFYa1PRlzvJns/csIOefDyDz/soyRfVyX9jXBauPlZJ/TJeRissBH6Fdkh8kSjOXhYUgDPsSfIJM+5L5lhPd+HOtJVAyYJeId4syNZB9vECHufIi1OVUMXBBZwLNZd5J94iqFrC0eKMrjPl9uNSxbScN6MGuSTCSR+1UhfHVfTSaC+6KGNa+kYSFX5RPWRyiq4X25QBxeSaaIKcNXJZTOfkIm9+aT3jNB9hT1U/8k+2R16s+sd1LxLKMalq3YsPA1/TaVz8YXFT42B7E2Ij/UsOYVG9auZNKA3F6lUM/0FkoH1zBLfmsIDKK/kCnql/ngzbElmTJ11cW/osLD+gLl1+0ANSxbMKyXsC5L2VaXEFc+SX6mpYY1LxjWq6h+s4qFYt4baSEoop1K5eumy+rvrN2oZE4LFWJIcE1fdJrOItMy4UINyxZabOsqAroE00K9VtGvpRrWvJDrQXFN/l6n1rKeRgbkrL5Fw0v3a8h0i/ACTaCI7PJgw9R5ZJZkz0INq11CCzAaaIqghjV8nU+mgh8t/8Myq1jfIY9uR+hwhsQsDzJs4SG6TEsNq31Cn5wdKR81rOELueILqf56ziLCtbydCoC+Q5+n4TtslnBdPyLTvUKihtVOnUPmWbhQw1JJ/ZZy6q5R0fUOqr/bwqCCCaDlUqKGNZhQd4IOfei1DGFUAlr95H6+QkfBd5EbNSw/IQeCEQnxu4IQ9/Gs5b51C5X2uL/4OjAiApXncj9fIXOyNznYigZvmbiETBcIDB1A4tqSTOU9elW/jfVxMjdU1hTRH2Q7SkcNy19433gnLyCTa8U1o+4Awt+oHngZmVz3IN1aYH5pueIYNax8IQGfwfoPMuPz0IM+flcQhvWgDgqjBk6hersjXEumJRh9p5B5SF4HhHteSmYYF4xVhi8qFFFTW5sxJvBIsgMUFQ6MHuooUrqaJLENF7CMTBf/W8k+VpYwrg2dV7NQwyouDO94L5lI7npfMfEYNgztKPOxQY7AZTJqWG5dTqZfFtJpEbDfLqyLyT7WIEL91rFkDLNIvAHosNxnrSP7eHmCScMrLPAjWnVkgDwh8k5ThgvmgBt+IplWibx+XnhQ6ETqQg0rX3hfh5M7t+MCCWF/Khf5kLPemNJRw8rWBbRwqI4PjyUzVlces4yQY1tF5dI6PngoYZWJNweRAJEQ44TkjnnCmKRXU3GnzQI3g2xsVn8huCyyn3moYbmFFrs9aPD3BQ4g/w8ccsgoXqahhpWuNWRyM4OwFZUfMB0rToNlxvjGIN6Nk3+DHgaELxjtsjX5l3exPxyzisgfg+EjSODyhr5JxbLCaljZQj3CTlQdiECryX5XeUJdWBpqWLZQqkCP9yp4Nw1WIY/pYfLiZhFQPDyL7OO7hA/jXIkAhvPRlJ3yhGLFIG6bBR5KcswbOq/iJoughpWu31GJnsMFwJffd2oaGGfaPaph2UI6qCqNIS4iHshzFBGqEZA5qYrXkn9fr+eFIcnU6PvW4uPGszpvVgEMapaM+WwjtrlQw7KFVkC05NQFJmTziXxoZNkVAQVqWAuFnCsSdpV8kOzzFFGReOkDximi1ViexyXUnYUgMsuNLuFBvi8MWS+onPXNFahh2eqaYLWBZvSsuscsocVIooa1UJi5YBMErhDkUnxa5WOh20uVoFSHCQ3keVyaq0o4JGWjS+h9WvlkWxWhhmUL01DXzdFkn9el08iu+1TDWqgTqVi9rQ8oTcEI5blcQr1XVkPJILyV7HO5hKmew4pT1BHJjS59mOzI1hbUsGw1YVivJL8K3UvJTLGdRA1rodDhsg5+QPa5XEJH7aIzk/qwPfnl9lANFUYan4iGEzwdAVuKGpatJgxrM9b1ZJ87S/8gE2GTqGEtFNZLqIPPkn0ulxAnEY+rBmn1CrLPl6WbEAi9xuUGl5Abk1/GNqGGZasJwwI/JfvcWUIn4d1MsDnUsBYKw1rqYILsc7lUVxqBj/g+E+9Icgy1tzgI1LBsNWVYnyH73C691wSbwzcujrJhwdAfHYasnreRX6vuSSZY5aC7xjlkn8+lcAkq+aNLmIy+zahh2WrKsGAgd5N9/ix9zASbQw1rXmup/FCcPPYgv2ogfIjq4ntkn8+lsOZd/pglRMZdEKjFqGHZasqwXkp+g6IxFCyJGta85DJfVeJrWFV3aUhyOtnnc8lrYYIbKHtal7aghmWrKcNCnYvP2EK0ViVRw5pXnYb1QvJ7T3UaFqqY5Plc8mrZWUPGENqMGpatpgwLw3QwuFmeP0tYhy5ZH6qGNa86DQvz0vm8pzoNC51B5flcsn5wCf0g8latGTZqWLaaMiz06fOZnfRiWjjFjRrWvNSw0mX94BJGa+PBtxk1LFtNGRa4mezzZwn3muwio4Y1LzWsdFk/uKSG5c+GZlg+cy6pYWVLDStd1g8uqWH5s6EZls8IfDWsbKlhpcv6wSU88Db3cgdqWLbUsMqhhmW0aA3rj1Rf79uqUMOy1aRhIY7I82dJDStbaljpCvtWyR+zhIeIqZTbjBqWrSYNSyvd01HDSsfbsHxmGsVqF09DoBajhmWrKcNCnyofw7qQFs73pIY1LzWsdHnPjYN5j9qMr2H90gSrDRgWGivkebO0mA3rseSXEM42weZ4T2JbEcnB01WjhmXUKsPCQqbyR5c+gEAtxtewUOdSJw8mM0JAnjdLi9mwnkF+Ky/JsYSvSWwrooNNsNpQwzJqlWG9P+VHl04jsT5Yy3gMmRVy5XVn6XoTrDbQk/sass+bpcVsWCsofzHcpD5kgs3ha1ifNsFq441kn9MlNSx/vA0LAyHljy6tIWMKbQUGgWKevO4sYXaB5PCQqsECDfKcLi1mw4IByXO79BYTbI6XkN+g3G+YYLXhO9GdGpY/3oaFB+lz8Zj469UI2FLuR2aVWHndWcL94AXWxa5kn9OlxWxYPnMb3cp6rgk2x86sG8neN0u/pfomk8RxjyH7nC6pYfnjbVgo3v0oZYNLqHuoejWPKjmF7GvO0t2sfUywWvD9Si9Ww0Iu9Tqyz52lK8hU0ifB+pM+xWecDzNE1AHqHjGbhDynS2pY/ngbFkBFutzg0lrWtmHIdvIpsq/ZJXxJ6wBTwH6H7PO5tFgNa0/ymxTuXLI/epuQX8dTVPDXtVDDE8kseiDP6ZIalj+lDAs3gKKR3OgSprets/L9/qx3ULmhQO8m+3pdwjptG4chqwWjAlD0kedzqQ7DOpKqW+48DRSfvk72eV3CUnFp+BTnoU+aYJWDhYLlufKkhuVPKcNCvY9PRTX0d6pvuS+Y1SfIVIifSP6r376A/L72aNlCC1WVIBFjXTl5rjzVYVjo8AsTr+sDg5lGbyD7vFnC9aCCPQ2Yq9zfJXR83iwMWR1lioOQGpY/pQwLiWtVysY8fZf8zSSPpFnF5zmJ/FryHs+6iuzrdelssosog4DIhkgnz5OnOgwLQmX2XlS9aeF4x5Pf4hNYRDXrHpGr9jkW4gk6nFbJ68mve0YsNSx/ShkWQFcF5JrkDi4hYmFRRphMFSASH0vpuSMUObIiuWQjMnUk8hgu4ZxvRuAKwAfAt0NurLoMC0KdDBoBkKOuihXkN8so5Oo/hcTkk1uDLiO7Ar8s6HiM48lzFJEalj+lDeterENSdsgTvkSIgIPWAT2F9X1yf9nOpuJTNM+QHT5PV5Ixg0HBkBGf1WOSqtOwIFRUI5Kgf9igPI/8c7LI6T0HgTPAx+8SssO5hA/n11gPpMFALv4Uso9fVGpY/pQ2LICilE/TdCyYzMlReF/iyvWirUPIORUxLSQm3y8/9HvWjlQOmP7+5BcZpOo2LAgJ/GLWq6h8EfHF5DfkKBZaTfOK3kggMlye8IE4isrXZyFOoerBpzgqpYblz0CGhQR3YLShjP4chS9iXPiavZZMrspn/BkiFEzrUeQGg44xG4AMX0RoNcTMAT6RfxnrBPK7lzQ1YVixEGlPJ1MBXrQVcXPWB8m/+gC6lfUyygcfm5vJDp8nfDjPIzN6o6gRo/rgDWQ6ocrj+UoNy5+BDAs8jHUR2TsWFQwFuTRUyMO83sTaPdKeZIxgNZkBymUTN85xNutB5Ob9VP6LiciPFigUk3Ht6JeTPB9MBcaxF5nc5fVkH6OMmjSsWIi8P2d1ySR21GfGBoZi1pPI5MY+QyZX5dsFJta3KD93BbCPb/eGpGB2Z5FZpXwXMvcTnxf3hfoumGJApnW8bDyUUsPyZ2DDAljBt8wXLk1I+IgQUNl6HSmYEJq/876iiKg+A6GzhGv/J+ta1l8jwZRRie2qcyujYRhWUojI/yCTYHCfuGdUgg+aqHFMn7nUUJk/6DkRT5CrS94PetLj44Lf5f6DSg3Ln0oMC0YwTeW/pHXrh2SKfEXAV7St95GmYRtWHYKpf4D8xv2hJbNskX5YUsPypxLDAigKHEd2gGHr11Ss0j1mE/KbQG/YGkXDOoPKdaVA8RSdTOXx2io1LH8qMyyAYTHfJjvQsITm7i3In+eT/7iwYWnUDAudRMt2oUCODJ2Iy9ZDNi01LH8qNSyAHMppNPxIg4aAshEf/Cf5zbVUla4mvxlQ6zAsdIT0iaBVCfWHaKwYBBT9zyT72HUL1Qh4F/J3l9Sw/KncsABax9Bz+w6yD1C3EHFgmA+mwUC93KHU7D2gkhdzPg17EQq0dKK1Fg0HcltdQs5qULOKQcv1T8k+R13Cxxktmq9P2eaSGpY/tRgWQHMwVilBq5E8SF1CSyUGEKOvTBXAtHC8OlqIpNaQaRVrw6o5MCyAJn7kturMLaOC/XSqPrHBtNDYUncDClqy0YEUJQud091oURpWzHasU6neylDkgs4hM4TDp2WpKHuQ6VlfR8LFtePrHI9ta5NhAXT8RGNKHaaNjxnGKhbthOoLhn9hWqMyIxiKCDnQLs0PM1PDMlrUhgXQCQ8vE1+8KiM+HiISNwYhVzWgOgvUh6FCFz22qzAuGBWKQbj2ZOfIthlWDIbW4P35RNw04dmhX9PR1Mwiu/iAPZvMCImq4h5y8l8nu5+YGpbRojesGCRMtMAdTqaC1ffLh8iOMKiUniUzbGPQQdS+IJH1yLRA3kB+5oXiyVoyvfrfQuk979GcfwSZiuMi+iLl19ehbkiGcylrCmgUkWFcXyWTQIp27MUzQqsrupgcRGbgeh05YRe4dnR7WE1m0Lpvjh/7ryFTN4ucfBo7kf0sXULDThb4cGGsowyTJd8plXzYlsyYTnnOLGEwf12Mk30+lyoDiRXmtR+ZOd8vYP2OzNzdsRBBkAs5h8wX+QAy9SplZhWtGhjljmTmVoIBn03mWnHNV0SKrx9fd0zDDJPCsBWMwVzsYFQAKpmR68RYzd/TwneH/2NSu2PIzMaJBSOa/rhkgZwIxkNOsb5CpoJeXv/lZFqav0lmyBhGc2xGipIAleWITLEQQYqMJWsL+IrjmpPXnzccaFSAGSXfXVvMqSjy+pFbaToXqCiKoiiKoiiKoiiKoiiKoiiKoiiKoiiKoiiKoiiKoiiKoiiKoiiKoiiKoiiKoiiKoiiKoiiKoiiKoiiKoiiKoiiKoiiKoiiKoiiKoiiKoiiKsmgIgv4Tg+ne0RPTveMmJ/tYCbhqluDY0NRU92VyY9NMTvZ2wrUEne6nJycn81Zqrp2VK1feL5jq9cPnP93LWulZURQw0TnwWWxY/2LdM9ntYgnxqlmCY0MTnR5WjB4qE1Pd10fX87dOp4OFOofKxMTEA4Pp/vnmmvrHyu2KMpKMjc1sGnR63+ev9S84UWIp9kKoYQ0XNSxlg2Ri4qDNkQhD45nurpLbs1DDGi5qWMoGSasNCzk/1mSnv6fc2DRtM6yZmZmNJ6d6nwyfz3Q3kNsVZSRpsWGFiTLSfeS2pmmbYQF+Lhvh+eyzzz73ldsUZSRps2G1iTYalqJscKhhFUMNS1GGxNTU1EM5Ab4RQh8eToQ3mMTY/1L8O+RKmGmGtWLFinujpXGi0/su/34N60bWZZOd/lf539eiCCOP4yK+jvFO50lym2Si210e7j/d//e4CDk5edAWk9P9/wqmuz8L77HT+wf+npzqfXxVp/NkeQwXvoaFotrEVO/VuCbc+6pVMw+T+wwC7pGf+4vCe+Z3IbdL+J0/jq/jDVD8G/qToUGD48CP+PfrWNezLmZ9YWqq9zw+x72SxyjKql5vS37WH4waBa6N4sHvgk7/y6z/h3giw2SxcmbmIWE87fRfhxZtuT0NvFuEQf+9vOIy4iTeE47f7XYfEf+Oa5yc7O2Mvm5Bp/tZxK9kuCwmJ/vbchw8hO/9J8F8GvgzH+eHrO5Yr/doGcZFEMw8Mo5DY2Nj98dvfM0PCqb67+XfzmSt5eP+k/+9hDWL+O/zfCV4XvwsXoU0OzHd+0N0/Xwf/XPxLHyvX4LnyMc6jI/1qyi+/Z3jyk9ZH5ro9x8v9w+ZmjpwO95xfUJhaxzr7uTviLQybIw0rANmZjbhv38gjpfUXaxTOLFvJo+VAVoJzbVM9feXGyVsTAeb/fvnhC1onf4r2Jz+Eph7ktcC3cgJ9T/lcbLwMSx06uREcEx0z9AXfM06j6iV8FzcM0es1XK7JLr+O1l34P8cB7YPjDllPZ91HKkOjRNJEZBQOOJN8vXcnHK8WHgeJyK+yPBpwHwCc483s4E8Q25PAyUFhEFXHRie3J4k7NYDQ5nu3YLEjt+mp6efwHHjO4F5XuF1w9RkWMGSKA7elnLPsfCsrypwrDkmJ7svie7ln/gAh8+j0/t5+Jt9fOh2NtgjED/ksfKIPmpIw3hH8rjx9V8HA/X9mCEe8XV/mMPfknJcI85QTHZ6b7WOzTf91OiiYsWB8BDmfi9qWJxwdosSD45xS5ijmupNc8Tp8M2dlIzAnLv5fJwDysGrW0P0MO5BboHPuXtgvgx4wJeycX2CTW8lR8iPIBJHv+PYtyFCyGOlUdSwQrNiA4n2XQ/jQm5L7jcovt0aApO7Cj8A+EpymCtNWDb1TvdI/v/YxHT3wMBE2Dihri/y7COW4H1H4SB8PY+HgYXC3yYnYN7pVPfrRRJVZFgIc2tRw+LzTYRh+CtexLA4zvw1QFzgHCub1db8/98n7iP8iOeZDJ/rY4kwSJQn8vPshTlYztFHufw43v2taI6N38tLozA3rpo+cMfEtV3Lx/0iH38cOZ/IYO+IrwHn5uBL5PGyCIL+Nhzuqig8rhMmfhTMH6WUKBcexwv8+yYqePxwVAbnUuNrC/Bx4PfPx57CtUclstvnj919OyWPjWwf3DR01G736QGyldNI7P2D498hnGgukGChYXVPDcxN/gDh5L5Bp/Nc3udq7Avz4gf/TLlPCqUMK/r6IOdwO15aSs4GCSsIoi8UX895+E3sY1HEsMLsNLoamP1qMyswiGFFhoqP0mxKTmcJupEkzOUyfNnFPhac0LcK4hw3R+7JyZnHyH3wWxQ5IxPovl7uI2nSsMIivLk+nG9dANNBcazT2cVVMojSUGRG/Z+kpYGwiMk5epwH+2FIlZWTSCE2rOijfyKeGzIEaXGQr/+VgSna4/qvSXsHaaCKiNPnhVG4f8Fg04af8TW8JjBFfOy3tmjxELkmXHcYjjMMKOHJfSY6nWfztj9Fx74VmSq5T0gVle4mbO9/024yBnUEQeTQbIwzcnsK5QzLnONO5PCyyvJh0cW8fOx/Az/AZXIfSZ5hhWZligShWbFm6zIrMIBhmUjJkT7r+YBkbikvdwGiYhj2vwlfa7k9BuYXoD7L7HuG66MIGjWs6d7h4TPihFM05w34+X8pusbrkvVgEhhUdA58WP9YJMEnclgwRORCTnHFK6SV8B7C++++TW5PYQly19E57kI6chkpjhlE6R4lFsr52Ef+cml0/Esz66lorpoiNsSTU6+jIsO6Cw4p90mCiMEv66Jo/zNciSWirGGFuayUnMMC+GG/ONp/PUfYN8vtEpdhoYibMKu7EYFdkaoKBjSsG/K+vhjQHkQ5bxR35HYJcgzYF7kruU3C7+dD5jq6V+ddR4OGdWeUi1mbF5cFiKfmOU13PyE3StAQEETmgwQqt0sShgVdz0XJpXKfJFFOF8W5e1DUl9slvP+/xTkbvv8f5xXT8WEO5qt/Lsmr45zo9N8Z7XtbkQ7gc/WP7ClovJHbKzKs7oVyexpxpEZ5Pi8i0QCGxRFwX7ldgvMHyA2YiN2V2yVZhoWvQNKs+NzfzjPLKhjIsApEZBgu73tB+PynuifJ7ZK5dzvV+6HcJkFLYWDizk1oVZPbkzRoWDjHetTjyX1cIEcVmJwPTOi1crskykWErfJTU73nyO2SpGEhVyy3pxHVNyHMaSlVIguIipHYF/VfqJfKhY//Pjwrcw928TcmrLvia4iOfwFfywPkPpKo8Q6tq+npvgrDKljE40jdPSi8kOneHwrUi5Q1rFvyEgEIWy2me78Jw3BYuV2SZlhh0XKqv19gIit0WhNmBQYwrLuLFPEA73syjo8K3bwc8Vylaqf3D1Rcy+1J0MVj1VT35RBH4gfJ7UmaNazu1a4EmEbYRYhNDnG7SFjcQxC1lBXJcSQM666CRTy8t6Oj+z/LlQNaUESd7l1RNO6imxHvfxRr1vWu0SUjmPeWKbk9i7iIjfpEua0aw+r095Db00CLQHghNRoWR77fu+oRYsIcBPp/mOtZLbdLpGFFZrUyiFo3+BjnFX3hVTCAYa0v0q8N4LlE9/bjPGPh/VbMvS/eH5WmqXUQnjRsWKfK7VViKt67U/Fz8jSs24oWVTFnW/QeLoKhyu0xSAN4V9G1nCC3Dwoa16JrvwUNF3J7FlEODqWVv8pt1RhWwZ7uTRgW6wJX5X/MIIYVdubr9N4f379R90LX16xqBjEs3LvcnoaPYUX9bNBCGz2P3lp8vVF5jXqqvKJJFk0aFnJJcntZcL/4sKGSOeh2dwhg6CYXiu42ZQzrJleFdZKihoV0Et87Glnk9kGJ0wzOgS4ZyEgUEaelvYOou5U85sgZFsrveRWHYADDuia6j3XR//8e/ctm0B+T4epiEMOS27LwMSwAc4nqT2TfvitQtwcjQbzJM5EkTRpW1P+nNDAo1M+FPd0x04jpfY4K+eTzQJoJ6388DevGAmkmpKhhRfVFYTVB0eKmD1FOCdd+B9J8YFqHCyjsIxh2E5HHVMMy17NabpckDAuVk6FZISFH2d6wkpB1LXpJy7B10EbDAkggk+Fwr7Bfj2nUWCiOM/1zEGeKFBmbNaxilc4S03LWfVdgDCpuiTVx17Q8rsEzRI4zqvMMc1nDNqywhdAc+3aMDJHbByXqiCzfv5fkMdWwzPWsltslCcOK1D9/vNd7LLZFkRW/353Xv6kq2mpYMbz/AzAPvvnKdk+NvrDzOY1wGEaYYJ39eNpuWDDdKO7FRnU7isZh50u+P3zQUBkfj2lMthK2yLDQifc/5PZBmauvQyfkqd6hAcaXekoeUw3LXM9quV2SNCze/7xkixAfa6OoKITtt9XxtZK03bCSIFGjk+SE6Sl9ejA3hKR7dV4DQBnDmutm0oBhBZ3OC4L5uszfhQOpHXWobTKsqGsPhlDdgwYkuX1QUMQ2196/8oBu91FyeynUsDwNi78WSERyOyoVg3jgKyeUojMLlGUxGVaS8LrNuLvQtKIxb5mUMaz4uhsxLIyRNGFzO3WCNhkWcsGBKcbi+EfJ7VmY/lV8XfxhdjUEoNtKeGzMktLt7iC3l0INy9OwUnq6g7BogEHWZp/1RfumlaVNhoWBvPzcP8XXcViRrh3IgQTzLYqnuaaAEYa1s9wuCeuT4mM3Y1ioKC4Uh8DEdH/XICoaD9uwwm4Wnf4J8bNyvYck6HsVRDkzDv8quT0m2g/dflDkfKPcnkV4z1Pdb3K4b8htalgFI1ueYQEMkOVj/jHab21lX5UU2mRYMJLonm8vOLAdierIMExO58aokyKOjZam18jtEvT/CuLxaM0YlplLbqr3AbktDd5vOjrX0A0L8L3vGx3/pqL9vPAe8D5Y612NTFErJCYiwLUcJ7dnMZdDnu79Rm5TwzLXs1pulxQxLBCYDpRRBWz31JmC/Y9gCGHPYJarDiSmTYYVVd4i13B30TiExonw2ju97+NdyO0x4XMpWHwEgRnIa2ZOaMawwm4t6Mogt0nwQeNz/TI6VysMK5xscb5v2NEoKch9kmB7/O5wL653x2Ax5LAnPZ5xXn0liIY6XRe9P3sMqxpWtYZlVmQOs7PYd91kgYHVIPryonvENUXGs7XJsEBgZtjEPV/qmooFoHWV97s83L/TPYIcLYUopiDhmWN3f+aa3QENIYhb0XU0ZFhz07L8xtU6zM/vPkE4C6sxdoRpg2GF18XxJzrHTa4iHogmFAy7q0SdTTPfHcB4ycB0A8KQsGPyip1R51o8n7tS6wRxQ0GcbZvqnpTnsDFqWNmEMx2E0zGbBIxck9xHkhhAnf5lEbTOsMy0I7j+u3n/47LqsjCOkPf5BvYLwhkS+i+W+wiw3Fs0uwPv3+mNyx0AjAc52sBMkYJOm40YFl//R6OwmJamL7cDFHmjPkmccPvn8L+Xhc+1SLyu2bAAxt4Gc/NoYZbe/kvlPiAcBzk/Z9Wfi7T84QMzV0823bsddbtppgWzj0aPhA1XnN6+nvoBmDFN8t+ODrgO824jp4UX4SqfqmFlA9PH1yfaH9PNHCb3kSx2w0I84v3Oi+4B5/l1WD/S7e6AoTmI7DAb/v3/ou3hdeM9yGNJEA8THwDMW3Uch90NLVThdMad3l7IfUXHPX1uSpMGDCuqWI7WRAiLrsdjqmXcc3jveAZmllvkrK4K000U74Iwp9I/1zXOrgnDYpZEk+zF3TNuQM4X94HpatACHhluNI1OeC9YG8CZu4oJn9F83S7mqzudr+014XsN+k9kQ9uDfzsliMbl4n24Wh9Rn7BnMBeJEnI8SDUsN8hhzNVXoONcp/NcuU+SxW5YAF/cyDjiOITzIY7gqxlPwRL+jq+ux8IciAuoGzTdRowQ8fF/FDfCVjfWBUhg0b6NGBZAuOh64muDceHacO9xusJc6LtTWK9jZi2ZV3qOBjRkWNGkluEYvth85X3E724df4yDmWLTnM+BouHkwqmn8bzw7qC5Z4d34ZqaPQQnR09XDnA264pYrhYfOCPvczS+digCye1phFPQ4us41Ts0q8iQABV2x0GY9ExulHACeJ3Zv9tz1XPEmLqR7kFhmE7/3XK7BL22w2vnyFCkUhzA8ON7mMxZ8GL++sN5peZWtsnC1JX1+tGx95HbJfjAwIAguS0LHDd6pgcWeaYgXInHfI3j+cGTuouP92N8IJEjk2FzWII51xN1Rkldi6JGHKfm31XvQ64WSBAaP7/T8DkW6DaRwZJVU73nR8U9eW23hz39zRzuYY7E9EXDGgPhB+FoV2U06nGiOHEUGjfk9jQ4Lb/FxIv+wTMF5qBKsATn43N9JbAXi1iP3CC6ZaAEIQMWwVSo9w8L5nNqSd2IXF08eiTm/wO4+/FlN0OloQAAAABJRU5ErkJggg==;" parent="1" vertex="1">
                    <mxGeometry x="82.5" y="40" width="85" height="50" as="geometry"/>
                </mxCell>
                <mxCell id="58scJgbtM5tuenPCcqmJ-2" value="CPT" style="text;html=1;align=center;verticalAlign=middle;whiteSpace=wrap;rounded=0;fontFamily=Verdana;fontSize=28;fontColor=#000000;" parent="1" vertex="1">
                    <mxGeometry x="100" y="95" width="60" height="30" as="geometry"/>
                </mxCell>
                <mxCell id="3" value="" style="group" parent="1" vertex="1" connectable="0">
                    <mxGeometry x="1250" y="90" width="60" height="50" as="geometry"/>
                </mxCell>
                <mxCell id="zNGoOxdxhcUfiAMrygO6-7" value="" style="shape=actor;whiteSpace=wrap;html=1;fontSize=28;" parent="3" vertex="1">
                    <mxGeometry x="10" width="40" height="30" as="geometry"/>
                </mxCell>
                <mxCell id="zNGoOxdxhcUfiAMrygO6-8" value="John Doe" style="text;html=1;align=center;verticalAlign=middle;whiteSpace=wrap;rounded=0;fontSize=12;fontColor=#000000;" parent="3" vertex="1">
                    <mxGeometry y="30" width="60" height="20" as="geometry"/>
                </mxCell>
                <mxCell id="4" value="" style="group" parent="1" vertex="1" connectable="0">
                    <mxGeometry x="1180" y="90" width="40" height="40" as="geometry"/>
                </mxCell>
                <mxCell id="zNGoOxdxhcUfiAMrygO6-11" value="" style="shape=image;verticalLabelPosition=bottom;verticalAlign=top;imageAspect=0;image=data:image/png,iVBORw0KGgoAAAANSUhEUgAAAGQAAABkCAYAAABw4pVUAAAACXBIWXMAAAsTAAALEwEAmpwYAAAFQklEQVR4nO2dX4hVVRTGP2psTLBJHPBvZYNPzSCG+paKiWWkPhRFUERQWmb5oEYPvQS+iDihoxb61ARmNQOGVA9lGEHRQ0/phAkWmWYghI3OKDozKxYs4XC4c+895+xz91r77B98MNw/Z+/9rTvn7LPP3msDdukBsBfAaQDXRKflNX4v0iLuAnAQwDgAmkRjAPbLZyMlB+PbOoFI60QMSrkczBCM2+oruU6VpUdORVkDwt/p9l35ENmXIxi39Z7vyofIUIGAnPJd+RC5WiAgw74rHyLDBQLyn+/Kh8hQPGXpYm+BgPT6rnyI9BTo9j7ku/IhmH8IQFvq9f05AsLd5SRTAByO413NsRDAkcQ41Qs1hk5OZAjGNxKAJC/Ke+NSFpcZqcGrAEZThl4AcG+NoPQ1OH2NyX9GOhgzAFxMfXZUyo4IbPhAHXMHANxRw61uuQM/JfcoV+Xv3kmuGXyMwTrlDErAKs0seYbR6NRzYJKgNAt/9/0myhmSOlWSZoNBomMAOnKUw9/5PEM5lQxKR84bvUsAXqpxbajFFPnspRzlDOUMvlk+zWESJfQ3gD0A1gN4AMA00QJ5rTdnIJL6DBVhY0GjqIXahMB5EMCIAqOpSXGXuAsB85ECkymjuM5B0p1zLIo8i+/oFyFA6t2UadcAAqMTwE0FxlJOcd1nIiA2KzCVCiqo8a7vFRhKBfUdAqGjwbRPKxoHcA8C4FEFZpIjrUQAvKXASHKk7QiAowqMJEf6GAHwkwIjyZF+QACcUWAkOdKvCIB/FBhJjsTD/ua5ocBIcqTrMM6dCkwkxyrybN87dyswkByrHcbv0ikwTYfxUV4KTDNhmC4FBpJj8aQKsyxVYCA51sMwzGMKDCTHWg3DPKfAQHKsZ2GYtxUYSI5lesS3mQnO1tQHw3ylwEByrOMwzJ8KDCTHOgfDC3EmFBhIjjVh9dn6CgXmUUl6BAZ5R4FxVJK492iOrxUYRyWJOyummGZs2QFlFC8wnQpDPK3ANCpZG2CIIwoMo5LVD0Pd3ZBPV5RYXWViXfs2BWZRi7QVymmXdBhUEZ3XnoZ2qwKTqMV6E0q5v2AaPjIqbvN9UMhxBeaQJ6m7UdykwBTyrFeghLUAbikwhBQsDH3cdzCWVfS6QZNoWGbaeGGN5MP1bQIpHOd6stXB2BJPU2h0+nq9FYHgea2fKPgVkhEdLXMu8GIAZxU0kozprHjnlFXx4o0iQbkmszidsLBG+tYoZPZgxFWO4CwJJKPQMJGn1307ouB+H5MYEDj7YTnZxyRLbt0o1PXgFxcB2R2Nhqsf2i4XAZkv3bb460fhXhY/M6pcrl1SqpfhmB1Gs4qSZ43JxI/SRnh/V9BIMrR0ofQ1iVMlKdlfChpMimej7Gh11oc2mTI6WJGJcdRAI5Lf96kae2d5mVz9hHTrfpSsORS4RqWtu6Tt7IFa2mSnNd7U610AH0qa1T+MJVS+KdfMk9IGbsvzkjbd+3+By5RN3B9fDuAZ6VLz+XanrHDtlwFNNuFnyUh3LqHLAP5NKLlsbiL13uXUd8/IMU9KGf1S5k6pw0ap03KpI9c1EolEIvZYBWBJQl0JdcrajBmpvn574vXO1HeSx+JjRzIyXGLvKe6vnoPfSgxIEPl3Q8qT8oXvxllkS4kBec134ywyv6TpqnzMeb4bZ5XDJQTkA9+Nssxcx72tKwBm+26UddY6elLJWxat892YUHij4D5W49JJiDhkXc4FQld8LKCpCp0A9jXZ++LPHAIwx3elq8A82azyS7nr5umuLP6bb/r4PZNd2/8B0Eko1IqU1gAAAAAASUVORK5CYII=;fontSize=12;rotation=0;" parent="4" vertex="1">
                    <mxGeometry width="40" height="40" as="geometry"/>
                </mxCell>
                <mxCell id="zNGoOxdxhcUfiAMrygO6-12" value="2" style="ellipse;whiteSpace=wrap;html=1;aspect=fixed;fontSize=12;fillColor=#FF0000;" parent="4" vertex="1">
                    <mxGeometry x="20" width="20" height="20" as="geometry"/>
                </mxCell>
                <mxCell id="7" value="" style="group" parent="1" vertex="1" connectable="0">
                    <mxGeometry x="1110" y="90" width="50" height="40" as="geometry"/>
                </mxCell>
                <mxCell id="5" value="" style="shape=image;verticalLabelPosition=bottom;verticalAlign=top;imageAspect=0;image=data:image/png,iVBORw0KGgoAAAANSUhEUgAAAgAAAAIACAMAAADDpiTIAAAAA3NCSVQICAjb4U/gAAAACXBIWXMAAA7fAAAO3wFVDDfZAAAAGXRFWHRTb2Z0d2FyZQB3d3cuaW5rc2NhcGUub3Jnm+48GgAAAv1QTFRF////AAAAAAAAAAAAAAAAAAAAAAAAAAAAAAAAAAAAAAAAAAAAAAAAAAAAAAAAAAAAAAAAAAAAAAAAAAAAAAAAAAAAAAAAAAAAAAAAAAAAAAAAAAAAAAAAAAAAAAAAAAAAAAAAAAAAAAAAAAAAAAAAAAAAAAAAAAAAAAAAAAAAAAAAAAAAAAAAAAAAAAAAAAAAAAAAAAAAAAAAAAAAAAAAAAAAAAAAAAAAAAAAAAAAAAAAAAAAAAAAAAAAAAAAAAAAAAAAAAAAAAAAAAAAAAAAAAAAAAAAAAAAAAAAAAAAAAAAAAAAAAAAAAAAAAAAAAAAAAAAAAAAAAAAAAAAAAAAAAAAAAAAAAAAAAAAAAAAAAAAAAAAAAAAAAAAAAAAAAAAAAAAAAAAAAAAAAAAAAAAAAAAAAAAAAAAAAAAAAAAAAAAAAAAAAAAAAAAAAAAAAAAAAAAAAAAAAAAAAAAAAAAAAAAAAAAAAAAAAAAAAAAAAAAAAAAAAAAAAAAAAAAAAAAAAAAAAAAAAAAAAAAAAAAAAAAAAAAAAAAAAAAAAAAAAAAAAAAAAAAAAAAAAAAAAAAAAAAAAAAAAAAAAAAAAAAAAAAAAAAAAAAAAAAAAAAAAAAAAAAAAAAAAAAAAAAAAAAAAAAAAAAAAAAAAAAAAAAAAAAAAAAAAAAAAAAAAAAAAAAAAAAAAAAAAAAAAAAAAAAAAAAAAAAAAAAAAAAAAAAAAAAAAAAAAAAAAAAAAAAAAAAAAAAAAAAAAAAAAAAAAAAAAAAAAAAAAAAAAAAAAAAAAAAAAAAAAAAAAAAAAAAAAAAAAAAAAAAAAAAAAAAAAAAAAAAAAAAAAAAAAAAAAAAAAAAAAAAAAAAAAAAAAAAAAAAAAAAAAAAAAAAAAAAAAAAAAAAAAAAAAAAAAAAAAAAAAAAAAAAAAAAAAAAAAAAAAAAAAAAAAAAAAAAAAAAAAAAAAAAAAAAAAAAAAAAAAAAAAAAAAAAAAAAAAAAAAAAAAAAAAAAAAAAAAAAAAAAMtkj8AAAAP50Uk5TAAECAwQFBgcICQoLDA0ODxAREhMUFRYXGBkaGxwdHh8gISIjJCUmJygpKissLS4vMDEyMzQ1Njc4OTo7PD0+P0BBQkNERUZHSElKS0xNTk9QUVJTVFVWV1hZWltcXV5fYGFiY2RlZmdoaWprbG1ub3BxcnN0dXZ3eHl6e3x9fn+AgYKDhIWGh4iJiouMjY6PkJGSk5SVlpeYmZqbnJ2en6ChoqOkpaanqKmqq6ytrq+wsbKztLW2t7i5uru8vb6/wMHCw8TFxsfIycrLzM3Oz9DR0tPU1dbX2Nna29zd3t/g4uPk5ebn6Onq6+zt7u/w8fLz9PX29/j5+vv8/f7U9jk/AAAN30lEQVR42u2ce3BU1R3H775CNuSx2QDyfhve4S0UKPKqYAsKVdtQcWAoPhCkFalSUCqvEQEplEd5SECSjO0UlUEstjCl2JaigoRYKdMZdULbAdsRAeURhG0LFIgkIbt7z2/33nM+n38U2N2TnN9nv7/fvZscywIAAAAAAAAAAAAAAJ3xsAVJ2/qm6eXlJ08hgIkEht6Xlxu89H/HDpe+9ocIO2IUfVb+O1KRo0uasCnG0GjuR5FKlBe0YWfMaPyPnIhUyYXNXdkd/Wn9+0i1fDk/wAbpjW/a6cjNONCRPdL67f9OpAbOTmWX9GXEZ5GaWedjo/TEO+diJBq2BtkrHQlvj0TJnlBiL0uoTSLI29L88n8/3fOn0qOfNOic1zkvp7rHbh/BjUHdGHby8pv7wwcrXOh1mbnnQtUZMIcN04yHz1+q6/mn/Df8fc7ogn9UIcDFu9kynfAsvFzWsj5V/mP3OR9UMuAE94U1IvVXl4v6cfWf97R9+v0bDDiUwb7pQsbuK+//Fjd9VM/VX/2IoIiN0+Xy78rdv7Ndanpg2ti3KhrQg63Tgkb/D/cp0Tw4d8GxawLsYO90oNORK+XcGeXjU/KvfVo4mN1zP6Ou3v3vHf1z2i09fvkpe9k+1zPr6t3/N2N6WnDMrktPzGMDHURoUZ+YL/9evtbQ+8b63Fbzjnzei113EAsjkYMTY7o4r//29Y934ljQ25BNdxLdLhXy1Orof2yvZ9n1S7p72D/3s/VKLd+dkB7No30zz1f4QS8+cdWAtlcrejKKGGizp+I9nTHsng6svF7R939y0x/eDP74TMX6H+FnfbWg7ldu1h+eX10OpDz6z69+sDONvdOD/Bs+sftw0Z2ZlR6UMf7jGz/azWTrNGFp5V/l2LckPzft2gNaPPbbc5Ues9jh3xUTatQEdlV9M+jcqXNnzvgyMjJrVfGPn3b4FzunCw2ORmLmfrZNI24/H2v9X3f898QvosRA2RdDY3zCiNMIoBN7vxwUy8NPDC5jzzTjiRjyv3wg+6Ufky9GW//Td7FbOjL0k+jqf7wfe6Xp1eCuaOpf1omd0hXvsxdqrP+WMPukMZ1/U8NJH1PYI825o6T68l8sbsEG6d8Hxv6tmvq/2Y3dMYPui8oqVf+LNS476YtPA23tXp/84c2u/uE/ZYc++Mu2zywEMIvMju3DwWDk8KG/nmYzAAAAAAAAgPsAUD3N4tz/Y+cQQAcC5XE+cfivVX0JXqqQROL+oYFsCwF0oE7CzUEAPQQgAfQgBwFIAARAAGYAWgAJQAIgAAJETQgBaAEIYHACBFMRwOgEUBcBCJBE/FkIQAAgACNAHIQRgARAAIMTAAEQAAFoAQjAEIgAtAAEoAUgAAmAAEYlQAgBzBZA2RDIbwYlD3+5jd1PP0MCuJ2wnXefqiEAAVw5AyKA8QKEEcDkGZAEoAUgAAIgAC0AARgCEYAWgAC0AAQgARDApARgBnA9Nn4vyFL3eTACJA1bnwUhgOEjgBVIRwCTRwBlUyACuDQBVE2BCOBWAUgAWgACkAAIwAyAALQABKAFIAAJgAAIgADuwRdiCDSasIcEYAa0QQgBDBfAgwAmz4CWLwMBjE4ARVMgArhWgGwEMLoFIAAJgADMAAhAC0AAWgACkAAI4DLsfhaEAC4nbPtOLkOg2SMACWD4CIAApidACAHMFiDLiwBGtwBvFgIYnQBqhgAEQABwZwtAANMTIIwAJAACIAACuBFfNgIYTbYHAZgBGQIRgARgBkQAEgABEAABaAGxkuFDAKMTwBNCAKMFUNIDEMC9LQABTE+AMAKQAAjgSrwhBDCasBcBGAGYARgBSAASAAEQAAFoAQhAAiAAAiAALSAW0gMIYHQCqDgiAAFcnAAqegACuFmAsB4CeKa2lF5i4L3SKzSZHsuuZ5MA12m8Y3GK7Aopi3Y2Fv4mRh8cEEvhvI4RwJ/0+n93VbbwCh2LOwmvEFo5OhkzoA4JkFX4snD9PT98V7r+Aw7GVn9lAoRdnwD9NzUVXqHRxsHCK6TMmxrr2yiHBLiydQt+J13/75RK17/DO9Ni3kQHtYBkJkD7oi7CK2SuGCN9BTPludTYn4UAl7Zu8vOpwkt8vVA6YBpuHJLE2wCubgENti8Trn/guV3S9b+3NK76MwRa1rfX5Aiv0K5YvMEsfyDOZ6oSIOTWBMjYsFm6/pP3Sde/38F46++kFpCUBOhT1Fy6wRQMFV4hMPvJ+N88qhIgLeW8CxPAP2+3dP1HlUrXv+3e6Ta2Tln82R8CEi9Amz/P8MmukL7+FekGM2l/Vzubruzmp/0XSngLmLgoTbrBFLYQXqF+wTB7ZfM6R4AEJ8At21YK198/Z7d0/UeW2qu/shHAfQlw17q6wivkFvUQXiF96Xi7L5FjmZkAtdduka7/I+9J1/9rJbbrrzABwm5KgF5FrYRXqLf+W9JXMM+omGCNbAG+p2dKrzViXT3hFW4t6qniZXIMFKB1YS/pBrPkQelv4qEXait5HQMTYMJPawuvcFtRa+kG8+JwRa/kJAESMgTW3bJWuP6+WX+Urv/wUlX1V9gC3DEEfnP9LcIrtCqSbjBpSx5S92JmJUDaqm3S9f/+Aen69zygsP4KEyDk/AToXpwrvEKddXdLX8HMeEbpPhl0FeCbPisgXJ0719cXXqFlUW+lr+cNK3up1OBZR7eAFrvnCtc/uOIN6fqPL1FbfyukcNNtR4CoAONK+kg3mPcelW4wr76YrvolLTMEyNlckCFbHO+MPW2E6z+sdKR6p5wkgNwMcEdBQ+HiNC/sK7xCcOEkiXeGCQmQumy7dP3HlkjXv9t+iforTYCwQxOgS3E74eKE19wjvIL3ydkyE6z+LcA7bY7wb/xb39gg3mA29ZMajnQXoOmm/sLFSV3wmEd4iQeWZ4pdWGguwP0rsoSL07m4vXSDWS14poyjZgDlQ2D2LwqF6+/90dvS9R9yUPJMIa1bwKCN0qfxNH3pduEVai2YItpgNL4RVOuFHdL1/95B6frn7fuB7IChbwJ0Ku4oXJzQqnzhFTxPzBO+gvGoPBQp5CABPI/PryVcnYEbmwiv0OSlAcIrWNk+JyWAuhbQeMdi4frXWrxTuv6xHfeX/BHASqntlAQw8bi/5I8A/4uA045IgAQc9/e48477c0AC2O4BahLA0OP+nCCA3TtBKr5nY4/7c0QLSH4CmHvcHy3AMvu4Px0EsBt7Whz3d19pAuuvVwsw+7g/44dA04/7Mz0B+hY2F94rhx/3Z7YA/mefEj7uzRq1Vjpg2hZ3TXD5LU9YDwHaFHUX3qn0n42TLsakhcFE198K+bQQgOP+nDEDJukyMAHH/c11/nF/jhAglIwE4Lg/x8yAlj/j80QnAMf9OSkB7PaA2AXoVTJBeIvqvb5KusHMfqulpYkANi8qYm0BHPfnsBZgNwFirGbrotuE9ycBx/09vLh28urvtBYQmwAc92f0DMBxf2a3AI7703EIjDoBOO7P7AToUcRxf0pQ/FlQggTguD9lhHwuFKBFofRxb8HFE6V3fvzSdAfUX/kIkIgbQeOWCR/3ZnV/Tfq4tzqvjrQcgfKfcJBPgGYF4rtSKL7CDMshKE+AkPhVgMcCJwvgkRYAHN0CvJkIYHQC2JwCEcD1AmQjgNEtAAFIAAQgARDAXAEYAt2E8s+CSAB3keVHAGZABEAAZgBmQBKABEAABLBPCAHMbgFZXgQwOgE8IQQwWgB7QwACuL4FIAAJgABGJ0AYAVyDwGdBJICbyPIjACMAAjACIAAJwBCIACQALQABSAAEQAB7hBDA7BaQ6UcAoxPAVgQggPsTwNYQgAAIAG4XIIwALiHLTwIwAyIAAiAAIwACkAAMgQhAAtACEIAEQAAEQABaAAKQAHFSO4AARieAnQhAgEQSRgCjyQo4TywEcP8IQAKYPgIgAAmAAEYLwAxAC0AAWgACIAAC0AIQgCEQAUxLgBAC0AIQwGABgrUQwAVkBiznRQACaDAD2pkCEUALAUgAo0cAOwL4qYsiGo2r6RG95RYfHlW6bD1e+e88NT+t+UdUVw+6ldACAAEAAQABAAEAAQABEAAQABAAEAAQABAAEAAQABAATEDiJ4J+/neFLzZkUHzPe2W/wi8iLz/eZy4/qvDLGNbfHQIU7lX4YqlxCvDGRoVfRH7cAmwoUfhlhAQEoAUwAwACAAIAAgACAAIAAgACAAIAAgACAAIAAgACAAIAAgACAAIAAgACAAIAAgACAAIAAgACAAIAAgACAAIAAgACAAIAAgACAAIAAgACAAIAAgACAAIAAgACAAIAAgACAAIAAgACQMLwH67xIQF2SRN+ebYKAXLZF2O4lRYACAAIAAgACAAIAAiAAIAAgACAAIAAgACAAIAAgABgBH6B1+yg8sUax/m8Vr0VfhGt435mp1SFX0ZDgWJ5IrwJaAGAAIAAgACAAIAAgACAAIAAgACAAIAAgACAAIAAgACAAIAAgACAAIAAgACAAIAAgACAAIAAgACAAIAAgACAAIAAgACAAIAAgACAAIAAgACAAIAAgACAAIAAgACAAIAAgACAAIAAgACAAIAAgACAAIAAgACAAIAAgACAAIAAgACAAIAAgACAAIAAgACAAIAAgACAAIAAgACAAIAAgACAAIAAgACAAIAAgAAIAAgACAAIAAgACAAIAAgACAAIAAgACAAIAAgACAAIAAgAWuHpzR4AAAAAAAAAAAAAAABoy38BKrnA//kOif0AAAAASUVORK5CYII=;fontColor=#000000;strokeColor=#000000;fillColor=#FF0000;aspect=fixed;" parent="7" vertex="1">
                    <mxGeometry width="40" height="40" as="geometry"/>
                </mxCell>
                <mxCell id="6" value="1" style="ellipse;whiteSpace=wrap;html=1;aspect=fixed;fontColor=#FFFFFF;strokeColor=#FFFFFF;fillColor=#FF0000;" parent="7" vertex="1">
                    <mxGeometry x="30" width="20" height="20" as="geometry"/>
                </mxCell>
                <mxCell id="15" value="" style="rounded=0;whiteSpace=wrap;html=1;fillColor=#FFFFFF;strokeColor=#000000;" parent="1" vertex="1">
                    <mxGeometry x="240" y="220" width="210" height="210" as="geometry"/>
                </mxCell>
                <mxCell id="16" value="Param-Entw 1" style="rounded=0;whiteSpace=wrap;html=1;strokeColor=#001DBC;fillColor=#0050ef;fontColor=#ffffff;align=left;" parent="1" vertex="1">
                    <mxGeometry x="240" y="220" width="210" height="30" as="geometry"/>
                </mxCell>
                <mxCell id="17" value="online" style="rounded=1;whiteSpace=wrap;html=1;arcSize=50;strokeColor=none;strokeWidth=1;fillColor=#33A64C;fontColor=#FFFFFF;whiteSpace=wrap;align=center;verticalAlign=middle;spacingLeft=0;fontStyle=1;fontSize=14;spacing=10;" parent="1" vertex="1">
                    <mxGeometry x="390" y="225" width="55" height="20" as="geometry"/>
                </mxCell>
                <mxCell id="18" value="&lt;font style=&quot;font-size: 24px;&quot;&gt;9&lt;/font&gt;" style="ellipse;whiteSpace=wrap;html=1;aspect=fixed;strokeColor=#001DBC;fillColor=#0050ef;fontSize=24;labelBackgroundColor=none;fontColor=#FFFFFF;" parent="1" vertex="1">
                    <mxGeometry x="397.5" y="260" width="40" height="40" as="geometry"/>
                </mxCell>
                <mxCell id="19" value="&lt;font color=&quot;#000000&quot;&gt;&lt;font style=&quot;font-size: 10px&quot;&gt;Stage&lt;/font&gt;&lt;br&gt;Entwicklung&lt;/font&gt;" style="text;html=1;strokeColor=none;fillColor=none;align=left;verticalAlign=middle;whiteSpace=wrap;rounded=0;labelBackgroundColor=none;fontSize=12;fontColor=#FFFFFF;" parent="1" vertex="1">
                    <mxGeometry x="250" y="260" width="80" height="30" as="geometry"/>
                </mxCell>
                <mxCell id="20" value="&lt;font color=&quot;#000000&quot;&gt;&lt;font style=&quot;font-size: 10px&quot;&gt;Syr Version&lt;/font&gt;&lt;br&gt;3.13.00.00-00&lt;/font&gt;" style="text;html=1;strokeColor=none;fillColor=none;align=left;verticalAlign=middle;whiteSpace=wrap;rounded=0;labelBackgroundColor=none;fontSize=12;fontColor=#FFFFFF;" parent="1" vertex="1">
                    <mxGeometry x="250" y="300" width="80" height="30" as="geometry"/>
                </mxCell>
                <mxCell id="21" value="Idle" style="rounded=0;whiteSpace=wrap;html=1;labelBackgroundColor=none;fontSize=17;fontColor=#ffffff;strokeColor=#2D7600;fillColor=#60a917;" parent="1" vertex="1">
                    <mxGeometry x="240" y="400" width="210" height="30" as="geometry"/>
                </mxCell>
                <mxCell id="22" value="&lt;u&gt;DB-URL&lt;/u&gt;" style="text;html=1;strokeColor=none;fillColor=none;align=left;verticalAlign=middle;whiteSpace=wrap;rounded=0;labelBackgroundColor=none;fontSize=12;fontColor=#3333FF;" parent="1" vertex="1">
                    <mxGeometry x="250" y="330" width="60" height="30" as="geometry"/>
                </mxCell>
                <mxCell id="23" value="&lt;span&gt;GRR-URL&lt;/span&gt;" style="text;html=1;strokeColor=none;fillColor=none;align=left;verticalAlign=middle;whiteSpace=wrap;rounded=0;labelBackgroundColor=none;fontSize=12;fontColor=#000000;fontStyle=0" parent="1" vertex="1">
                    <mxGeometry x="250" y="360" width="60" height="30" as="geometry"/>
                </mxCell>
                <mxCell id="25" value="" style="rounded=0;whiteSpace=wrap;html=1;fillColor=#FFFFFF;strokeColor=#000000;" parent="1" vertex="1">
                    <mxGeometry x="460" y="220" width="210" height="210" as="geometry"/>
                </mxCell>
                <mxCell id="26" value="Param-Entw 2" style="rounded=0;whiteSpace=wrap;html=1;strokeColor=#001DBC;fillColor=#0050ef;fontColor=#ffffff;align=left;" parent="1" vertex="1">
                    <mxGeometry x="460" y="220" width="210" height="30" as="geometry"/>
                </mxCell>
                <mxCell id="27" value="online" style="rounded=1;whiteSpace=wrap;html=1;arcSize=50;strokeColor=none;strokeWidth=1;fillColor=#33A64C;fontColor=#FFFFFF;whiteSpace=wrap;align=center;verticalAlign=middle;spacingLeft=0;fontStyle=1;fontSize=14;spacing=10;" parent="1" vertex="1">
                    <mxGeometry x="610" y="225" width="55" height="20" as="geometry"/>
                </mxCell>
                <mxCell id="28" value="&lt;font style=&quot;font-size: 24px&quot;&gt;7&lt;/font&gt;" style="ellipse;whiteSpace=wrap;html=1;aspect=fixed;strokeColor=#001DBC;fillColor=#0050ef;fontSize=24;labelBackgroundColor=none;fontColor=#FFFFFF;" parent="1" vertex="1">
                    <mxGeometry x="617.5" y="260" width="40" height="40" as="geometry"/>
                </mxCell>
                <mxCell id="29" value="&lt;font color=&quot;#000000&quot;&gt;&lt;font style=&quot;font-size: 10px&quot;&gt;Stage&lt;/font&gt;&lt;br&gt;Entwicklung&lt;/font&gt;" style="text;html=1;strokeColor=none;fillColor=none;align=left;verticalAlign=middle;whiteSpace=wrap;rounded=0;labelBackgroundColor=none;fontSize=12;fontColor=#FFFFFF;" parent="1" vertex="1">
                    <mxGeometry x="470" y="260" width="80" height="30" as="geometry"/>
                </mxCell>
                <mxCell id="30" value="&lt;font color=&quot;#000000&quot;&gt;&lt;font style=&quot;font-size: 10px&quot;&gt;Syr Version&lt;/font&gt;&lt;br&gt;3.13.00.00-00&lt;/font&gt;" style="text;html=1;strokeColor=none;fillColor=none;align=left;verticalAlign=middle;whiteSpace=wrap;rounded=0;labelBackgroundColor=none;fontSize=12;fontColor=#FFFFFF;" parent="1" vertex="1">
                    <mxGeometry x="470" y="300" width="80" height="30" as="geometry"/>
                </mxCell>
                <mxCell id="31" value="Idle" style="rounded=0;whiteSpace=wrap;html=1;labelBackgroundColor=none;fontSize=17;fontColor=#ffffff;strokeColor=#2D7600;fillColor=#60a917;" parent="1" vertex="1">
                    <mxGeometry x="460" y="400" width="210" height="30" as="geometry"/>
                </mxCell>
                <mxCell id="32" value="&lt;u&gt;DB-URL&lt;/u&gt;" style="text;html=1;strokeColor=none;fillColor=none;align=left;verticalAlign=middle;whiteSpace=wrap;rounded=0;labelBackgroundColor=none;fontSize=12;fontColor=#3333FF;" parent="1" vertex="1">
                    <mxGeometry x="470" y="330" width="60" height="30" as="geometry"/>
                </mxCell>
                <mxCell id="35" value="" style="rounded=0;whiteSpace=wrap;html=1;fillColor=#FFFFFF;strokeColor=#000000;" parent="1" vertex="1">
                    <mxGeometry x="680" y="220" width="210" height="210" as="geometry"/>
                </mxCell>
                <mxCell id="36" value="Param-Master" style="rounded=0;whiteSpace=wrap;html=1;strokeColor=#001DBC;fillColor=#0050ef;fontColor=#ffffff;align=left;" parent="1" vertex="1">
                    <mxGeometry x="680" y="220" width="210" height="30" as="geometry"/>
                </mxCell>
                <mxCell id="37" value="online" style="rounded=1;whiteSpace=wrap;html=1;arcSize=50;strokeColor=none;strokeWidth=1;fillColor=#33A64C;fontColor=#FFFFFF;whiteSpace=wrap;align=center;verticalAlign=middle;spacingLeft=0;fontStyle=1;fontSize=14;spacing=10;" parent="1" vertex="1">
                    <mxGeometry x="830" y="225" width="55" height="20" as="geometry"/>
                </mxCell>
                <mxCell id="38" value="&lt;font style=&quot;font-size: 24px&quot;&gt;8&lt;/font&gt;" style="ellipse;whiteSpace=wrap;html=1;aspect=fixed;strokeColor=#001DBC;fillColor=#0050ef;fontSize=24;labelBackgroundColor=none;fontColor=#FFFFFF;" parent="1" vertex="1">
                    <mxGeometry x="837.5" y="260" width="40" height="40" as="geometry"/>
                </mxCell>
                <mxCell id="39" value="&lt;font color=&quot;#000000&quot;&gt;&lt;font style=&quot;font-size: 10px&quot;&gt;Stage&lt;/font&gt;&lt;br&gt;Master&lt;/font&gt;" style="text;html=1;strokeColor=none;fillColor=none;align=left;verticalAlign=middle;whiteSpace=wrap;rounded=0;labelBackgroundColor=none;fontSize=12;fontColor=#FFFFFF;" parent="1" vertex="1">
                    <mxGeometry x="690" y="260" width="80" height="30" as="geometry"/>
                </mxCell>
                <mxCell id="40" value="&lt;font color=&quot;#000000&quot;&gt;&lt;font style=&quot;font-size: 10px&quot;&gt;Syr Version&lt;/font&gt;&lt;br&gt;3.13.00.00-00&lt;/font&gt;" style="text;html=1;strokeColor=none;fillColor=none;align=left;verticalAlign=middle;whiteSpace=wrap;rounded=0;labelBackgroundColor=none;fontSize=12;fontColor=#FFFFFF;" parent="1" vertex="1">
                    <mxGeometry x="690" y="300" width="80" height="30" as="geometry"/>
                </mxCell>
                <mxCell id="41" value="Job: Import Paket 9" style="rounded=0;whiteSpace=wrap;html=1;labelBackgroundColor=none;fontSize=17;fontColor=#ffffff;strokeColor=#2D7600;fillColor=#FF3333;" parent="1" vertex="1">
                    <mxGeometry x="680" y="400" width="210" height="30" as="geometry"/>
                </mxCell>
                <mxCell id="42" value="&lt;u&gt;DB-URL&lt;/u&gt;" style="text;html=1;strokeColor=none;fillColor=none;align=left;verticalAlign=middle;whiteSpace=wrap;rounded=0;labelBackgroundColor=none;fontSize=12;fontColor=#3333FF;" parent="1" vertex="1">
                    <mxGeometry x="690" y="330" width="60" height="30" as="geometry"/>
                </mxCell>
                <mxCell id="43" value="&lt;u&gt;GRR-URL&lt;/u&gt;" style="text;html=1;strokeColor=none;fillColor=none;align=left;verticalAlign=middle;whiteSpace=wrap;rounded=0;labelBackgroundColor=none;fontSize=12;fontColor=#3333FF;" parent="1" vertex="1">
                    <mxGeometry x="690" y="360" width="60" height="30" as="geometry"/>
                </mxCell>
                <mxCell id="44" value="" style="shape=image;verticalLabelPosition=bottom;verticalAlign=top;imageAspect=0;image=data:image/png,iVBORw0KGgoAAAANSUhEUgAAAIAAAACACAYAAADDPmHLAAAABHNCSVQICAgIfAhkiAAAAAlwSFlzAAADsQAAA7EB9YPtSQAAABl0RVh0U29mdHdhcmUAd3d3Lmlua3NjYXBlLm9yZ5vuPBoAAA63SURBVHic7Z1rdFVlesd/zz47AQIYEOUmjDLW2hnR1mlhVEDj6AAh5Aon7bIyU21nbHUt1uqq1UFBAgjOzLIf2umatbRVpzNMVw2ThOSQcBmRIBDBWS4vXLR1KjrcEzKgQAjJOfvph5OTQsjlXPblJGf/PsE+e7/PP+v/P+9+z768rzDUUKSgetE0FevrojpNhZsEpirWeEHGAeOA4SjZCCO7jrmA0AG0A62KtgpGM2L9Dsv4HKxPIeuj+rKqwwjq4V9nO+K1gFQpqi2aHIkwSzFmieoMhNuB0Q6V+xLlAIa+I5bsMUxtqiuuO+5QLVcYdAHIb8gfZl4adp+FlS8q+Qq3eizpY0UawNoyMjxs54byDR0e60mIQRGAvB155oizY75tWFqOUAKM8VpTH5xR2Aha2Tb2yzca728Mey1oINI6APlVZVMMifwlwuMoX/FaT4KcAH6Omi/XL6r61GsxfZGWASisLp1toUtBy4CA13pSxEJ4U4R/2VRSG/JaTE/SKgALqksXilgrUf7May2OoOwTZfWmxbUNXkuJkRYBWFhT8oBauhbhm15rcYm3UX22flHdDq+FeBqAeVVlk7KMyI9UWeKlDq8QdFPAkMdrS2qPeKfBA/J25Jmjzl7zhKqsBq7xQkPaoFwQ5MURkax1XvyEdD0A0QGe9VPgdrdrpzf6AYY8Xl9S2+RmVdcCEKwMBi4GOleo6ArAcKvuIEMFfnKiZcKT7z72cqcbBV0JQFFt0YSIJetRHnSj3mBH0Z1mgIfcuMzseAAW1pQ8oKrrgYlO1xpaaIvCdxrK6rY4WcWxAFRUVBi/ueO9NcAyJ+sMcSxE19aX1K106i6kI8bkvZY3fGRu7mvAXzjRfuah60+2THzUiXGB7QEoDBVeZ3UYmzLooo47CA2GaQVDhaE2e5u1kaLaogmRiPwa/yeeU7xjZFkFocLQabsatC0AxRuLp4Yt2Q56i11t+vTKIUsD8zYvqj5qR2O2BGBuden4LKydwB/Z0Z7PQMgnncjsbWU1zam2lPIFmcJQ4XVZWG/im+8ieksWVihYGRyVakspBSBYGRxhdRp1wG2pCvFJmJltWR01wcpgdiqNJB2AiooKo83sXA/cnYoAnxRQHmwzO16tqKhI2sekn7YZuTT3eeD7yR7vYxt3HJ9wUj55/b8bkzk4qUHgguqi+YLU49/USRcsQyQ/VLpxW6IHJhyABZULJoqZ9R7+tf20QqDZCOidid5ASugbHKwMBgwz+5f45qcdCuPDEf4zWBlM6LSeUADazI7Vin4rMWk+biHIfRcDnSsSOyZOup7k2Yl/3k93LEv13s2L6vbEs3NcZubtyDMtIv8a7/4+nmIERF7Jey1veFw7x7PTqDPXLAX549R0+biFwq0jc3OXxbPvgKeAeVVlk0yJfATkpqzMx006xIpM37R40yf97TRgD2CK9c/45g9GstUwfzjQTv32AF3P871hnyYftzEw8kJlNTv7+tzs7+Cu17V8ksQ0TP7qtiXcPfkujp8/wUsf/jtHz9lyGz9uLLXWAbP6+rxPexduLC5UizpHVGUApmGybOZTfHPSzO5t5zvPs3z3Sn579n/dFWMxv35x7dbePupzDKDKc84pGtr0Zj7AqKxRPD97FX8w5mZ3BRms7PujXlhYU5I3ZF/Rdpi+zI/hUQjuzq8q6vU00HsPoNY/OCpniGIaJj+Y+Y99mh/DixAI8mTv23tQULXoq0j4E/yrfgkRM/+uSfE/De/ymMCKiNy8pXTjZ5dvvMpkJfI3vW336ZtkzAfXewIjgPVoz41X9AB5O/LMkWdyPwcmu6FoKJCs+ZfjYk9wLCecfeOG8g2R2IYrvumjWnPn4psfN3aYD672BDe0Z3U+cPmGKwKghpQ7rWCoYJf5MdwKgWVZV3jcfQoIVgaz28yOk8BYRxUMAQb6qZcKZy+d5YntS/ni0pe2t93FmZxw9sTYdDTdPUB7VmcevvkD4qT5AGOGjWH2DX1eubWDsefN9tmx/3QHwMLKd7LqUMBp82Oc6zjvaPsBjPmxf3cHQFT8APSDW+Z/2LKfPcecnSdKodtrA6JTrqfBrNtpS7xX+FLlUOtHrNm7johGBt45NaYvqFwwEboCELaM2f3vn7nYPdrvi0OtH7GyaTUXwxcdrRNDTPMe6AqAoeroqGOw4qb5zzWtcs18AMWYBV0BUP/O31W4bX57uN3ROj0RrJkABoogTHe1eppjGoEhbX4UuR1FJL+m5GZD9bceKEhLouY/NcTNj2KErRsNUfmaZwrSjEwyHyBiytdNUZ2WTg9+js4ezZ/fupjrRlxH45G32Htinyt13Trn7z99gFVNz9Me8dZ8ABFjmtm1rl5aMGbYGNbNWcNXRk8FYPYNs/iPg+vZ8D+/crSuW+f8g62HWPV2epgPIKrTDEHTYjGmnubH+O5tDxP8w8WO1XWr2z/YeoiVTas97/YvR9EbDWC810L6Mj+GUyHIZPOjyPUG0aVUPWMg82PYHQLffFAYZwDXeiUgXvNj2BUC3/wo0hWAHC+KJ2p+jFRD4Jt/BTkGkNJEg8mQrPkxkg2BaQR4eoY7o/1BYD7AMNcDkKr5MRINQcz8uyfflVLdgRhE5kNXAFzDLvNjxBsC3/w+UQNwZa264YHh/HDO87aZH+O7tz1M6S3FfX7ulvkftHzIc3u8v7ybEMol1wKQN/Vepoye4kjbfz39kV5D4Kb5q99ey6XIJUfr2I5EA3DBjVqGOHu26RkC0wjw1IwnffP7p80Afu9GpcYjb3HywilHa8RCEDP/nsnOTmQ+yM0HtFUKqot3AHlulJuQM54X5qxlfM71jtb57IvPuCn3JkdrDH7zAdhuALYtQDQQp9qaeXrXM5xqc7YncNr8A6cPsmbvusFuPiqcNhD93M2iLW0t/GDXcsdD4BQHTh+komnN4Brt94WlnxtYhqsBgGgIlg3CEHSbnyb381PFEA4bYH3qRfHm7hCkvPCVKww18wEs+MwwsvSQVwKiIXg27UMwFM0HyDLkoKBIQU3xWeAar4SMz7meF+asZUKO58+mXMVQNR84W19ae62BoCgHvFTS3NbCM2l4OhjC5gPsR6L3AsDQdzwWw6m2ZpbvXknrxVavpQDwXvP70Ue3h6b5APug69UwsSSu1SWc5sSFEyzbvcLzELzX/D5r9q6jI+LKbRJPMCTquQFgRTp3eyvn/zl+/rinIcgE8wG9pNIEXQFoKG84CXzsqaTL8CoEGWI+CvtjC09ffotus0d6eiUWgt+3u3KvKmPMB0B1S+yf3QFQNK0CAF0h2LXc8RBklPmAwNUBONUysRGXbg0nwjGHQ5Bp5gNnciLDugf93QF497GXOxVqvdHUP06FIAPNB/hVbI5A6DFTqFi87r6e+Dh2/jjP7LJvTJCh5iMiV3h8RQAujPtiO3DMVUUJcPT8sa4QnEmpnUw1Hzg6ojOr8fINVwSg8f7GMPAzFwUlTDQEy5MOQQabD/Dq5TOFQy/rAhim9QpguSYpCZINQYabb6kGXu258aoAhIpCh0FC7mhKnqPnj/HM7vhPBxluPiAbGxZVX/XwT+/Pahv6T47rsYGj547yzO4VnBkgBL75IMiLvW/vg4Kq4r0Izr5FaRNTRk/hhdlrGDv86snOffMB2FNfVtvrbLB9vq0hymrn9NjL0XNHWdZLT+Cb34VS0ddH/c4PVVBd/BYwx249TjF19BQe/5O/ZeroKew+1sSrB37mm9/Ptx8GWDsY1ZWIvGm7JIc4cu4oy3Yt91pGemGwrP+P+6F+Ud0O4L9sFeTjIlpZX1K7q789BnxjU8Odfw98YZsmH7doj4jx9EA7DRiAhvKGk6hU2CLJx01e6LlKaG/E9c52TiTrJ8D7qSrycY2PreEdP4pnx7gCsKF8QwSDJ0jzS8Q+AEQE49HNCzbH9eZq3LM21JfUNiG6NnldPi6xelNZzdvx7pzQtB0zPvhGBbA9UUU+rtGYE85O6Eua8EThRbVFEyIReR+YmOixPo5yKqyBO7cuqj6RyEEJT9xTV1x3CtWHAMfXNvOJG0vRJYmaD0kEALouEImuS+ZYH0dY1VBW9+tkDkx+rQhFFtQUvyLwSNJt+NiArq8vrfsOgiZzdPJztwk6Mpz9PVU2Jt2GT0oIuunC2C8fSdb8aBspEqwMjmgzL20D8VcfdRNlX+eoiw9sm7ctpXkebVku6MHKYG622fGWwB12tOczIAfD4ex7t5ZvSPkZeVum73yjfMMXqoECwLPpZjKIgxKOzLPDfLCpB4hRsKlgLB1mCPDXInYCZZ+RbS0MFYZsm9vR1gl86xfWnzGyrLlAvZ3t+kQHfEa29S07zQebAwAQKgy15YSzi1F9xe62MxWFn59omVgWKgy12d22c2tGRmcfqwCW40DQMoQIsLq+tHZNKj/1+sPxRUMLqoruR+SXwCSnaw0ttAVLltQvrt3qZBVXVo2dW1063sT6hcBcN+oNARrDGngomWv7ieLessHRU8JTwFog4FrdwYUCP84JZz/b8yVOp3B93ej8qqJZhsi/Af6y9VdyUDC+l8jDHHbg+uBs86K6PdbwjjuB1cDgnnDfHtqBlTnh7G+4bT540ANcTvHG4qkRZa0qS7zU4RWCbhJTl0bfyPZKQxpQWF16n4W1lsy5grgLg2cHemnDDdIiADEWVBfNF+Q5wNnVnrxjj6JJP7zhBGkVgBj5VUWzBHlShCIG/0UkC6jF4MX6ktomr8X0JC0DEGNh5cIb1Aw8DPwdcKPXehLkOPALw7Re8vIcPxBpHYAYwcpgoD2r8wHLssoRKQWu9VpTH7QK1Kjyek4ke4dbv+VTYVAE4HL+9KXvZ00a33yvqs4H5gPTvdSj8KEBWyNYW5pbJu1697GXO73UkyiDLgA9KaotmmCF5R4V5oDOALkdyHWo3FlgvyK/CQi7Lqk0xWbdHqwM+gD0xoKqshuR8NdE5asi3KQwFZigME5gHJBDdHKM0V2HnAPCQJtGu/FW4JTAERU5rGodDoT1UKg89Dtv/iLn+D/v8CxSn3MQIQAAAABJRU5ErkJggg==;labelBackgroundColor=none;fontSize=12;fontColor=#3333FF;strokeColor=#000000;fillColor=#FFFFFF;aspect=fixed;" parent="1" vertex="1">
                    <mxGeometry x="752" y="365" width="20" height="20" as="geometry"/>
                </mxCell>
                <mxCell id="45" value="" style="shape=image;verticalLabelPosition=bottom;verticalAlign=top;imageAspect=0;aspect=fixed;image=data:image/png,iVBORw0KGgoAAAANSUhEUgAAAgAAAAIACAYAAAD0eNT6AAAABHNCSVQICAgIfAhkiAAAAAlwSFlzAAALEwAACxMBAJqcGAAAABl0RVh0U29mdHdhcmUAd3d3Lmlua3NjYXBlLm9yZ5vuPBoAACAASURBVHic7d15fF11mT/wz3PO7ZJ7k9KFguxbWaQjKGmS1lJIk7RYtK7UZXDf8TcLoiMjzkjFccF1FGdQZkYZEZ2hjo4iQtskDZTSJmkcRIqgZWlBsC10S+5Nm9xznt8fbaFL0iT3nnues3zef/iCJPecj6W5z+d8z3IFRBRp2tiYKUzona7FzHQAx6vqZMeRKao6GdDJojJZHUxWaE7UySo0J4LxAhyjCheCyYduENUAxh22m0EI+g77uZ0AihDsVsWAQPIqfkEgefGxU0V3ArJTRHb6vu4QkZ0AtkimuC076cytsmyZV8E/FiIqk1gHIEqzXZfNmeoW/ZMFeqoPPVWAkyFyMhQnQXEcBMcBmI74/a4qgG1QbAWwBQ6eVcXTEH3GUXlaIZu9jPPMMcvXbrcOSpRWcXtTIYoVBaR/Yd3JnufMcMSfoSozRGWGip4FYAaAnHVGSwL0KfC4QDeqyEbxsdF3nI2u4z1etaL7GdlXJIioAlgAiAKSXzD3RNWB86HOTIV/vqPOTBW9AECNdbaY2gvgcRFs8IFH4GMDVB+pvrT797IUvnU4orhjASAaI21szPRJ/lxxpRYqtQDOB/QiAFOts6WBAH1Q+a0v/gaB84gv6KkpVq2Xjo491tmI4oQFgOgoFJDe5vqzHZUGEb9BIQ0AXgFggnU2OsReAA8JtEvV6fRcrDtmZecfrUMRRRkLANFBdHFtti/vznaAeSrSAGgDeGQfVy9A0Ckqnb7IfdV56ZS1a/utQxFFBQsApZouvCCX9yfMUcjFojIX0Hng0X1SFSH4LYBW8XXNgD+4ekrHgzutQxFZYQGgVNHGxkxvpn+2qL8AkAUC1AHIWOciE0VR6QR0pQddWePnuqSjo2gdiigsLACUeDubas9yJfMaQBcIMB/AJOtMFEm7FFgF6MqMK3dXreh60joQUSWxAFDi6JIlbuH5za/0XV0swOugqLXORPGjwBMC+RXEvzO3w79XenoGrTMRBYkFgBJBF16Q6/OqFgn0jQBeA2CadSZKlBcAuVuBX1Rni7+WO3sK1oGIysUCQLGli2uzhbzTrI4sEcWbFKi2zkSpsAdAKwTLBuD9Ymprzy7rQESlYAGgWNk2d25NVdXgm6B4K4AW8Ip9srUXwEqo3FHwq35+XEdH34ivIIoIFgCKPF0yc3zhhexlPNKniNsDoFUVP6yelv+FLNswYB2I6GhYACiSFJDeloa54uPd4ugVUEyxzkQ0BtsV+lP19YeTVq1fYx2GaCgsABQp+ctqT9Bi5q2A/wFAXmGdhygAf1DBTzJ+5gdV7Q9ssg5DdAALAJnTJTPH922vfr2Ivg+KywC41pmIKsADcI+K/KB6R/GXvK2QrLEAkJn8grknqjf4Lgj+CsDJ1nmIQrQFglvdovPdqo51T1mHoXRiAaBQ6VI4+fvrmgTyYVW8CXwML6WbD0i7qt5SPe20n8myZZ51IEoPFgAKxQuLGiZNGNQPqOKvBDjTOg9R1AjwuC/4VrWz5/uy4qG8dR5KPhYAqqg9LXVnFiEfhuIjACZb5yGKgd2A3Op4+Gq2o/MZ6zCUXCwAVBG9C+ouheIaUXkdAMc6D1EM7QVwu/r6jZpV3Rusw1DysABQYBSQQlPd63yRvxfg1dZ5iJJCVNYA/o3Z9u5fCaDWeSgZWACobFpbOy4/xX0HFNcCON86D1GC/RaCb+R2eD/hbYRULhYAKtm++/ezHxTIp8Hb+IjCtFlFv1w9pfAffOQwlYoFgMbswBG/KD6rwFnWeYhSbLOIfCFbrPq+dHQUrcNQvLAA0KjpUjh999W/RQRfAHC2dR4ietFTIvKl7JRT/4PPEqDRYgGgER24uE9FPg/gQus8RDSs30Pw5dyU025nEaCRsADQUfW11LVAcSMgF1lnIaJR26CKz1W3d/2Udw3QcFgAaEj5+Q2Xq6s3QFFrnYWIStYN6Ger27rvsQ5C0cMCQIfIN82+SMX7OiCN1lmIKDCrALm6uq3zIesgFB0sAAQAKDTNOcmT4mcF8gHw43iJksiH4HZ1Mp+sWfHAVuswZI8FIOW2zZ1bM7Fq8FpRfBxA1joPEVXcdoV+rtrL/StvHUw3FoAUyzfVLVaRfwFwinUWIgrdH0RwTa616y7rIGSDBSCF+ubXXwgHNwGYZ52FiKxJq/r+1fzAofRhAUiRHY2vnDzOnfA5QD8GIGOdh4giYxCQmwe9vddP6Xhwp3UYCgcLQAooIPmW+nfBx9cgmG6dh4gia4tCrq5p6/wv6yBUeSwACbezqfasjDg3A7LAOgsRxYTg1y68q6paezZbR6HKYQFIKK2tHZc/xr0GgqUAJlrnIaLYKUBxQ27aaV/jY4WTiQUggXbPnzXXEfffIXqedRYiijdRWeM78qGa1nW/t85CwWIBSBCdM6cqn/Ouh+KT4MN8iCg4gxB8Izdu+/Vy98a91mEoGCwACbF7/qy5juN8H8A51lmIKKEUDzuOfCjb2rnOOgqVjwUg5rY2Nlbn3P4bFXoV+N+TiCrPB+Q7Obf/OlnxUN46DJWOAyPG8gvqZ6mP28GjfiIK35O+6jsntXc/YB2ESsMCEEMKSL654W8A/QqA8dZ5iCi1iir4QvWU0z7POwXihwUgZgoL607xi3IbBJdaZyEiAgAF1o4TfefE1u4nrLPQ6DnWAWj0epsbrvA9eZDDn4iiRIA5RZXf9DXXXWmdhUaPKwAxsG3u3JqJEwe+JpAPW2chIjoaESwbKA58mJ8pEH0sABFXaJpVr45zuypmWGchIhqlp3yRd01q7bzfOggNjwUgorSxMdOXKfyDKD4DfnIfEcVPUaA3ZKee/kVeIBhNLAARtLux9ljHzfwE0BbrLEREZVHcC5G3Vbd1brGOQodiAYiYfNPsi1T8/wFwunUWIqKAPOP4zhXZVes6rYPQS3gXQIT0tdS/W8W/Hxz+RJQsJ/uOf2++pe5D1kHoJVwBiABdNGNC395pN4kofzmIKNkEt+Xy7kdk7dp+6yhpxwJgrNDYcLKf0Z9C0WCdhYgoHPob13PfUtWx7inrJGnGAmCod0HdpeLLfwM43joLEVHInofoO6pbu1utg6QVrwEwoID0NTf8rfiyEhz+RJROx0Llnr6m+muVB6Mm+IceMl1cmy0U3P9U4ArrLEREkaC4I9fvvpfXBYSLBSBEuxtrj3WdzP+q6FzrLERE0SJdAF7P5wWEhwUgJLsWNJzt+noXgLOtsxARRdSTKs5ra1rX/d46SBrwGoAQ7J4/a67r6wPg8CciOpozBP6a3pbZjdZB0oAFoMJ6m+ve5jhOK4BjrbMQEUWeYoqov7yvue6d1lGSjgWgQhSQ3pb6pQL5CYCJ1nmIiGJkPCA/7G2pX8o7BCqHf7AVoEtmjs9vz/0bgHdbZyEiije5Nbez+GHp6Rm0TpI0LAAB29H4ysnj3PE/AzDfOgsRUSIo2gb9gSumdDy40zpKkrAABKi/pfZUT927AZxvnYWIKFEUDzu+LMp2dD5jHSUpWAAC0t84+/Si67cJcKZ1FiKihNrkeW7LMR1rN1oHSQIWgADsXlh7nuO5rQBOss5CRJRwf1bXX1CzYv3D1kHijgWgTPmWWa9S31kOwXTrLEREKbEVjl5WvbL7QesgccYCUIZ8c12dQu4BMNU6CxFRyux0gMuzbV1rrYPEFZ8DUKLeprpLFNIGDn8iIguTfWBlX0tdi3WQuGIBKEG+adYiEbkHQI11FiKiFMtB5Vf5+bNfbx0kjlgAxijfVLdYxfk5gCrrLEREhAnq+Mt6mxv4EetjxAIwBn1N9e9QkZ8BmGCdhYiIXjReoP/V11T3XusgccKLAEepr6nhXRC9FSxNRERR5QP6nuq27h9ZB4kDFoBRyDfXv1GBZQAy1lmIiOioPBX9y5rW7jusg0QdC8AI+pobFgB6J7jsT0QUFwMieHOutesu6yBRxgJwFLvnz5rrOM5yADnrLERENCb9Ks7lNa3rOqyDRBULwDAK82c3+I6/ErzVj4gorvK+yGsmtXbebx0kilgAhtA3v/5COGgHH/JDRBR3u0Sdplz7ut9YB4kaFoDD7G6uP8cB7gNwvHUWIiIKgGKbijTWtHU+Yh0lSnhL20F2NtWe5UBXgcOfiCg5BNMFumJPSx0/rv0gXAHYr7Cw7hTfk9UATrPOQkREFfGk48kl2Y7OZ6yDRAFXAAC8sKhhku/hLnD4ExEl2Rm+q8t3NL5ysnWQKEh9AdDa2nETBvA/gLzCOgsREVXc+ePccT/XJTPHWwexluoCoIDkJ7v/Big/TpKIKDWkMb89d7N1CmupLgB9LfXXA3iPdQ4iIgrd+/NN9Z+xDmEptRcB9jY3vF2gP0aK/wyIiFJOofKe6vbO26yDWEjl8OttqrtERFaAz/cnIkq7AVUsqmnvarcOErbUFYDeltkvF/hroJhinYWIiCJhu+/7r560av1j1kHClKoCsLux9lg3465VxQzrLEREFClPAjKnuq1zi3WQsKTmIkCdM6dKXPdODn8iIhrCGYDeqYtrs9ZBwpKKAqCAFLLeDwWYbZ2FiIgiqy5fcP7DOkRYUlEA8k31n1LgCuscREQUdfL2vub6a6xThCHx1wD0NtU3iWA5gIx1FiIiioWiirOgpnVdh3WQSkp0ASgsrDvFL0oPBNOtsxARUaxsdTypTfIHByX2FIAumjHB9+R/OPyJiKgEx/kZ/akumpHY58UktgD0DUz9DoA66xxERBRTioa+wan/bB2jUhJ5CiDf0vBhVf2edQ4iIoo/AT6Ya+tK3N0BiSsAhaZZ9b4494GP+SUiomDsEQfzciu71lsHCVKiCsDu5vppDrAewOnWWYiIKFE2+55XO6mj53nrIEFJzDUA2tiYcYA7wOFPRETBO9XJuLfrkiWudZCgJKYA9GUK/wCgyToHEREllGJhYfuma61jBCURpwDyzXV1ClkDYJx1FiIiSrSiIzIv29q5zjpIuWK/ArC1sbFaIbeDw5+IiCovo6o/2jZ3bo11kHLFvgBkM4V/BXC2dQ4iIkoHBc6qmjj4Tesc5Yr1KYDe5oYrBLrMOgcREaWPQt9e09b939Y5ShXbAlBobDjZd/W3AKZaZyEiolTa6Yp3YVVrz2brIKWI5SkAXQrHd/WH4PAnIiI7kz11b4vrrYGxLACF++o/DWC+dQ4iIkq9S/LbN33COkQpYncKID+/oVYdfQDAeOssREREAAYd9S/Otq/vsg4yFrFaAdja2Fitjv4EHP5ERBQd43xxfqgLL8hZBxmLWBWAnFP4CnjLHxERRc+5+eLEz1uHGIvYnALobZndKOq3I0aZiYgoVXxfdd6k9u4HrIOMRixWAHRxbdaB/2/g8CciouhyHMF3dcnMWJymjkUByBcyX1LFDOscRERERyevKOzIfso6xWhE/oi60Fw/xwdWA4jlfZZERJQ6exVyUU1b5yPWQY4m0isAumjGBF/l++DwJyKi+JjgQL+nS6M9YyMdrrB36t9D9DzrHERERGOhwMV999d9xDrH0UT2FMCuBQ1nu74+BGCidRYiIqIS7HY8mZnt6HzGOshQIrsC4Hp6Mzj8iYgovib5rn7XOsRwIlkA+prr3wNBs3UOIiKiMr22t6XurdYhhhK5UwA7L754Smb8wGMQTLfOQkREFIAtA+KdO7W1Z5d1kINFbgVg3IS9n+fwJyKiBDl+PJyl1iEOF6kVgN6Fs/5CPOf/AGSssxAREQWoCEhtdVvnQ9ZBDojMCoACIkXnO+DwJyKi5MkA+h2N0IF3ZApAvrnuSggutc5BRERUIfP6WuqWWIc4IBJNZNvcuTVVEwcfA3CCdRYiIqIKejqX9c6TO3sK1kEisQIwceLg34PDn4iIku+UQiHzSesQQARWAApNc07yxfsDgKx1FiIiokoToA8Z75zc8p7nLHOYrwD44n8ZHP5ERJQSClRr0f28dQ7TFYB8y6xXqTrrEYEiQkREFCJf1KnLta/7jVUA08GrvvNV6wxEREQGHBX/a6YBrHacn99wOZ/3T0REKTa/r7nuNVY7NysA6uB6q30TERFFg3xZl9rMYpOdFprq3wRovcW+iYiIIuTCvvvq32Kx49ALgALiC4/+iYiIAEAE/6SNjaE/Bj/0AtDXXPdWABeGvV8iIqKIOqfgFt4T9k5DvQ1Qlyxx89s3/Q7Ay8PcLxERUcQ9nRu//Wy5e+PesHYY6gpAfsemK8HhT0REdLhT+gamfCDMHYa2ArD/6P8RAOeEtU8iIqIYCXUVILQVgMILm94HDn8iIqLhnFLYO/V9Ye0slBUAra0dl5/sPgbgjDD2R0REFFOhrQKEsgLQNznzYXD4ExERjeSUwsDU94axo4qvAOiSmePz23MbAZxS6X0RERElwFM5L3u2dHQUK7mTiq8AFHZUvxMc/kRERKN1et7Nv73SO6loAVBAVPUTldwHERFRAn1KK7xKX9EC0N9U/0YA51dyH0RERMkjryi01F9eyT1UtAB4gr+r5PaJiIiSShXXVnL7FSsAvQvqLhVgTqW2T0RElHDzdjfVvbpSG6/cCoDimoptm4iIKAVcqdwsrcgFBrsa58xwXe8xGHzaIBERUYJ4GdFzJrZ2PxH0hisyoF3X/+tKbZuIiChF3KLK/6vEhgNfAdg2d25N1cTBZwBMCnrbREREKdS7d7ycPO3uzt1BbjQT5MYAoGri4IfA4U8VIpOnQE47AzjxZEjNJCCbA4qDwJ490K1boM89A33qSWBwwDoqJcm48ZDTz4CceDJk+vHAxIlAZhxQyEN37wb2/73TXTusk1Iy1Ywf8N8L4NtBbjTQFQBdCqdvdf0fBTgzyO1SiolAzpsJ59JmOBfVQ045beTX7N0L/9EN0HWr4d/XDt3+QuVzUuLI1GPhXNoEmT0PznkzgfHjR3yNPr0Jfk8X/HtboY9uCCElpYUAj2fndZ0jS+EHuM3g5Oc3XK6O3hXkNimlMhk48xfCfcs79h3xl8r34d+/Ct4dt0Mf/0Nw+Six5Oxz4S65Es7cRsAp/VIm3fQEvGU/hn9vK1Cs6CPdKS0Er6lu7Voe3OYC1NdcfyeA1wW5TUof58KL4F718fIG/+FU4d/fgeItNwHPbw1uu5QYMnUa3Pd/DE7TQkCCe2vUPz0N77vfgr9+XWDbpHRS4H9r2rreFNT2Avtb3t9Se6qn7hMA3KC2SSkzfjzc918F9w1LKrYLzffB+9ZX4K9ur9g+KH5k9sXIXHPdvutKKsRvW47iTV8F9u6p2D4o8TxXM2dVtT+wKYiNBXarXlHdj4DDn0o1dRrGffN7FR3+ACC5amQ+/Tm47/tIoEd5FFMicN/3UYy7/ssVHf4A4DRfhnFf/1fI1GMruh9KNLfoFN8X1MYCeQfU2tpx+cnOU4CcGMT2KF3kxJMw7ovfAo5/Waj79VvvRvGbXwL8wK6poThxHGQ+/mk4LYvC3e+WP2Pwur+FPvuncPdLSfFcbqd3mvT0DJa7oUBWAPomZ97A4U8lmTrNZPgDgNOyCJm//xzgcuEqdRwHmU98JvzhDwDHvwzjbrwJOPa48PdNSXBCYbL72iA2FEgBEOD9QWyHUmbCBIz7/NdMhv8Bzrz5yPzdZ8u62ptixnGQ+dT1cJous8tw7HEYd/2XR3VrIdHhfNFATgOU/a5XaJpzEqALgwhD6ZL58N9AzjzbOgacS5u5EpAWB478L222TgKZcQ7cD/6VdQyKIVG5PH9Z7QnlbqfsAuCL/27w4j8aI+eiOjiXv8E6xou4EpACUTjyP4y7+M1wLrzIOgbFT0YHM1eWu5Hy3+0U7y57G5QumQzcq662TnEE59JmZD51PUtAEh0Y/hE48j+ce9XVXH2isRP9YLmbKOudbndLw8UQPa/cEJQuTtNCyMmjeKSvAZ4OSKAILfsPRU47E86lLdYxKH7OLcyf3VDOBsoqAOLz6J/GSATum99hneKoeDogQSK47D8Ud0nZq7mUQir+e8p5fcnvcLpk5ngRfXM5O6f0kfNmBvuI3wrhSkACRPzI/2By+pmQc15uHYNiRgVv0yUzS76VpOQCUNieuxzAtFJfT+kUhzfjA7gSEGMxOfI/WJx+NygyphZ25BaU+uLSVwAU0V7HpUhyass6ZRU6rgTEUIyO/A/m1NZbR6AYUh9/WeprSyoA2+bOrYHwU/9obGTyFMhJp1jHGDOuBMRIDI/8D5BTz4BMOsY6BsWN4I1bGxurS3lpSe9oVRMH3wwgW8prKb3ktDNi+wE8XAmIgZge+b9IBHLq6dYpKH6y2Uzh9aW8sMRDGnlbaa+jVDvhZOsEZeFKQITF+Mj/ECfG+3eEbCi0pJk85ney7S21xwAa04pNluSY+C9vciUgguJ+5H8QOWaydQSKIVG57IVFDWP+POsxF4Dx6iwGwE+woLGbMME6QSC4EhAhSTnyP2DiROsEFE8Txg/4Y/5oyzG/gynkLWN9DREAwPOtEwSGKwERkKAj/xcl6HeEwuXI2GfzmAqALq7NCsBP/qPS7Om3ThAorgQYStqR/wH9BesEFFOqeK0uvCA3lteM6Z2rr5C5HLz6n0qkz2+1jhA4rgQYSOKR/366bYt1BIqvbH9x4pgO0MdUAAT6xrHlIXqJ/ulp6wgVwZWAECX1yH8/ffYZ6wgUY75gTJ+xPup3LF2yxAXwmjEnItpPn3oS2LvHOkZFcCUgBAk+8gcA7N0D3bzJOgXFmeLy/bN6VEZdAPpeeGou+Ox/KkdxEP6jj1inqBiuBFRQwo/8AcDf8DugOGgdg+JMML1/+6ZRP1N61O9UIsJH/1LZdN1q6wgVxZWACkj6kf9+Sf/doHB4GP1j+kd/qKKyuKQ0RAfx72sH/GTf6sSVgACl4MgfAOB58O/vsE5BCSBBF4A9LXVnQvS80iMR7aPbX4B//yrrGBXHlYAApOTIHwD8+9qgO7Zbx6BkuKC/cfbpo/nBURWAQV8uLysO0UG8ZbcDqtYxKo4rAWVIy5E/AKgP744fWaegBPEzOqrbAUf3zuTogrLSEB1EN/4Bfvty6xih4EpACVJ05A8A/opfQ596wjoGJYmObmaPWAC0sTEjKpeWn4joJd73b4b27raOEQquBIxBmo78AejuXfBu/Z51DEoYBVpGczvgiO9IvZn+2QDi/zFuFCm6/QV4X/unVJwKALgSMCopO/KHKorf/BJ05w7rJJQ8k/uff3rWSD80YgEQ9bn8TxXhdz0Ab1l6zn068+Yj88l/5ErAUBwHmb/7bGqO/AHA+68fQtfdbx2DEkpdb8TZPYp3ImEBoIrxbr0Ffuvd1jFC4zS28HTA4Q4M/8YW6ySh8Vf+Gt5t/24dgxJMdeTZfdR3oW1z59YIUBdcJKLD7F8GTctFgcD+EsDTAfscWPZP0/BfvQrFb92YmtNfZGa2Lq496of3HbUAVE0cmAsgE2gkosP5Popf/0K6SsC8+chcuzTdJeDA8E/Rsr+/ehWKNy4FPM86CiXf+PweZ87RfmCkdchLAgxDNDyWgHTh8CeqOPWPPsOPWgAUvP2PQsQSkA4c/kShkBEO4mW4b+icOVX5rLcTwPjAUxEdDQdEcvG/LVGY9uS87BTp6Bjyc9iHXQHoq/LmgMOfLHAlIJk4/InCNrHXLQx7If+wBcARubgyeYhGgSUgWTj8iUy4wLzhvjdsAVDoUa8eJKo4loBk4PAnMuOLNgz3vSELgO67NoD3/5M9loB44/AnMiUqs4f73pAFoHf+rHMATKtYIqKxYAmIJw5/oig4bmdT7VlDfWPIAuC4zrBLBkQmWALihcOfKDIy4gy5CjBkARAVFgCKHpaAeODwJ4qU4Wb6MNcAaH1l4xCViCUg2jj8iSJHZZQFQJfMHA/gFRVPRFQqloBo4vAniii9QGtrxx3+1SMKQH5n9nwAE0LJRFQqloBo4fAnirKJfdPk3MO/eEQBEHUuCicPUZlYAqKBw58o8qTovurwrw1xDYAe8UNEkcUSYIvDnygmjpztRxYAX1gAKF5YAoxCcPgTxYaMUAB0KRyIXhheIqKAsASEvHMOf6J4kVfqYZ8AfEgB2Ht/3ekKVIcbiiggLAEh7ZTDnyiGJvc3Npx08BcOKQCeyvnh5iEKGEtAhXfG4U8UV35GZx7874eeAlDMBFHcsQRUaCcc/kQxd8hB/qEXAQpeHmoUokphCQh44xz+RLF32EH+4XcBcAWAkoMlIKCNcvgTJYEOtwKggAhwXviRiCqIJaDMjXH4EyWFADMPvhPgxQLQv7DuZN4BQInEElDiRjj8iRJmUmHB3BMO/MuLBcArytk2eYhCwBIwxhdz+BMlkecPnnXgn18sAI4jM2ziEIWEJWCUL+LwJ0oqR1+a9S9dA6B61tA/TpQgLAEj/DCHP1GSqaNHrgCIcgWAUoIlYJgf4vAnSjoZcgVAlAWA0oMl4LBvcvgTpcJBs/6lFQDgTJs0REZYAvZ/MY3Dv53Dn9JJcWgB2N1cP423AFIqpb0EpHb4f47Dn9LqmBcWNUwCgAwAOI6eAl+O/hKipNpfAjKOC6exxTpNKJx585HZPwDT8v8ZAPyOVhS/egPg+9ZRiMyM97xTATycAQDxcIpy/lOa+T6KX70BGd9LzdFwmgY/sP/I/2uf5/Cn1HOKOAXAww4A+IJTjPMQ2Uvh6YC04LI/0UEc9xRg/zUAog4LABHAEpBAHP5Eh/J9vFQAIDjZNA1RlLAEJAaHP9GRRPRU4MXbAPVEyzBEkcMSEHsc/kTD0ROAl54DcLxhEqJoYgmILQ5/oqOR4wEWAKKjYwmIHQ5/ohEdBwCijY2ZvFvYi4OeCkhEh0nhA3PiiMOfaFS83NTTJjiFCb3TweFPdHRcCYg8Dn+iUXP7+jZOdeDJy6yTEMUCS0BkcfgTjZHnHu+ousda5yCKDZaAyOHwJyqB5053FP5U6xxEscISEBkc/kQlEn+K40AmW+cgih2WAHMc/kSlc1SmOKpgCVdL6AAAIABJREFUASAqBUuAGQ5/ovIodLID0WOsgxDFFktA6Dj8icqn6kx2RHkKgKgsLAGh4fAnCobj6GRHHZ4CICobS0DFcfgTBUcVUxwoqq2DECUCS0DFcPgTBUuBnANF1joIUWKwBASOw58oeCLIOiqosg5ClCgsAYHh8CeqEEWVI+AKAFHgWALKxuFPVEGCrANwBYCoIlgCSsbhT1RhiioHXAEgqhyWgDHj8CcKRdaBYqJ1CqJEYwkYNQ5/otBUOXCQsU5BlHgsASPi8CcKVcaBsgAQhYIlYFgc/kShcx0ArnUKotRgCTgChz9R+ATIsAAQhY0l4EUc/kQ2lCsAREZYAjj8iWxxBYDITIpLAIc/kTnXsU5ARGkk1gGIUs8BwApOZMFxkPnEZ+A0XWadJHTOvPnIXLsUcLkASWTEYwEgspDi4X8ASwCRqSILAFHYOPxfxBJAZEO4AkAUMg7/I7AEEIVPgaIDQdE6CFEqcPgPiyWAKHSeA58FgKjiOPxHxBJAFKqiA8Ee6xREicbhP2osAUSh6XcAFKxTECUWh/+YsQQQhaLgAOi3TkGUSBz+JWMJIKowQb+jXAEgCh6Hf9lYAogqSFFwRLkCQBQoDv/AsAQQVYig34FwBYAoMBz+gWMJIAqeKgoOBH3WQYgSgcO/YlgCiIIlQN4RlR3WQYhij8O/4lgCiIIjiu2OD91pHYQo1jj8Q8MSQBQMX2SnI8Au6yBEscXhHzqWAKLyCXSnIyJcASAqBYe/GZYAojKp7HB8+CwARGPF4W+OJYCodA50pyPq8CJAorHg8I8MlgCi0ngiOx34utU6CFFscPhHDksAUQl8f6sD1S3WOYhigcM/slgCiMZG1d/i5Kafvg2Abx2GKNI4/COPJYBo1Io1jT3bHVm2zIPiBes0RJHF4R8bLAFEo7JNlsJ39v8LTwMQDYXDP3ZYAohGtAUAWACIhsPhH1ssAURHIdgKHCgAIs+ZhiGKGg7/2GMJIBqG4jngxRUA/2nLLESRwuGfGCwBREdSyGZgfwFQAQsAEcDhn0AsAUSHcmTfQb+z73/2tQGiVOPwTyyWAKKXqOKlAqAqXAGgdHMcZP7us6ka/n5HK/yOVusYoXHmzUfmk/8IOM7IP0yUYApnMwBkAKC4d9zTmQkDtomIrBw48m9ssU4SGn91O4pf+zygiozvpab4OI0tyLguijcuBTzPOg6RiYHxeAYA5MAX8s31vQpU20UiMpDCZX9/dTuKN37upQGYyj+DVSwBlFY7q9u6pgAvPQcACjxul4fIQCoH32HDHwB8H8WvfwF++3K7YCHjNQGUYhsP/MOLBUCgG4f+WaIE4vA/7JssAUTpIC8e7L+0AiDCAkDpwOE/zA+xBBAlnYoOuQLAUwCUfBz+I/wwSwBRkok/xAqArw5XACjZOPxH+SKWAKKk8odaAXA9/NEmDlEIOPzH+GKWAKIkcjPeiwXgxdsAFZB8c/0uADUmqYgqhcO/dKn8s+MtgpRYu3NtXZMFUOCQawCgAB41i0VUCakcYAENf4ArAUQJosCGA8MfOKgA7PdIyHmIKofDP6CNsgQQJcSGg/+FBYCSicM/4I2zBBDFnagMXwBEDm0HRLHE4V+hnbAEEMXcIQf5hxQAx+EKAMUch3+Fd8YSQBRXDpzhVwAmvrprE4DeUBMRBYXDP6SdsgQQxY5gR7Z97Z8O/tKhpwCWwgfwYKihiILA4R/yzlkCiGJF8X+Hf+nwiwAByBE/RBRpHP5GIVgCiOLjyNl+ZAFQnwWA4oPD3zgMSwBRPBw524coAFwBoJjg8I8GlgCiyFP/yNP7RxSAnGY3ANgTSiKiUnH4RwtLAFGU9Vdr7rHDv3hEAZCOjiKAh0OJRFQKDv9oYgkgiij53f7ZfoghLgIEBNpZ+UBEJeDwjzaWAKII8tcO9dUhC4CqwwJA0cPhHw8sAUTRojLkTB+yAHgu1lU2DdEYcfjHC0sAUWS4maFnugz1RQUk31y/FcCxFU1FNBoc/vGVyv92q1C8cWn8/9tRUmytbus6fqhvDHMNABSCrspmIhqFVA6QhAx/gCsBRMYUeGC47w1ZAABAVHkagGxx+CcDSwCRGZHhL+oftgD4cO6vTByiUeDwTxaWACITvqerh/vesAWguuCsA7C3IomIjobDP5lYAojC1l8zcef64b45/CmAtWv7RWXYFxJVBId/srEEEIVpndy9cdgD+WELAAD4ovcGn4doGBz+6cASQBQKFdx3tO8ftQDICC8mCkwqh/+q9A3/A1gCiCpP5agH8UctAIVidg2AI54fTBSo1A7/pekc/gewBBBV0kB1tnjUp/oetQAc19HRp+DzAKiCRJD5+KfTNfw7WlH88vXpHv4HHCgBHa3WSULjzJuPzN9eC8iQz2EjCoZirdzZUzjajxy1AAAABCsDC0R0GPe9H4HTssg6Rmj8jlYUv3oD4PvWUaLD91H86g3pKgELLof77g9Zx6AEE4w8u0csAOr5LABUEU7DXLhLrrSOERp/9SoUv/Z5Dv+hHCgBKTod4L7tXZDZF1vHoKQSXTHSj4xYAGq0uhPArkACEe0nU4+F+4l/SM0yqH9vG5f9R3LgdMC9bdZJwrH/9JdMmWqdhJJGsCM79fTfjPRjIxYA6egoKtARSCii/dwPXAWpqbGOEQp/9Sou+4+W76P4lc+lZiVAJh0D970ftY5BCSNAqyxbNuLRxsjXAOzbHE8DUGDk7HPhzF9oHSMUPPIvQcpWApwFiyBnzrCOQYmio5rZoyoAGXV/VV4Yope4S96ZiqV/HvmXIU0rASL7fieIAuL440Y8/w+MsgBUtT+wCcCGshIRYd+5f2fupdYxKo5H/gFI0UqAM28+rwWgoDy4f2aPaJSnAAAIuApAZXMubQac0f+1iyMe+QcoLSsBrgtnXpN1CkoAhdw52p8d9TuxD2EBoLIl/bYnHvlXQEpWAmROsn83KByuL3eN9mdHXQBqppy6FsDzJSUiAoBx4+GcN9M6RcXwyL+CUrAS4Lz8L4DMOOsYFG9bqy5d1z3aHx51AZBlyzwI7i4tExEgp58BjB9vHaMieOQfgqSvBEyYCDn1dOsUFGeid8lSjPoIZEwnYxXyi7EnItpHTjzZOkJF8Mg/RAlfCZATT7KOQDEmKr8cy8+PqQBUVxXvBpAfUyKi/eTY46wjBI5H/gYSvBIg04+3jkAxJUBftuCOqRmPqQDInT0FUUlm9abKm1hlnSBQPPI3lNSVgKqsdQKKKYXcJWvX9o/lNWO+H0sd/Z+xvoYIAOAm5/Y/HvlHQBJXAhL0O0LhUh37bB7z37b+/nF3Atgz1tcRYe9e6wSB4JF/hCRtJaB/TAdwRAf09/vZMV+kP+YCMH3Nml4A6fngbgqM7or/h0ryyD+CErQSoLvj/ztC4VPgnuM6OvrG+rrS1ptU7ijpdZRuzz1jnaAsPPKPsKSsBDwb798RslLaTC6pAOQy/T8D7wagMdKnngRUrWOUhEf+MRD3lQBV6OanrFNQ/OSr3f5RP/73YCUVAFnxUB58NDCNke7aAf3TZusYY8Yj/xiJ8UqAbnqSpwCoBPLzfTN57Eq+5FR8+XGpr6X08td3WUcYEx75x1BMVwL8nk7rCBRDol7Js7jkApDdPXg3gBdKfT2lk39vfK4f5ZF/jMVwJSBOvxsUEYpt2V1a8l+c0lcAenoGFXwmAI2NPvYIdNMT1jFGxCP/BIjRSoA++Tj0j49Zx6CYEZFl0tMzWOrry3rqhPr6w3JeTymkCu+nP7FOcVQ88k+QmKwEeHf8yDoCxZCo95/lvL6sAjBp1fo1UHm0nG1Q+vgdKyN7tTOP/BMo4isB+tQT8Fe3W8eg+NmQbS/voqrynzvp+GU1EEqhYhHezf9sneII/r1tKH7lczzyT6IDKwFRKwGq8G7+JgsnlUB/UO4Wyi8ARdwKoFj2dihV/AfXw7vr59YxXsRl/xSI4OkA787/gf/Q/1nHoPgpwsPt5W6k7AJQ3dH9ZwhWlLsdSh/vlpugj//BOgaX/dMkQqcD9I+Pwfv3f7WOQTGkwF3VHd1/Lnc7gXz0lEK+H8R2KGUGBlD87KeALc+ZReCRfwpFYSVgy3MoLv0UMDhgl4FiyxEpe/kfCKgAVO8o/hLQZ4PYFqWLbn8eg9ddDWwpu8yOmb/y1zzyT6sDKwGtY/4AtfJteQ6D110N3c7HqFBJnsvuKP46iA0FUgCkp2dQA2oklD767J8weM1HwzsdoArvJ/+J4je/xCP/NPN9FL/xRXj/fVton1Ghf3wMg9dcBX32T6Hsj5JHBbeUc+//wSSIjQBAYWHdKb4nTwJwg9ompcy48XA/cBXc118BSGB/NQ+hu3fB+8YX4Xeuqcj2KZ5k9lxkPn4dZNIxFduH37YcxZu+AuzdW7F9UOIVHU/OyHZ0BvKxkYG+y/Y11/8SwOIgt0np47ziVXA/9nHI6WcGt1FV+O0r4P3Hv0B3bA9uu5QYMukYOH/5XrivfwsggSyOAgD0mU3wvvttPuufyqbAz2vaut4c1PYCLQD5plmLVJxAzk1QyrkunEtb4C65EmUVAc+Dv7od3h0/gj75eGDxKLnkzBlwl7wTzrz5gFv6gqY++Ti8O3607yE/vM6EgqByWXV7Z2B33QVaAHQpnMLq+j8ocFaQ26V0k3PPh3NJE5zaesipZ4x8emBPP/xHHoZ23g9/9Soe8VNJZMpUOPOaILPnwnn5XwATq47+AlXopifh93TCv68d+offhxOUUkEEG7MXd50rSxHYhUuBn2jtban/a1F8O+jtEgGA1EyCnH4m8LITIVOmAhMmAEUP2NMP3bYF+uwz+x4zXOSzqShAmQzk1DMgJ54EmX78vjKQcYG9e/ddzf/nZ6GbnoD29lonpYRS6P+raesO9MERgRcAXVybzRfczQCmBb1tIiKiFNqec/ecKiseyge50eCudNlP7uwpqOC7QW+XiIgojRT6naCHP1CBArBvq5lvA9hTkW0TERGlx17xcHMlNlyRAlCz4oGtAH5ciW0TERGlhQK3BvHc/6FUZgUAgO96XwWCu1qRiIgoZRTifKtSG69YAZi0oudRCO6p1PaJiIiSTIFf1rSuq9j9pBUrAACgPr5eye0TEREllaKyM7QyD1w/SF9zQyeg9ZXeDxERUYJ0V7d1VXR2VnQFAAAgWrHzF0REREmkiq9Weh8VLwC5YvYOAJsrvR8iIqIkUOCJ6mmn/azS+6l4AZCOjqKKfrnS+yEiIkoCR+RGWbas4p8gVflTAACqd/j/DuDJMPZFREQUY5uzU/puDWNHoRQA6ekZFOALYeyLiIgorgT4oizbMBDGvkIpAACQnXrarQAeC2t/REREMfN0dmr+B2HtLLQCsO98hv5TWPsjIiKKE9Hwjv6BEAsAAOSmnv4TAI+EuU8iIqIY2JydsD20o38g5AIgy5Z5Kvq5MPdJREQUeSpL5e6Ne8PcZagFAACqW7uXAXgw7P0SERFF1B9yftVtYe809AIggIrI0rD3S0REFEUqcp10dBTD3m/FPwtgOPyMACIiSj1BT661q04ADXvXoa8AvMS/3m7fREREEeDLdRbDHzAsANVt3fcAWG61fyIiIlvSWt3eucJq74YrAIBCrgEQ+nkPIiIiY0X1/astA5gWgJq2zkcE+j3LDERERKET/U7Nqu4NlhFMCwAADO6d8I8AXrDOQUREFJLtvor5k3HNC8Dk++/fodAbrHMQERGFQUX/YVJbl/mBr3kBAIBqL/evUDxsnYOIiKjCHqku5v7NOgQQkQIgHR1FuGp6MQQREVHFqXzc4qE/Q4lEAQCA6pXdbQB+ZZ2DiIioEhT4ueVtf4eLTAEAgKJ6VwMI9cMQiIiIQjDgO3KtdYiDRaoATG7veRyQ71jnICIiCpTKN45Z2flH6xgHi1QBAIABKX4ewBbrHERERAF5bu8EfMk6xOEiVwCmtvbsUggvCCQiokRQkb+ednfnbuschzP7NMCR9DbX/68Ab7DOQUREVIZfVbd1LbYOMZTIrQAc4DjjPgZgl3UOIiKiEu12PLnKOsRwIlsAcivXPKuQz1jnICIiKoUAn8p2dD5jnWM4kS0AAFA9r/NmAe63zkFERDRG92Xbum6xDnE0kS4AshS+5/sfBLDHOgsREdEo7VVxPiqAWgc5mkgXAACYtGr9YwKJ3O0TREREQxHghprWdb+3zjGSyBcAAMhO7fsyPyyIiIiiT3+X3el91TrFaMSiAMiyDQMO/A8A8KyzEBERDcN3IB+Rnp5B6yCjEYsCAADZ9vVdgPyLdQ4iIqJh/HO2rWutdYjRik0BAICc238dgMescxARER3m97ms94/WIcYiVgVAVjyUF3X+EsCAdRYiIqL9BgX6Hrmzp2AdZCxiVQAAINe+7jeALLXOQUREBABQuS7X1t1tHWOsYlcAACA3r/NGAO3WOYiIKOUU9+Yu6fyGdYxSRPbDgEZSaGw42Xf1twCmWmchIqIUEuxw4b2yqrVns3WUUsRyBQAAsh2dz6joh6xzEBFROin0o3Ed/kCMCwAA1LR2/wyQW61zEBFRuqjKv9W0dt9hnaMcsS4AAJBz+/8KwB+scxARUTqIYOOevZlPWOcoV+wLgKx4KC8OrgQQiycvERFRrBXFc945fc2aXusg5Yp9AQCA3Mqu9QL5J+scRESUcKL/mF21rtM6RhASUQAAIDv11C8A0mqdg4iIEuue3MXdX7EOEZTY3gY4lF2XzZnqFr31AM6wzkJERImyyfe8WZM6ep63DhKUxKwAAMAxy9duh6NvBtBvnYWIiBJjj/jyliQNfyBhBQAAqld2PwiVj1jnICKihFD5WG5VZ491jKAlrgAAQHV7520KvcU6BxERxZsIvlPd3vkD6xyVkMgCAADVO/2/EpU11jmIiCieFFiXnZKP/f3+w0lsAZCenkGMKy4B8Jx1FiIiip0trrpXyLINif34+cQWAADILe95TiFXAihaZyEiotgoqqNvy7av/ZN1kEpKdAEAgJq2zlVQ+bR1DiIiigv5ZM3K7nutU1Raop4DMBwFJN9U/18QvNU6CxERRZjix9XtXVdaxwhD4lcAAEAAzfW771VgrXUWIiKKKunK5bzUfMx8KgoAAMjatf3qea8XwUbrLEREFC0KPKGuu1ju7ClYZwlLKk4BHGxX45wZruutBXCsdRYiIoqEF3zfnztp1frHrIOEKTUrAAcc07F2ow+8GcBe6yxERGRuQCFL0jb8gRQWAACY1Na1WqHvAaDWWYiIyIwC+oGats5V1kEspLIAAEBNW/d/C/R66xxERGRE9Lrqtu4fWcewkrprAA7X21J/syg+ap2DiIhC9R/VbV0ftA5hKbUrAAdU7/D+BtCV1jmIiCg0y3NeNvUHfqkvANLTM7h3vHMFgIessxARUcVtGBDvbdLRkfpHxKf+FMABhaY5J3ni3SfAmdZZiIgoeAI8DmfcJbmVa561zhIFLAAH6W+pPdVT9z4Ap1lnISKiQD3jurikakXXk9ZBoiL1pwAOVtXas9lzZAGAP1tnISKigCi2qTgLOfwPxRWAIfQ1N1wA6CoAU62zEBFRWXaK+E251vX/Zx0kargCMITqts6HHN+5HECvdRYiIirZboEu5PAfGgvAMLKr1nX6vr8IQN46CxERjVm/Ovr6XFt3t3WQqGIBOIpJq9avAeRN4OcGEBHFyYD4ckXNyu57rYNEGQvACKrbOlcK8HYAqb9nlIgoBjxVvDO3qvPX1kGijgVgFHJtXf8L6PsA+NZZiIhoWD6g76lp71pmHSQOWABGqbqt+0cKuRLAoHUWIiI6ggfg/dVt3bdbB4kL3gY4RvmmusUqcgeAidZZiIgIADCgou+oae3+mXWQOGEBKEFvc8N8B/pLBaqtsxARpVwBgjdXt3Yttw4SNywAJdrdXD/PAX4FYJJ1FiKiNBKgz1e8oaa9q906SxyxAJQhP7+hVh1dDmCadRYiolQR7HAgl2dbO9dZR4krFoAy9c6vmymOrARwgnUWIqKU2AIfl1Wv6vqtdZA4YwEIwO75s851HKcVwMnWWYiIEu459XVBzaruDdZB4o63AQZg0qr1j7mauVgEG62zEBEl2FNF9eZx+AeDBSAgVe0PbJKizIfiYessREQJ9JA44+ZObu953DpIUrAABCjb0flMwc/OgYCPoCQiCoyuHBDvktzKNc9aJ0kSXgNQAdrYmOnLFG4SxUetsxARxdz3czu9j0pPD5/CGjAWgArqa274W0C/Aa60EBGNlarghprWrqXWQZKKBaDCepsbrhDobeCjg4mIRmsvBO+vbu36sXWQJGMBCEGhuX6Or/gFBNOtsxARRdx2VX1TTXv3fdZBko4FICQ7m2rPyoj7awDnWGchIooiBZ5Q37980qr1j1lnSQOemw7J5Paex33g1QBWW2chIooaBdbBzczh8A8PC0CIJrV1vZAruJcB+l/WWYiIIkPx42ovO79mxQNbraOkCU8BGMm3NHxYVb8DYJx1FiIiI0Uo/qG6vetG6yBpxAJgaP9HCt8B4GXWWYiIQqXYpsDb+VG+dlgAjBWa5pzkibdMgDnWWYiIQrLeFe8tVa09m62DpBmvATCWbV/7p2ovewkEXAIjosRT6C25qfm5HP72uAIQIX3Nde8E5HsAstZZiIgCtkdE/l+utfP71kFoHxaAiOlbUPdK+PIzAGdYZyEiCshmgV6Ra+vutg5CL+EpgIipXtn9oA/UAVhunYWIKAD3eBn3VRz+0cMCEEGT2rpeyE097bUCfAYAPwGLiOJoEKKfzs3reu0xy9dutw5DR+IpgIjLL6ifpT5uBx8hTETx8aQDXJlt61prHYSGxxWAiMut7FqfK7ivBOTb1lmIiEYkuK3gZS/g8I8+rgDESG9L3ZtF5RYA06yzEBEdZqdCrqpp6+SjzmOCBSBm+hrrXgZXfgDgNdZZiIj2a3fUfXe2fe2frIPQ6LEAxJACkm9u+BtAvwJgvHUeIkqtQRV8sfrirhtkKXzrMDQ2LAAx1rtw1l+IJz8G5BXWWYgoZVQeFciVufZ1v7GOQqXhRYAxVrNi/cO5rD8bov8MwLPOQ0Sp4EHxzVyuWMvhH29cAUiIfMusV6nKvwNykXUWIkoq/Z3jux/KrlrXaZ2EyscVgITIta7/v5yXa4Di7wHssc5DRIkyCMGNuamFWRz+ycEVgATa1Thnhut6twCYb52FiOJNVNb4jnyopnXd762zULBYABJKAcm31L8Lim8CmGqdh4hiZxcg1+fmdd7EK/yTiQUg4fKX1Z6AonOTQt5inYWIYuNXjqsfy67ofto6CFUOC0BK9LbUvVVUvg3geOssRBRZzynkb2raOn9qHYQqjxcBpkRNa/cdA+KdC8GNAAas8xBRpAwC8u294+U8Dv/04ApACu2eP+tcx3G+BeAy6yxEZO5XRfWuntze87h1EAoXC0CK5ZvqFqvITQBOs85CRCFTeVTgXZNrX3+3dRSywVMAKZZr774zl/XO3//sgN3WeYgoFNsBuTrnV72Cwz/duAJAAPbdLeAXnaUC+QAA1zoPEQWuqNDvq+d/ZlJHz/PWYcgeCwAdordl9ssF/teguNw6CxEFRNGmGf/qmhXrH7aOQtHBAkBD6mupvwyqX+RnCxDF2nqofKa6vXOFdRCKHhYAGpYCUmiqe50KvsCPHCaKEZVHFfrZ6vaunwqg1nEomngRIA1LAM21d9+Z83IXCfBBAHwqGFG0bYbK+3PTTv2LmvauZRz+dDRcAaBR0yUzx+d35N6uiusFONM6DxG96GlAvp7zqr4nHR38NFAaFRYAGrMDRUAUn1XgLOs8RCm2GZBvcPBTKVgAqGS6ZOb4wgu596vgWgCnW+chSgsFnnBEbsxO6btVlm3go72pJCwAVDZdCqdwX91rVeSzAGZZ5yFKLv0NRL6VK2Z/LB0dRes0FG8sABSo3S0NFzuq1wJ4nXUWooRQQNpE/W/n2rvvtA5DycECQBWxu6nu1a7gGoW8EXyyIFEp9qjKbZopfmPSip5HrcNQ8rAAUEX1N84+3cv4H4XiQwCmWuchioFdgPynOJkbcyvXPGsdhpKLBYBCsW3u3JqJEwfe54j8tSpmWOchihoRbPRVv1md9W+VO3sK1nko+VgAKFS6FE7+/romgXxYFW8CkLHORGTIB6RdVW+pnnbaz2TZMs86EKUHCwCZyV9We4IOuu+G4GMATrXOQxSi5yD4oetnbq5qf2CTdRhKJxYAMqeNjZmCW3idAu8HsAhcFaBkGlTRux04388Wq+7ibXxkjQWAIqWvse5lcJ23Afo+ABda5yEqm8qjgN4KkVur2zq3WMchOoAFgCKr0NIwW319twqWADjWOg/RqCm2icgy8eWH2VXrOq3jEA2FBYAiT5cscfM7npoPyLuheCOAGutMREPoF8Gv4Ott2V3+PdLTM2gdiOhoWAAoVnThBbm8P/ENqnirAJcBmGidiVKtX4Hlorgjl/N+wdv3KE5YACi2dM6cqkJVsUUdWcKVAQpRP4A2CJbtHSf/O+3uzt3WgYhKwQJAiaBz5lT1V3mv8QVvgOJyCKZbZ6JE2QrIrwX6i2zBXS5r1/ZbByIqFwsAJY4uhVO4t+FVvquLBXgdFBeBf9dp7B6B4E5AW3PFXAdv26Ok4ZsiJV5/S+2pPjKvgfoLVaQJiinWmSiStougDdCV4uCe7Irup60DEVUSCwClii5Z4vY///Qsdb0FqrIAwBwA46xzkYkBKNYKsFLgr6yadkYPH8VLacICQKmmi2uzvf2Zixxf50KkBdC5AKqsc1FFDELwEIBW8XXNngnOvbyAj9KMBYDoILpoxoTegan1LjBPgdkAGgAcZ52LSrJFRTtFnXW+YHXNlL4uWbZhwDoUUVSwABCNYGdT7VkZcWaLSoOKNAB6Afj8gajph+AhqHRCtDMDXTextfsJ61BEUcYCQDTHjmmrAAABZElEQVRG2tiY6ZP8uRA5Hw5miqIWigbeehia3aLyOxX0iGCDBzxSM+6Fbrl7417rYERxwgJAFJCdF188xZk4ONMFzlfFTADnQ/VCFoOS7YbgjwAegY8NAn3EdbBhQmv3kwKodTiiuGMBIKqw/IK5J/rewAzHcWb4qmeJYgZEZwByFoBjrPMZ2wnB41DZqNDHRWWjL7rRzXgbc8t7nrMOR5RkLABEhl5Y1DBp/B7/FAfOaXBxsu/jFBE9FYKXQfUEQKYDmA7Atc46Rh6AbQC2QvBnKP6skE2O4Bn43tO+yuY9A+M3T1+zptc6KFFasQAQRZwC0rfw1dOBgePgudMh/hRHZYpCJ6s6kx3xpyhksqhUqWASoBMgyMKXnIqOF+AYCJyDNjgRR97q2A/BnoN+xldgl6gMwNE8FAVA9opit4r2i2CH78tOEX+niLPDh78T6uyA72/FuHHbqlc8sI3L9ETR9v8BCBrLJ5MXMaYAAAAASUVORK5CYII=" parent="1" vertex="1">
                    <mxGeometry x="311" y="365" width="20" height="20" as="geometry"/>
                </mxCell>
                <mxCell id="46" value="&lt;span&gt;GRR-URL&lt;/span&gt;" style="text;html=1;strokeColor=none;fillColor=none;align=left;verticalAlign=middle;whiteSpace=wrap;rounded=0;labelBackgroundColor=none;fontSize=12;fontColor=#000000;fontStyle=0" parent="1" vertex="1">
                    <mxGeometry x="470" y="358" width="60" height="30" as="geometry"/>
                </mxCell>
                <mxCell id="47" value="" style="shape=image;verticalLabelPosition=bottom;verticalAlign=top;imageAspect=0;aspect=fixed;image=data:image/png,iVBORw0KGgoAAAANSUhEUgAAAgAAAAIACAYAAAD0eNT6AAAABHNCSVQICAgIfAhkiAAAAAlwSFlzAAALEwAACxMBAJqcGAAAABl0RVh0U29mdHdhcmUAd3d3Lmlua3NjYXBlLm9yZ5vuPBoAACAASURBVHic7d15fF11mT/wz3PO7ZJ7k9KFguxbWaQjKGmS1lJIk7RYtK7UZXDf8TcLoiMjzkjFccF1FGdQZkYZEZ2hjo4iQtskDZTSJmkcRIqgZWlBsC10S+5Nm9xznt8fbaFL0iT3nnues3zef/iCJPecj6W5z+d8z3IFRBRp2tiYKUzona7FzHQAx6vqZMeRKao6GdDJojJZHUxWaE7UySo0J4LxAhyjCheCyYduENUAxh22m0EI+g77uZ0AihDsVsWAQPIqfkEgefGxU0V3ArJTRHb6vu4QkZ0AtkimuC076cytsmyZV8E/FiIqk1gHIEqzXZfNmeoW/ZMFeqoPPVWAkyFyMhQnQXEcBMcBmI74/a4qgG1QbAWwBQ6eVcXTEH3GUXlaIZu9jPPMMcvXbrcOSpRWcXtTIYoVBaR/Yd3JnufMcMSfoSozRGWGip4FYAaAnHVGSwL0KfC4QDeqyEbxsdF3nI2u4z1etaL7GdlXJIioAlgAiAKSXzD3RNWB86HOTIV/vqPOTBW9AECNdbaY2gvgcRFs8IFH4GMDVB+pvrT797IUvnU4orhjASAaI21szPRJ/lxxpRYqtQDOB/QiAFOts6WBAH1Q+a0v/gaB84gv6KkpVq2Xjo491tmI4oQFgOgoFJDe5vqzHZUGEb9BIQ0AXgFggnU2OsReAA8JtEvV6fRcrDtmZecfrUMRRRkLANFBdHFtti/vznaAeSrSAGgDeGQfVy9A0Ckqnb7IfdV56ZS1a/utQxFFBQsApZouvCCX9yfMUcjFojIX0Hng0X1SFSH4LYBW8XXNgD+4ekrHgzutQxFZYQGgVNHGxkxvpn+2qL8AkAUC1AHIWOciE0VR6QR0pQddWePnuqSjo2gdiigsLACUeDubas9yJfMaQBcIMB/AJOtMFEm7FFgF6MqMK3dXreh60joQUSWxAFDi6JIlbuH5za/0XV0swOugqLXORPGjwBMC+RXEvzO3w79XenoGrTMRBYkFgBJBF16Q6/OqFgn0jQBeA2CadSZKlBcAuVuBX1Rni7+WO3sK1oGIysUCQLGli2uzhbzTrI4sEcWbFKi2zkSpsAdAKwTLBuD9Ymprzy7rQESlYAGgWNk2d25NVdXgm6B4K4AW8Ip9srUXwEqo3FHwq35+XEdH34ivIIoIFgCKPF0yc3zhhexlPNKniNsDoFUVP6yelv+FLNswYB2I6GhYACiSFJDeloa54uPd4ugVUEyxzkQ0BtsV+lP19YeTVq1fYx2GaCgsABQp+ctqT9Bi5q2A/wFAXmGdhygAf1DBTzJ+5gdV7Q9ssg5DdAALAJnTJTPH922vfr2Ivg+KywC41pmIKsADcI+K/KB6R/GXvK2QrLEAkJn8grknqjf4Lgj+CsDJ1nmIQrQFglvdovPdqo51T1mHoXRiAaBQ6VI4+fvrmgTyYVW8CXwML6WbD0i7qt5SPe20n8myZZ51IEoPFgAKxQuLGiZNGNQPqOKvBDjTOg9R1AjwuC/4VrWz5/uy4qG8dR5KPhYAqqg9LXVnFiEfhuIjACZb5yGKgd2A3Op4+Gq2o/MZ6zCUXCwAVBG9C+ouheIaUXkdAMc6D1EM7QVwu/r6jZpV3Rusw1DysABQYBSQQlPd63yRvxfg1dZ5iJJCVNYA/o3Z9u5fCaDWeSgZWACobFpbOy4/xX0HFNcCON86D1GC/RaCb+R2eD/hbYRULhYAKtm++/ezHxTIp8Hb+IjCtFlFv1w9pfAffOQwlYoFgMbswBG/KD6rwFnWeYhSbLOIfCFbrPq+dHQUrcNQvLAA0KjpUjh999W/RQRfAHC2dR4ietFTIvKl7JRT/4PPEqDRYgGgER24uE9FPg/gQus8RDSs30Pw5dyU025nEaCRsADQUfW11LVAcSMgF1lnIaJR26CKz1W3d/2Udw3QcFgAaEj5+Q2Xq6s3QFFrnYWIStYN6Ger27rvsQ5C0cMCQIfIN82+SMX7OiCN1lmIKDCrALm6uq3zIesgFB0sAAQAKDTNOcmT4mcF8gHw43iJksiH4HZ1Mp+sWfHAVuswZI8FIOW2zZ1bM7Fq8FpRfBxA1joPEVXcdoV+rtrL/StvHUw3FoAUyzfVLVaRfwFwinUWIgrdH0RwTa616y7rIGSDBSCF+ubXXwgHNwGYZ52FiKxJq/r+1fzAofRhAUiRHY2vnDzOnfA5QD8GIGOdh4giYxCQmwe9vddP6Xhwp3UYCgcLQAooIPmW+nfBx9cgmG6dh4gia4tCrq5p6/wv6yBUeSwACbezqfasjDg3A7LAOgsRxYTg1y68q6paezZbR6HKYQFIKK2tHZc/xr0GgqUAJlrnIaLYKUBxQ27aaV/jY4WTiQUggXbPnzXXEfffIXqedRYiijdRWeM78qGa1nW/t85CwWIBSBCdM6cqn/Ouh+KT4MN8iCg4gxB8Izdu+/Vy98a91mEoGCwACbF7/qy5juN8H8A51lmIKKEUDzuOfCjb2rnOOgqVjwUg5rY2Nlbn3P4bFXoV+N+TiCrPB+Q7Obf/OlnxUN46DJWOAyPG8gvqZ6mP28GjfiIK35O+6jsntXc/YB2ESsMCEEMKSL654W8A/QqA8dZ5iCi1iir4QvWU0z7POwXihwUgZgoL607xi3IbBJdaZyEiAgAF1o4TfefE1u4nrLPQ6DnWAWj0epsbrvA9eZDDn4iiRIA5RZXf9DXXXWmdhUaPKwAxsG3u3JqJEwe+JpAPW2chIjoaESwbKA58mJ8pEH0sABFXaJpVr45zuypmWGchIhqlp3yRd01q7bzfOggNjwUgorSxMdOXKfyDKD4DfnIfEcVPUaA3ZKee/kVeIBhNLAARtLux9ljHzfwE0BbrLEREZVHcC5G3Vbd1brGOQodiAYiYfNPsi1T8/wFwunUWIqKAPOP4zhXZVes6rYPQS3gXQIT0tdS/W8W/Hxz+RJQsJ/uOf2++pe5D1kHoJVwBiABdNGNC395pN4kofzmIKNkEt+Xy7kdk7dp+6yhpxwJgrNDYcLKf0Z9C0WCdhYgoHPob13PfUtWx7inrJGnGAmCod0HdpeLLfwM43joLEVHInofoO6pbu1utg6QVrwEwoID0NTf8rfiyEhz+RJROx0Llnr6m+muVB6Mm+IceMl1cmy0U3P9U4ArrLEREkaC4I9fvvpfXBYSLBSBEuxtrj3WdzP+q6FzrLERE0SJdAF7P5wWEhwUgJLsWNJzt+noXgLOtsxARRdSTKs5ra1rX/d46SBrwGoAQ7J4/a67r6wPg8CciOpozBP6a3pbZjdZB0oAFoMJ6m+ve5jhOK4BjrbMQEUWeYoqov7yvue6d1lGSjgWgQhSQ3pb6pQL5CYCJ1nmIiGJkPCA/7G2pX8o7BCqHf7AVoEtmjs9vz/0bgHdbZyEiije5Nbez+GHp6Rm0TpI0LAAB29H4ysnj3PE/AzDfOgsRUSIo2gb9gSumdDy40zpKkrAABKi/pfZUT927AZxvnYWIKFEUDzu+LMp2dD5jHSUpWAAC0t84+/Si67cJcKZ1FiKihNrkeW7LMR1rN1oHSQIWgADsXlh7nuO5rQBOss5CRJRwf1bXX1CzYv3D1kHijgWgTPmWWa9S31kOwXTrLEREKbEVjl5WvbL7QesgccYCUIZ8c12dQu4BMNU6CxFRyux0gMuzbV1rrYPEFZ8DUKLeprpLFNIGDn8iIguTfWBlX0tdi3WQuGIBKEG+adYiEbkHQI11FiKiFMtB5Vf5+bNfbx0kjlgAxijfVLdYxfk5gCrrLEREhAnq+Mt6mxv4EetjxAIwBn1N9e9QkZ8BmGCdhYiIXjReoP/V11T3XusgccKLAEepr6nhXRC9FSxNRERR5QP6nuq27h9ZB4kDFoBRyDfXv1GBZQAy1lmIiOioPBX9y5rW7jusg0QdC8AI+pobFgB6J7jsT0QUFwMieHOutesu6yBRxgJwFLvnz5rrOM5yADnrLERENCb9Ks7lNa3rOqyDRBULwDAK82c3+I6/ErzVj4gorvK+yGsmtXbebx0kilgAhtA3v/5COGgHH/JDRBR3u0Sdplz7ut9YB4kaFoDD7G6uP8cB7gNwvHUWIiIKgGKbijTWtHU+Yh0lSnhL20F2NtWe5UBXgcOfiCg5BNMFumJPSx0/rv0gXAHYr7Cw7hTfk9UATrPOQkREFfGk48kl2Y7OZ6yDRAFXAAC8sKhhku/hLnD4ExEl2Rm+q8t3NL5ysnWQKEh9AdDa2nETBvA/gLzCOgsREVXc+ePccT/XJTPHWwexluoCoIDkJ7v/Big/TpKIKDWkMb89d7N1CmupLgB9LfXXA3iPdQ4iIgrd+/NN9Z+xDmEptRcB9jY3vF2gP0aK/wyIiFJOofKe6vbO26yDWEjl8OttqrtERFaAz/cnIkq7AVUsqmnvarcOErbUFYDeltkvF/hroJhinYWIiCJhu+/7r560av1j1kHClKoCsLux9lg3465VxQzrLEREFClPAjKnuq1zi3WQsKTmIkCdM6dKXPdODn8iIhrCGYDeqYtrs9ZBwpKKAqCAFLLeDwWYbZ2FiIgiqy5fcP7DOkRYUlEA8k31n1LgCuscREQUdfL2vub6a6xThCHx1wD0NtU3iWA5gIx1FiIiioWiirOgpnVdh3WQSkp0ASgsrDvFL0oPBNOtsxARUaxsdTypTfIHByX2FIAumjHB9+R/OPyJiKgEx/kZ/akumpHY58UktgD0DUz9DoA66xxERBRTioa+wan/bB2jUhJ5CiDf0vBhVf2edQ4iIoo/AT6Ya+tK3N0BiSsAhaZZ9b4494GP+SUiomDsEQfzciu71lsHCVKiCsDu5vppDrAewOnWWYiIKFE2+55XO6mj53nrIEFJzDUA2tiYcYA7wOFPRETBO9XJuLfrkiWudZCgJKYA9GUK/wCgyToHEREllGJhYfuma61jBCURpwDyzXV1ClkDYJx1FiIiSrSiIzIv29q5zjpIuWK/ArC1sbFaIbeDw5+IiCovo6o/2jZ3bo11kHLFvgBkM4V/BXC2dQ4iIkoHBc6qmjj4Tesc5Yr1KYDe5oYrBLrMOgcREaWPQt9e09b939Y5ShXbAlBobDjZd/W3AKZaZyEiolTa6Yp3YVVrz2brIKWI5SkAXQrHd/WH4PAnIiI7kz11b4vrrYGxLACF++o/DWC+dQ4iIkq9S/LbN33COkQpYncKID+/oVYdfQDAeOssREREAAYd9S/Otq/vsg4yFrFaAdja2Fitjv4EHP5ERBQd43xxfqgLL8hZBxmLWBWAnFP4CnjLHxERRc+5+eLEz1uHGIvYnALobZndKOq3I0aZiYgoVXxfdd6k9u4HrIOMRixWAHRxbdaB/2/g8CciouhyHMF3dcnMWJymjkUByBcyX1LFDOscRERERyevKOzIfso6xWhE/oi60Fw/xwdWA4jlfZZERJQ6exVyUU1b5yPWQY4m0isAumjGBF/l++DwJyKi+JjgQL+nS6M9YyMdrrB36t9D9DzrHERERGOhwMV999d9xDrH0UT2FMCuBQ1nu74+BGCidRYiIqIS7HY8mZnt6HzGOshQIrsC4Hp6Mzj8iYgovib5rn7XOsRwIlkA+prr3wNBs3UOIiKiMr22t6XurdYhhhK5UwA7L754Smb8wGMQTLfOQkREFIAtA+KdO7W1Z5d1kINFbgVg3IS9n+fwJyKiBDl+PJyl1iEOF6kVgN6Fs/5CPOf/AGSssxAREQWoCEhtdVvnQ9ZBDojMCoACIkXnO+DwJyKi5MkA+h2N0IF3ZApAvrnuSggutc5BRERUIfP6WuqWWIc4IBJNZNvcuTVVEwcfA3CCdRYiIqIKejqX9c6TO3sK1kEisQIwceLg34PDn4iIku+UQiHzSesQQARWAApNc07yxfsDgKx1FiIiokoToA8Z75zc8p7nLHOYrwD44n8ZHP5ERJQSClRr0f28dQ7TFYB8y6xXqTrrEYEiQkREFCJf1KnLta/7jVUA08GrvvNV6wxEREQGHBX/a6YBrHacn99wOZ/3T0REKTa/r7nuNVY7NysA6uB6q30TERFFg3xZl9rMYpOdFprq3wRovcW+iYiIIuTCvvvq32Kx49ALgALiC4/+iYiIAEAE/6SNjaE/Bj/0AtDXXPdWABeGvV8iIqKIOqfgFt4T9k5DvQ1Qlyxx89s3/Q7Ay8PcLxERUcQ9nRu//Wy5e+PesHYY6gpAfsemK8HhT0REdLhT+gamfCDMHYa2ArD/6P8RAOeEtU8iIqIYCXUVILQVgMILm94HDn8iIqLhnFLYO/V9Ye0slBUAra0dl5/sPgbgjDD2R0REFFOhrQKEsgLQNznzYXD4ExERjeSUwsDU94axo4qvAOiSmePz23MbAZxS6X0RERElwFM5L3u2dHQUK7mTiq8AFHZUvxMc/kRERKN1et7Nv73SO6loAVBAVPUTldwHERFRAn1KK7xKX9EC0N9U/0YA51dyH0RERMkjryi01F9eyT1UtAB4gr+r5PaJiIiSShXXVnL7FSsAvQvqLhVgTqW2T0RElHDzdjfVvbpSG6/cCoDimoptm4iIKAVcqdwsrcgFBrsa58xwXe8xGHzaIBERUYJ4GdFzJrZ2PxH0hisyoF3X/+tKbZuIiChF3KLK/6vEhgNfAdg2d25N1cTBZwBMCnrbREREKdS7d7ycPO3uzt1BbjQT5MYAoGri4IfA4U8VIpOnQE47AzjxZEjNJCCbA4qDwJ490K1boM89A33qSWBwwDoqJcm48ZDTz4CceDJk+vHAxIlAZhxQyEN37wb2/73TXTusk1Iy1Ywf8N8L4NtBbjTQFQBdCqdvdf0fBTgzyO1SiolAzpsJ59JmOBfVQ045beTX7N0L/9EN0HWr4d/XDt3+QuVzUuLI1GPhXNoEmT0PznkzgfHjR3yNPr0Jfk8X/HtboY9uCCElpYUAj2fndZ0jS+EHuM3g5Oc3XK6O3hXkNimlMhk48xfCfcs79h3xl8r34d+/Ct4dt0Mf/0Nw+Six5Oxz4S65Es7cRsAp/VIm3fQEvGU/hn9vK1Cs6CPdKS0Er6lu7Voe3OYC1NdcfyeA1wW5TUof58KL4F718fIG/+FU4d/fgeItNwHPbw1uu5QYMnUa3Pd/DE7TQkCCe2vUPz0N77vfgr9+XWDbpHRS4H9r2rreFNT2Avtb3t9Se6qn7hMA3KC2SSkzfjzc918F9w1LKrYLzffB+9ZX4K9ur9g+KH5k9sXIXHPdvutKKsRvW47iTV8F9u6p2D4o8TxXM2dVtT+wKYiNBXarXlHdj4DDn0o1dRrGffN7FR3+ACC5amQ+/Tm47/tIoEd5FFMicN/3UYy7/ssVHf4A4DRfhnFf/1fI1GMruh9KNLfoFN8X1MYCeQfU2tpx+cnOU4CcGMT2KF3kxJMw7ovfAo5/Waj79VvvRvGbXwL8wK6poThxHGQ+/mk4LYvC3e+WP2Pwur+FPvuncPdLSfFcbqd3mvT0DJa7oUBWAPomZ97A4U8lmTrNZPgDgNOyCJm//xzgcuEqdRwHmU98JvzhDwDHvwzjbrwJOPa48PdNSXBCYbL72iA2FEgBEOD9QWyHUmbCBIz7/NdMhv8Bzrz5yPzdZ8u62ptixnGQ+dT1cJous8tw7HEYd/2XR3VrIdHhfNFATgOU/a5XaJpzEqALgwhD6ZL58N9AzjzbOgacS5u5EpAWB478L222TgKZcQ7cD/6VdQyKIVG5PH9Z7QnlbqfsAuCL/27w4j8aI+eiOjiXv8E6xou4EpACUTjyP4y7+M1wLrzIOgbFT0YHM1eWu5Hy3+0U7y57G5QumQzcq662TnEE59JmZD51PUtAEh0Y/hE48j+ce9XVXH2isRP9YLmbKOudbndLw8UQPa/cEJQuTtNCyMmjeKSvAZ4OSKAILfsPRU47E86lLdYxKH7OLcyf3VDOBsoqAOLz6J/GSATum99hneKoeDogQSK47D8Ud0nZq7mUQir+e8p5fcnvcLpk5ngRfXM5O6f0kfNmBvuI3wrhSkACRPzI/2By+pmQc15uHYNiRgVv0yUzS76VpOQCUNieuxzAtFJfT+kUhzfjA7gSEGMxOfI/WJx+NygyphZ25BaU+uLSVwAU0V7HpUhyass6ZRU6rgTEUIyO/A/m1NZbR6AYUh9/WeprSyoA2+bOrYHwU/9obGTyFMhJp1jHGDOuBMRIDI/8D5BTz4BMOsY6BsWN4I1bGxurS3lpSe9oVRMH3wwgW8prKb3ktDNi+wE8XAmIgZge+b9IBHLq6dYpKH6y2Uzh9aW8sMRDGnlbaa+jVDvhZOsEZeFKQITF+Mj/ECfG+3eEbCi0pJk85ney7S21xwAa04pNluSY+C9vciUgguJ+5H8QOWaydQSKIVG57IVFDWP+POsxF4Dx6iwGwE+woLGbMME6QSC4EhAhSTnyP2DiROsEFE8Txg/4Y/5oyzG/gynkLWN9DREAwPOtEwSGKwERkKAj/xcl6HeEwuXI2GfzmAqALq7NCsBP/qPS7Om3ThAorgQYStqR/wH9BesEFFOqeK0uvCA3lteM6Z2rr5C5HLz6n0qkz2+1jhA4rgQYSOKR/366bYt1BIqvbH9x4pgO0MdUAAT6xrHlIXqJ/ulp6wgVwZWAECX1yH8/ffYZ6wgUY75gTJ+xPup3LF2yxAXwmjEnItpPn3oS2LvHOkZFcCUgBAk+8gcA7N0D3bzJOgXFmeLy/bN6VEZdAPpeeGou+Ox/KkdxEP6jj1inqBiuBFRQwo/8AcDf8DugOGgdg+JMML1/+6ZRP1N61O9UIsJH/1LZdN1q6wgVxZWACkj6kf9+Sf/doHB4GP1j+kd/qKKyuKQ0RAfx72sH/GTf6sSVgACl4MgfAOB58O/vsE5BCSBBF4A9LXVnQvS80iMR7aPbX4B//yrrGBXHlYAApOTIHwD8+9qgO7Zbx6BkuKC/cfbpo/nBURWAQV8uLysO0UG8ZbcDqtYxKo4rAWVIy5E/AKgP744fWaegBPEzOqrbAUf3zuTogrLSEB1EN/4Bfvty6xih4EpACVJ05A8A/opfQ596wjoGJYmObmaPWAC0sTEjKpeWn4joJd73b4b27raOEQquBIxBmo78AejuXfBu/Z51DEoYBVpGczvgiO9IvZn+2QDi/zFuFCm6/QV4X/unVJwKALgSMCopO/KHKorf/BJ05w7rJJQ8k/uff3rWSD80YgEQ9bn8TxXhdz0Ab1l6zn068+Yj88l/5ErAUBwHmb/7bGqO/AHA+68fQtfdbx2DEkpdb8TZPYp3ImEBoIrxbr0Ffuvd1jFC4zS28HTA4Q4M/8YW6ySh8Vf+Gt5t/24dgxJMdeTZfdR3oW1z59YIUBdcJKLD7F8GTctFgcD+EsDTAfscWPZP0/BfvQrFb92YmtNfZGa2Lq496of3HbUAVE0cmAsgE2gkosP5Popf/0K6SsC8+chcuzTdJeDA8E/Rsr+/ehWKNy4FPM86CiXf+PweZ87RfmCkdchLAgxDNDyWgHTh8CeqOPWPPsOPWgAUvP2PQsQSkA4c/kShkBEO4mW4b+icOVX5rLcTwPjAUxEdDQdEcvG/LVGY9uS87BTp6Bjyc9iHXQHoq/LmgMOfLHAlIJk4/InCNrHXLQx7If+wBcARubgyeYhGgSUgWTj8iUy4wLzhvjdsAVDoUa8eJKo4loBk4PAnMuOLNgz3vSELgO67NoD3/5M9loB44/AnMiUqs4f73pAFoHf+rHMATKtYIqKxYAmIJw5/oig4bmdT7VlDfWPIAuC4zrBLBkQmWALihcOfKDIy4gy5CjBkARAVFgCKHpaAeODwJ4qU4Wb6MNcAaH1l4xCViCUg2jj8iSJHZZQFQJfMHA/gFRVPRFQqloBo4vAniii9QGtrxx3+1SMKQH5n9nwAE0LJRFQqloBo4fAnirKJfdPk3MO/eEQBEHUuCicPUZlYAqKBw58o8qTovurwrw1xDYAe8UNEkcUSYIvDnygmjpztRxYAX1gAKF5YAoxCcPgTxYaMUAB0KRyIXhheIqKAsASEvHMOf6J4kVfqYZ8AfEgB2Ht/3ekKVIcbiiggLAEh7ZTDnyiGJvc3Npx08BcOKQCeyvnh5iEKGEtAhXfG4U8UV35GZx7874eeAlDMBFHcsQRUaCcc/kQxd8hB/qEXAQpeHmoUokphCQh44xz+RLF32EH+4XcBcAWAkoMlIKCNcvgTJYEOtwKggAhwXviRiCqIJaDMjXH4EyWFADMPvhPgxQLQv7DuZN4BQInEElDiRjj8iRJmUmHB3BMO/MuLBcArytk2eYhCwBIwxhdz+BMlkecPnnXgn18sAI4jM2ziEIWEJWCUL+LwJ0oqR1+a9S9dA6B61tA/TpQgLAEj/DCHP1GSqaNHrgCIcgWAUoIlYJgf4vAnSjoZcgVAlAWA0oMl4LBvcvgTpcJBs/6lFQDgTJs0REZYAvZ/MY3Dv53Dn9JJcWgB2N1cP423AFIqpb0EpHb4f47Dn9LqmBcWNUwCgAwAOI6eAl+O/hKipNpfAjKOC6exxTpNKJx585HZPwDT8v8ZAPyOVhS/egPg+9ZRiMyM97xTATycAQDxcIpy/lOa+T6KX70BGd9LzdFwmgY/sP/I/2uf5/Cn1HOKOAXAww4A+IJTjPMQ2Uvh6YC04LI/0UEc9xRg/zUAog4LABHAEpBAHP5Eh/J9vFQAIDjZNA1RlLAEJAaHP9GRRPRU4MXbAPVEyzBEkcMSEHsc/kTD0ROAl54DcLxhEqJoYgmILQ5/oqOR4wEWAKKjYwmIHQ5/ohEdBwCijY2ZvFvYi4OeCkhEh0nhA3PiiMOfaFS83NTTJjiFCb3TweFPdHRcCYg8Dn+iUXP7+jZOdeDJy6yTEMUCS0BkcfgTjZHnHu+ousda5yCKDZaAyOHwJyqB5053FP5U6xxEscISEBkc/kQlEn+K40AmW+cgih2WAHMc/kSlc1SmOKpgCVdL6AAAIABJREFUASAqBUuAGQ5/ovIodLID0WOsgxDFFktA6Dj8icqn6kx2RHkKgKgsLAGh4fAnCobj6GRHHZ4CICobS0DFcfgTBUcVUxwoqq2DECUCS0DFcPgTBUuBnANF1joIUWKwBASOw58oeCLIOiqosg5ClCgsAYHh8CeqEEWVI+AKAFHgWALKxuFPVEGCrANwBYCoIlgCSsbhT1RhiioHXAEgqhyWgDHj8CcKRdaBYqJ1CqJEYwkYNQ5/otBUOXCQsU5BlHgsASPi8CcKVcaBsgAQhYIlYFgc/kShcx0ArnUKotRgCTgChz9R+ATIsAAQhY0l4EUc/kQ2lCsAREZYAjj8iWxxBYDITIpLAIc/kTnXsU5ARGkk1gGIUs8BwApOZMFxkPnEZ+A0XWadJHTOvPnIXLsUcLkASWTEYwEgspDi4X8ASwCRqSILAFHYOPxfxBJAZEO4AkAUMg7/I7AEEIVPgaIDQdE6CFEqcPgPiyWAKHSeA58FgKjiOPxHxBJAFKqiA8Ee6xREicbhP2osAUSh6XcAFKxTECUWh/+YsQQQhaLgAOi3TkGUSBz+JWMJIKowQb+jXAEgCh6Hf9lYAogqSFFwRLkCQBQoDv/AsAQQVYig34FwBYAoMBz+gWMJIAqeKgoOBH3WQYgSgcO/YlgCiIIlQN4RlR3WQYhij8O/4lgCiIIjiu2OD91pHYQo1jj8Q8MSQBQMX2SnI8Au6yBEscXhHzqWAKLyCXSnIyJcASAqBYe/GZYAojKp7HB8+CwARGPF4W+OJYCodA50pyPq8CJAorHg8I8MlgCi0ngiOx34utU6CFFscPhHDksAUQl8f6sD1S3WOYhigcM/slgCiMZG1d/i5Kafvg2Abx2GKNI4/COPJYBo1Io1jT3bHVm2zIPiBes0RJHF4R8bLAFEo7JNlsJ39v8LTwMQDYXDP3ZYAohGtAUAWACIhsPhH1ssAURHIdgKHCgAIs+ZhiGKGg7/2GMJIBqG4jngxRUA/2nLLESRwuGfGCwBREdSyGZgfwFQAQsAEcDhn0AsAUSHcmTfQb+z73/2tQGiVOPwTyyWAKKXqOKlAqAqXAGgdHMcZP7us6ka/n5HK/yOVusYoXHmzUfmk/8IOM7IP0yUYApnMwBkAKC4d9zTmQkDtomIrBw48m9ssU4SGn91O4pf+zygiozvpab4OI0tyLguijcuBTzPOg6RiYHxeAYA5MAX8s31vQpU20UiMpDCZX9/dTuKN37upQGYyj+DVSwBlFY7q9u6pgAvPQcACjxul4fIQCoH32HDHwB8H8WvfwF++3K7YCHjNQGUYhsP/MOLBUCgG4f+WaIE4vA/7JssAUTpIC8e7L+0AiDCAkDpwOE/zA+xBBAlnYoOuQLAUwCUfBz+I/wwSwBRkok/xAqArw5XACjZOPxH+SKWAKKk8odaAXA9/NEmDlEIOPzH+GKWAKIkcjPeiwXgxdsAFZB8c/0uADUmqYgqhcO/dKn8s+MtgpRYu3NtXZMFUOCQawCgAB41i0VUCakcYAENf4ArAUQJosCGA8MfOKgA7PdIyHmIKofDP6CNsgQQJcSGg/+FBYCSicM/4I2zBBDFnagMXwBEDm0HRLHE4V+hnbAEEMXcIQf5hxQAx+EKAMUch3+Fd8YSQBRXDpzhVwAmvrprE4DeUBMRBYXDP6SdsgQQxY5gR7Z97Z8O/tKhpwCWwgfwYKihiILA4R/yzlkCiGJF8X+Hf+nwiwAByBE/RBRpHP5GIVgCiOLjyNl+ZAFQnwWA4oPD3zgMSwBRPBw524coAFwBoJjg8I8GlgCiyFP/yNP7RxSAnGY3ANgTSiKiUnH4RwtLAFGU9Vdr7rHDv3hEAZCOjiKAh0OJRFQKDv9oYgkgiij53f7ZfoghLgIEBNpZ+UBEJeDwjzaWAKII8tcO9dUhC4CqwwJA0cPhHw8sAUTRojLkTB+yAHgu1lU2DdEYcfjHC0sAUWS4maFnugz1RQUk31y/FcCxFU1FNBoc/vGVyv92q1C8cWn8/9tRUmytbus6fqhvDHMNABSCrspmIhqFVA6QhAx/gCsBRMYUeGC47w1ZAABAVHkagGxx+CcDSwCRGZHhL+oftgD4cO6vTByiUeDwTxaWACITvqerh/vesAWguuCsA7C3IomIjobDP5lYAojC1l8zcef64b45/CmAtWv7RWXYFxJVBId/srEEEIVpndy9cdgD+WELAAD4ovcGn4doGBz+6cASQBQKFdx3tO8ftQDICC8mCkwqh/+q9A3/A1gCiCpP5agH8UctAIVidg2AI54fTBSo1A7/pekc/gewBBBV0kB1tnjUp/oetQAc19HRp+DzAKiCRJD5+KfTNfw7WlH88vXpHv4HHCgBHa3WSULjzJuPzN9eC8iQz2EjCoZirdzZUzjajxy1AAAABCsDC0R0GPe9H4HTssg6Rmj8jlYUv3oD4PvWUaLD91H86g3pKgELLof77g9Zx6AEE4w8u0csAOr5LABUEU7DXLhLrrSOERp/9SoUv/Z5Dv+hHCgBKTod4L7tXZDZF1vHoKQSXTHSj4xYAGq0uhPArkACEe0nU4+F+4l/SM0yqH9vG5f9R3LgdMC9bdZJwrH/9JdMmWqdhJJGsCM79fTfjPRjIxYA6egoKtARSCii/dwPXAWpqbGOEQp/9Sou+4+W76P4lc+lZiVAJh0D970ftY5BCSNAqyxbNuLRxsjXAOzbHE8DUGDk7HPhzF9oHSMUPPIvQcpWApwFiyBnzrCOQYmio5rZoyoAGXV/VV4Yope4S96ZiqV/HvmXIU0rASL7fieIAuL440Y8/w+MsgBUtT+wCcCGshIRYd+5f2fupdYxKo5H/gFI0UqAM28+rwWgoDy4f2aPaJSnAAAIuApAZXMubQac0f+1iyMe+QcoLSsBrgtnXpN1CkoAhdw52p8d9TuxD2EBoLIl/bYnHvlXQEpWAmROsn83KByuL3eN9mdHXQBqppy6FsDzJSUiAoBx4+GcN9M6RcXwyL+CUrAS4Lz8L4DMOOsYFG9bqy5d1z3aHx51AZBlyzwI7i4tExEgp58BjB9vHaMieOQfgqSvBEyYCDn1dOsUFGeid8lSjPoIZEwnYxXyi7EnItpHTjzZOkJF8Mg/RAlfCZATT7KOQDEmKr8cy8+PqQBUVxXvBpAfUyKi/eTY46wjBI5H/gYSvBIg04+3jkAxJUBftuCOqRmPqQDInT0FUUlm9abKm1hlnSBQPPI3lNSVgKqsdQKKKYXcJWvX9o/lNWO+H0sd/Z+xvoYIAOAm5/Y/HvlHQBJXAhL0O0LhUh37bB7z37b+/nF3Atgz1tcRYe9e6wSB4JF/hCRtJaB/TAdwRAf09/vZMV+kP+YCMH3Nml4A6fngbgqM7or/h0ryyD+CErQSoLvj/ztC4VPgnuM6OvrG+rrS1ptU7ijpdZRuzz1jnaAsPPKPsKSsBDwb798RslLaTC6pAOQy/T8D7wagMdKnngRUrWOUhEf+MRD3lQBV6OanrFNQ/OSr3f5RP/73YCUVAFnxUB58NDCNke7aAf3TZusYY8Yj/xiJ8UqAbnqSpwCoBPLzfTN57Eq+5FR8+XGpr6X08td3WUcYEx75x1BMVwL8nk7rCBRDol7Js7jkApDdPXg3gBdKfT2lk39vfK4f5ZF/jMVwJSBOvxsUEYpt2V1a8l+c0lcAenoGFXwmAI2NPvYIdNMT1jFGxCP/BIjRSoA++Tj0j49Zx6CYEZFl0tMzWOrry3rqhPr6w3JeTymkCu+nP7FOcVQ88k+QmKwEeHf8yDoCxZCo95/lvL6sAjBp1fo1UHm0nG1Q+vgdKyN7tTOP/BMo4isB+tQT8Fe3W8eg+NmQbS/voqrynzvp+GU1EEqhYhHezf9sneII/r1tKH7lczzyT6IDKwFRKwGq8G7+JgsnlUB/UO4Wyi8ARdwKoFj2dihV/AfXw7vr59YxXsRl/xSI4OkA787/gf/Q/1nHoPgpwsPt5W6k7AJQ3dH9ZwhWlLsdSh/vlpugj//BOgaX/dMkQqcD9I+Pwfv3f7WOQTGkwF3VHd1/Lnc7gXz0lEK+H8R2KGUGBlD87KeALc+ZReCRfwpFYSVgy3MoLv0UMDhgl4FiyxEpe/kfCKgAVO8o/hLQZ4PYFqWLbn8eg9ddDWwpu8yOmb/y1zzyT6sDKwGtY/4AtfJteQ6D110N3c7HqFBJnsvuKP46iA0FUgCkp2dQA2oklD767J8weM1HwzsdoArvJ/+J4je/xCP/NPN9FL/xRXj/fVton1Ghf3wMg9dcBX32T6Hsj5JHBbeUc+//wSSIjQBAYWHdKb4nTwJwg9ompcy48XA/cBXc118BSGB/NQ+hu3fB+8YX4Xeuqcj2KZ5k9lxkPn4dZNIxFduH37YcxZu+AuzdW7F9UOIVHU/OyHZ0BvKxkYG+y/Y11/8SwOIgt0np47ziVXA/9nHI6WcGt1FV+O0r4P3Hv0B3bA9uu5QYMukYOH/5XrivfwsggSyOAgD0mU3wvvttPuufyqbAz2vaut4c1PYCLQD5plmLVJxAzk1QyrkunEtb4C65EmUVAc+Dv7od3h0/gj75eGDxKLnkzBlwl7wTzrz5gFv6gqY++Ti8O3607yE/vM6EgqByWXV7Z2B33QVaAHQpnMLq+j8ocFaQ26V0k3PPh3NJE5zaesipZ4x8emBPP/xHHoZ23g9/9Soe8VNJZMpUOPOaILPnwnn5XwATq47+AlXopifh93TCv68d+offhxOUUkEEG7MXd50rSxHYhUuBn2jtban/a1F8O+jtEgGA1EyCnH4m8LITIVOmAhMmAEUP2NMP3bYF+uwz+x4zXOSzqShAmQzk1DMgJ54EmX78vjKQcYG9e/ddzf/nZ6GbnoD29lonpYRS6P+raesO9MERgRcAXVybzRfczQCmBb1tIiKiFNqec/ecKiseyge50eCudNlP7uwpqOC7QW+XiIgojRT6naCHP1CBArBvq5lvA9hTkW0TERGlx17xcHMlNlyRAlCz4oGtAH5ciW0TERGlhQK3BvHc/6FUZgUAgO96XwWCu1qRiIgoZRTifKtSG69YAZi0oudRCO6p1PaJiIiSTIFf1rSuq9j9pBUrAACgPr5eye0TEREllaKyM7QyD1w/SF9zQyeg9ZXeDxERUYJ0V7d1VXR2VnQFAAAgWrHzF0REREmkiq9Weh8VLwC5YvYOAJsrvR8iIqIkUOCJ6mmn/azS+6l4AZCOjqKKfrnS+yEiIkoCR+RGWbas4p8gVflTAACqd/j/DuDJMPZFREQUY5uzU/puDWNHoRQA6ekZFOALYeyLiIgorgT4oizbMBDGvkIpAACQnXrarQAeC2t/REREMfN0dmr+B2HtLLQCsO98hv5TWPsjIiKKE9Hwjv6BEAsAAOSmnv4TAI+EuU8iIqIY2JydsD20o38g5AIgy5Z5Kvq5MPdJREQUeSpL5e6Ne8PcZagFAACqW7uXAXgw7P0SERFF1B9yftVtYe809AIggIrI0rD3S0REFEUqcp10dBTD3m/FPwtgOPyMACIiSj1BT661q04ADXvXoa8AvMS/3m7fREREEeDLdRbDHzAsANVt3fcAWG61fyIiIlvSWt3eucJq74YrAIBCrgEQ+nkPIiIiY0X1/astA5gWgJq2zkcE+j3LDERERKET/U7Nqu4NlhFMCwAADO6d8I8AXrDOQUREFJLtvor5k3HNC8Dk++/fodAbrHMQERGFQUX/YVJbl/mBr3kBAIBqL/evUDxsnYOIiKjCHqku5v7NOgQQkQIgHR1FuGp6MQQREVHFqXzc4qE/Q4lEAQCA6pXdbQB+ZZ2DiIioEhT4ueVtf4eLTAEAgKJ6VwMI9cMQiIiIQjDgO3KtdYiDRaoATG7veRyQ71jnICIiCpTKN45Z2flH6xgHi1QBAIABKX4ewBbrHERERAF5bu8EfMk6xOEiVwCmtvbsUggvCCQiokRQkb+ednfnbuschzP7NMCR9DbX/68Ab7DOQUREVIZfVbd1LbYOMZTIrQAc4DjjPgZgl3UOIiKiEu12PLnKOsRwIlsAcivXPKuQz1jnICIiKoUAn8p2dD5jnWM4kS0AAFA9r/NmAe63zkFERDRG92Xbum6xDnE0kS4AshS+5/sfBLDHOgsREdEo7VVxPiqAWgc5mkgXAACYtGr9YwKJ3O0TREREQxHghprWdb+3zjGSyBcAAMhO7fsyPyyIiIiiT3+X3el91TrFaMSiAMiyDQMO/A8A8KyzEBERDcN3IB+Rnp5B6yCjEYsCAADZ9vVdgPyLdQ4iIqJh/HO2rWutdYjRik0BAICc238dgMescxARER3m97ms94/WIcYiVgVAVjyUF3X+EsCAdRYiIqL9BgX6Hrmzp2AdZCxiVQAAINe+7jeALLXOQUREBABQuS7X1t1tHWOsYlcAACA3r/NGAO3WOYiIKOUU9+Yu6fyGdYxSRPbDgEZSaGw42Xf1twCmWmchIqIUEuxw4b2yqrVns3WUUsRyBQAAsh2dz6joh6xzEBFROin0o3Ed/kCMCwAA1LR2/wyQW61zEBFRuqjKv9W0dt9hnaMcsS4AAJBz+/8KwB+scxARUTqIYOOevZlPWOcoV+wLgKx4KC8OrgQQiycvERFRrBXFc945fc2aXusg5Yp9AQCA3Mqu9QL5J+scRESUcKL/mF21rtM6RhASUQAAIDv11C8A0mqdg4iIEuue3MXdX7EOEZTY3gY4lF2XzZnqFr31AM6wzkJERImyyfe8WZM6ep63DhKUxKwAAMAxy9duh6NvBtBvnYWIiBJjj/jyliQNfyBhBQAAqld2PwiVj1jnICKihFD5WG5VZ491jKAlrgAAQHV7520KvcU6BxERxZsIvlPd3vkD6xyVkMgCAADVO/2/EpU11jmIiCieFFiXnZKP/f3+w0lsAZCenkGMKy4B8Jx1FiIiip0trrpXyLINif34+cQWAADILe95TiFXAihaZyEiotgoqqNvy7av/ZN1kEpKdAEAgJq2zlVQ+bR1DiIiigv5ZM3K7nutU1Raop4DMBwFJN9U/18QvNU6CxERRZjix9XtXVdaxwhD4lcAAEAAzfW771VgrXUWIiKKKunK5bzUfMx8KgoAAMjatf3qea8XwUbrLEREFC0KPKGuu1ju7ClYZwlLKk4BHGxX45wZruutBXCsdRYiIoqEF3zfnztp1frHrIOEKTUrAAcc07F2ow+8GcBe6yxERGRuQCFL0jb8gRQWAACY1Na1WqHvAaDWWYiIyIwC+oGats5V1kEspLIAAEBNW/d/C/R66xxERGRE9Lrqtu4fWcewkrprAA7X21J/syg+ap2DiIhC9R/VbV0ftA5hKbUrAAdU7/D+BtCV1jmIiCg0y3NeNvUHfqkvANLTM7h3vHMFgIessxARUcVtGBDvbdLRkfpHxKf+FMABhaY5J3ni3SfAmdZZiIgoeAI8DmfcJbmVa561zhIFLAAH6W+pPdVT9z4Ap1lnISKiQD3jurikakXXk9ZBoiL1pwAOVtXas9lzZAGAP1tnISKigCi2qTgLOfwPxRWAIfQ1N1wA6CoAU62zEBFRWXaK+E251vX/Zx0kargCMITqts6HHN+5HECvdRYiIirZboEu5PAfGgvAMLKr1nX6vr8IQN46CxERjVm/Ovr6XFt3t3WQqGIBOIpJq9avAeRN4OcGEBHFyYD4ckXNyu57rYNEGQvACKrbOlcK8HYAqb9nlIgoBjxVvDO3qvPX1kGijgVgFHJtXf8L6PsA+NZZiIhoWD6g76lp71pmHSQOWABGqbqt+0cKuRLAoHUWIiI6ggfg/dVt3bdbB4kL3gY4RvmmusUqcgeAidZZiIgIADCgou+oae3+mXWQOGEBKEFvc8N8B/pLBaqtsxARpVwBgjdXt3Yttw4SNywAJdrdXD/PAX4FYJJ1FiKiNBKgz1e8oaa9q906SxyxAJQhP7+hVh1dDmCadRYiolQR7HAgl2dbO9dZR4krFoAy9c6vmymOrARwgnUWIqKU2AIfl1Wv6vqtdZA4YwEIwO75s851HKcVwMnWWYiIEu459XVBzaruDdZB4o63AQZg0qr1j7mauVgEG62zEBEl2FNF9eZx+AeDBSAgVe0PbJKizIfiYessREQJ9JA44+ZObu953DpIUrAABCjb0flMwc/OgYCPoCQiCoyuHBDvktzKNc9aJ0kSXgNQAdrYmOnLFG4SxUetsxARxdz3czu9j0pPD5/CGjAWgArqa274W0C/Aa60EBGNlarghprWrqXWQZKKBaDCepsbrhDobeCjg4mIRmsvBO+vbu36sXWQJGMBCEGhuX6Or/gFBNOtsxARRdx2VX1TTXv3fdZBko4FICQ7m2rPyoj7awDnWGchIooiBZ5Q37980qr1j1lnSQOemw7J5Paex33g1QBWW2chIooaBdbBzczh8A8PC0CIJrV1vZAruJcB+l/WWYiIIkPx42ovO79mxQNbraOkCU8BGMm3NHxYVb8DYJx1FiIiI0Uo/qG6vetG6yBpxAJgaP9HCt8B4GXWWYiIQqXYpsDb+VG+dlgAjBWa5pzkibdMgDnWWYiIQrLeFe8tVa09m62DpBmvATCWbV/7p2ovewkEXAIjosRT6C25qfm5HP72uAIQIX3Nde8E5HsAstZZiIgCtkdE/l+utfP71kFoHxaAiOlbUPdK+PIzAGdYZyEiCshmgV6Ra+vutg5CL+EpgIipXtn9oA/UAVhunYWIKAD3eBn3VRz+0cMCEEGT2rpeyE097bUCfAYAPwGLiOJoEKKfzs3reu0xy9dutw5DR+IpgIjLL6ifpT5uBx8hTETx8aQDXJlt61prHYSGxxWAiMut7FqfK7ivBOTb1lmIiEYkuK3gZS/g8I8+rgDESG9L3ZtF5RYA06yzEBEdZqdCrqpp6+SjzmOCBSBm+hrrXgZXfgDgNdZZiIj2a3fUfXe2fe2frIPQ6LEAxJACkm9u+BtAvwJgvHUeIkqtQRV8sfrirhtkKXzrMDQ2LAAx1rtw1l+IJz8G5BXWWYgoZVQeFciVufZ1v7GOQqXhRYAxVrNi/cO5rD8bov8MwLPOQ0Sp4EHxzVyuWMvhH29cAUiIfMusV6nKvwNykXUWIkoq/Z3jux/KrlrXaZ2EyscVgITIta7/v5yXa4Di7wHssc5DRIkyCMGNuamFWRz+ycEVgATa1Thnhut6twCYb52FiOJNVNb4jnyopnXd762zULBYABJKAcm31L8Lim8CmGqdh4hiZxcg1+fmdd7EK/yTiQUg4fKX1Z6AonOTQt5inYWIYuNXjqsfy67ofto6CFUOC0BK9LbUvVVUvg3geOssRBRZzynkb2raOn9qHYQqjxcBpkRNa/cdA+KdC8GNAAas8xBRpAwC8u294+U8Dv/04ApACu2eP+tcx3G+BeAy6yxEZO5XRfWuntze87h1EAoXC0CK5ZvqFqvITQBOs85CRCFTeVTgXZNrX3+3dRSywVMAKZZr774zl/XO3//sgN3WeYgoFNsBuTrnV72Cwz/duAJAAPbdLeAXnaUC+QAA1zoPEQWuqNDvq+d/ZlJHz/PWYcgeCwAdordl9ssF/teguNw6CxEFRNGmGf/qmhXrH7aOQtHBAkBD6mupvwyqX+RnCxDF2nqofKa6vXOFdRCKHhYAGpYCUmiqe50KvsCPHCaKEZVHFfrZ6vaunwqg1nEomngRIA1LAM21d9+Z83IXCfBBAHwqGFG0bYbK+3PTTv2LmvauZRz+dDRcAaBR0yUzx+d35N6uiusFONM6DxG96GlAvp7zqr4nHR38NFAaFRYAGrMDRUAUn1XgLOs8RCm2GZBvcPBTKVgAqGS6ZOb4wgu596vgWgCnW+chSgsFnnBEbsxO6btVlm3go72pJCwAVDZdCqdwX91rVeSzAGZZ5yFKLv0NRL6VK2Z/LB0dRes0FG8sABSo3S0NFzuq1wJ4nXUWooRQQNpE/W/n2rvvtA5DycECQBWxu6nu1a7gGoW8EXyyIFEp9qjKbZopfmPSip5HrcNQ8rAAUEX1N84+3cv4H4XiQwCmWuchioFdgPynOJkbcyvXPGsdhpKLBYBCsW3u3JqJEwfe54j8tSpmWOchihoRbPRVv1md9W+VO3sK1nko+VgAKFS6FE7+/romgXxYFW8CkLHORGTIB6RdVW+pnnbaz2TZMs86EKUHCwCZyV9We4IOuu+G4GMATrXOQxSi5yD4oetnbq5qf2CTdRhKJxYAMqeNjZmCW3idAu8HsAhcFaBkGlTRux04388Wq+7ibXxkjQWAIqWvse5lcJ23Afo+ABda5yEqm8qjgN4KkVur2zq3WMchOoAFgCKr0NIwW319twqWADjWOg/RqCm2icgy8eWH2VXrOq3jEA2FBYAiT5cscfM7npoPyLuheCOAGutMREPoF8Gv4Ott2V3+PdLTM2gdiOhoWAAoVnThBbm8P/ENqnirAJcBmGidiVKtX4Hlorgjl/N+wdv3KE5YACi2dM6cqkJVsUUdWcKVAQpRP4A2CJbtHSf/O+3uzt3WgYhKwQJAiaBz5lT1V3mv8QVvgOJyCKZbZ6JE2QrIrwX6i2zBXS5r1/ZbByIqFwsAJY4uhVO4t+FVvquLBXgdFBeBf9dp7B6B4E5AW3PFXAdv26Ok4ZsiJV5/S+2pPjKvgfoLVaQJiinWmSiStougDdCV4uCe7Irup60DEVUSCwClii5Z4vY///Qsdb0FqrIAwBwA46xzkYkBKNYKsFLgr6yadkYPH8VLacICQKmmi2uzvf2Zixxf50KkBdC5AKqsc1FFDELwEIBW8XXNngnOvbyAj9KMBYDoILpoxoTegan1LjBPgdkAGgAcZ52LSrJFRTtFnXW+YHXNlL4uWbZhwDoUUVSwABCNYGdT7VkZcWaLSoOKNAB6Afj8gajph+AhqHRCtDMDXTextfsJ61BEUcYCQDTHjmmrAAABZElEQVRG2tiY6ZP8uRA5Hw5miqIWigbeehia3aLyOxX0iGCDBzxSM+6Fbrl7417rYERxwgJAFJCdF188xZk4ONMFzlfFTADnQ/VCFoOS7YbgjwAegY8NAn3EdbBhQmv3kwKodTiiuGMBIKqw/IK5J/rewAzHcWb4qmeJYgZEZwByFoBjrPMZ2wnB41DZqNDHRWWjL7rRzXgbc8t7nrMOR5RkLABEhl5Y1DBp/B7/FAfOaXBxsu/jFBE9FYKXQfUEQKYDmA7Atc46Rh6AbQC2QvBnKP6skE2O4Bn43tO+yuY9A+M3T1+zptc6KFFasQAQRZwC0rfw1dOBgePgudMh/hRHZYpCJ6s6kx3xpyhksqhUqWASoBMgyMKXnIqOF+AYCJyDNjgRR97q2A/BnoN+xldgl6gMwNE8FAVA9opit4r2i2CH78tOEX+niLPDh78T6uyA72/FuHHbqlc8sI3L9ETR9v8BCBrLJ5MXMaYAAAAASUVORK5CYII=" parent="1" vertex="1">
                    <mxGeometry x="531" y="363" width="20" height="20" as="geometry"/>
                </mxCell>
                <mxCell id="48" value="&lt;font style=&quot;font-size: 27px&quot;&gt;Releaseschiene '3.13' ist im Repomodus&lt;/font&gt;" style="rounded=0;whiteSpace=wrap;html=1;fillColor=#0050ef;strokeColor=#001DBC;fontColor=#ffffff;" vertex="1" parent="1">
                    <mxGeometry x="240" y="150" width="830" height="60" as="geometry"/>
                </mxCell>
                <mxCell id="49" value="" style="rounded=0;whiteSpace=wrap;html=1;fillColor=#FFFFFF;strokeColor=#000000;" vertex="1" parent="1">
                    <mxGeometry x="240" y="540" width="210" height="210" as="geometry"/>
                </mxCell>
                <mxCell id="50" value="Param-Entw" style="rounded=0;whiteSpace=wrap;html=1;strokeColor=#001DBC;fillColor=#0050ef;fontColor=#ffffff;align=left;" vertex="1" parent="1">
                    <mxGeometry x="240" y="540" width="210" height="30" as="geometry"/>
                </mxCell>
                <mxCell id="51" value="online" style="rounded=1;whiteSpace=wrap;html=1;arcSize=50;strokeColor=none;strokeWidth=1;fillColor=#33A64C;fontColor=#FFFFFF;whiteSpace=wrap;align=center;verticalAlign=middle;spacingLeft=0;fontStyle=1;fontSize=14;spacing=10;" vertex="1" parent="1">
                    <mxGeometry x="390" y="545" width="55" height="20" as="geometry"/>
                </mxCell>
                <mxCell id="52" value="&lt;font style=&quot;font-size: 24px;&quot;&gt;9&lt;/font&gt;" style="ellipse;whiteSpace=wrap;html=1;aspect=fixed;strokeColor=#001DBC;fillColor=#0050ef;fontSize=24;labelBackgroundColor=none;fontColor=#FFFFFF;" vertex="1" parent="1">
                    <mxGeometry x="397.5" y="580" width="40" height="40" as="geometry"/>
                </mxCell>
                <mxCell id="53" value="&lt;font color=&quot;#000000&quot;&gt;&lt;font style=&quot;font-size: 10px&quot;&gt;Stage&lt;/font&gt;&lt;br&gt;Entwicklung&lt;/font&gt;" style="text;html=1;strokeColor=none;fillColor=none;align=left;verticalAlign=middle;whiteSpace=wrap;rounded=0;labelBackgroundColor=none;fontSize=12;fontColor=#FFFFFF;" vertex="1" parent="1">
                    <mxGeometry x="250" y="580" width="80" height="30" as="geometry"/>
                </mxCell>
                <mxCell id="54" value="&lt;font color=&quot;#000000&quot;&gt;&lt;font style=&quot;font-size: 10px&quot;&gt;Syr Version&lt;/font&gt;&lt;br&gt;3.13.00.00-00&lt;/font&gt;" style="text;html=1;strokeColor=none;fillColor=none;align=left;verticalAlign=middle;whiteSpace=wrap;rounded=0;labelBackgroundColor=none;fontSize=12;fontColor=#FFFFFF;" vertex="1" parent="1">
                    <mxGeometry x="250" y="620" width="80" height="30" as="geometry"/>
                </mxCell>
                <mxCell id="55" value="Idle" style="rounded=0;whiteSpace=wrap;html=1;labelBackgroundColor=none;fontSize=17;fontColor=#ffffff;strokeColor=#2D7600;fillColor=#60a917;" vertex="1" parent="1">
                    <mxGeometry x="240" y="720" width="210" height="30" as="geometry"/>
                </mxCell>
                <mxCell id="56" value="&lt;u&gt;DB-URL&lt;/u&gt;" style="text;html=1;strokeColor=none;fillColor=none;align=left;verticalAlign=middle;whiteSpace=wrap;rounded=0;labelBackgroundColor=none;fontSize=12;fontColor=#3333FF;" vertex="1" parent="1">
                    <mxGeometry x="250" y="650" width="60" height="30" as="geometry"/>
                </mxCell>
                <mxCell id="57" value="&lt;span&gt;GRR-URL&lt;/span&gt;" style="text;html=1;strokeColor=none;fillColor=none;align=left;verticalAlign=middle;whiteSpace=wrap;rounded=0;labelBackgroundColor=none;fontSize=12;fontColor=#000000;fontStyle=0" vertex="1" parent="1">
                    <mxGeometry x="250" y="680" width="60" height="30" as="geometry"/>
                </mxCell>
                <mxCell id="58" value="" style="rounded=0;whiteSpace=wrap;html=1;fillColor=#FFFFFF;strokeColor=#000000;" vertex="1" parent="1">
                    <mxGeometry x="680" y="540" width="210" height="210" as="geometry"/>
                </mxCell>
                <mxCell id="59" value="Param-Test" style="rounded=0;whiteSpace=wrap;html=1;strokeColor=#001DBC;fillColor=#0050ef;fontColor=#ffffff;align=left;" vertex="1" parent="1">
                    <mxGeometry x="680" y="540" width="210" height="30" as="geometry"/>
                </mxCell>
                <mxCell id="60" value="offline" style="rounded=1;whiteSpace=wrap;html=1;arcSize=50;strokeColor=#6F0000;strokeWidth=1;fillColor=#FF0000;fontColor=#ffffff;whiteSpace=wrap;align=center;verticalAlign=middle;spacingLeft=0;fontStyle=1;fontSize=14;spacing=10;" vertex="1" parent="1">
                    <mxGeometry x="830" y="545" width="55" height="20" as="geometry"/>
                </mxCell>
                <mxCell id="61" value="&lt;font style=&quot;font-size: 24px&quot;&gt;7&lt;/font&gt;" style="ellipse;whiteSpace=wrap;html=1;aspect=fixed;strokeColor=#001DBC;fillColor=#0050ef;fontSize=24;labelBackgroundColor=none;fontColor=#FFFFFF;" vertex="1" parent="1">
                    <mxGeometry x="837.5" y="580" width="40" height="40" as="geometry"/>
                </mxCell>
                <mxCell id="62" value="&lt;font color=&quot;#000000&quot;&gt;&lt;font style=&quot;font-size: 10px&quot;&gt;Stage&lt;/font&gt;&lt;br&gt;Test&lt;/font&gt;" style="text;html=1;strokeColor=none;fillColor=none;align=left;verticalAlign=middle;whiteSpace=wrap;rounded=0;labelBackgroundColor=none;fontSize=12;fontColor=#FFFFFF;" vertex="1" parent="1">
                    <mxGeometry x="690" y="580" width="80" height="30" as="geometry"/>
                </mxCell>
                <mxCell id="63" value="&lt;font color=&quot;#000000&quot;&gt;&lt;font style=&quot;font-size: 10px&quot;&gt;Syr Version&lt;/font&gt;&lt;br&gt;--&lt;/font&gt;" style="text;html=1;strokeColor=none;fillColor=none;align=left;verticalAlign=middle;whiteSpace=wrap;rounded=0;labelBackgroundColor=none;fontSize=12;fontColor=#FFFFFF;" vertex="1" parent="1">
                    <mxGeometry x="690" y="620" width="80" height="30" as="geometry"/>
                </mxCell>
                <mxCell id="64" value="--" style="rounded=0;whiteSpace=wrap;html=1;labelBackgroundColor=none;fontSize=17;fontColor=#ffffff;strokeColor=#2D7600;fillColor=#B3B3B3;" vertex="1" parent="1">
                    <mxGeometry x="680" y="720" width="210" height="30" as="geometry"/>
                </mxCell>
                <mxCell id="65" value="&lt;span&gt;DB-URL&lt;/span&gt;" style="text;html=1;strokeColor=none;fillColor=none;align=left;verticalAlign=middle;whiteSpace=wrap;rounded=0;labelBackgroundColor=none;fontSize=12;fontColor=#6E6E6E;fontStyle=0" vertex="1" parent="1">
                    <mxGeometry x="690" y="650" width="60" height="30" as="geometry"/>
                </mxCell>
                <mxCell id="66" value="" style="rounded=0;whiteSpace=wrap;html=1;fillColor=#FFFFFF;strokeColor=#FF0000;strokeWidth=5;perimeterSpacing=0;shadow=1;" vertex="1" parent="1">
                    <mxGeometry x="460" y="540" width="210" height="210" as="geometry"/>
                </mxCell>
                <mxCell id="67" value="Param-Master" style="rounded=0;whiteSpace=wrap;html=1;strokeColor=#001DBC;fillColor=#0050ef;fontColor=#ffffff;align=left;" vertex="1" parent="1">
                    <mxGeometry x="460" y="540" width="210" height="30" as="geometry"/>
                </mxCell>
                <mxCell id="68" value="online" style="rounded=1;whiteSpace=wrap;html=1;arcSize=50;strokeColor=none;strokeWidth=1;fillColor=#33A64C;fontColor=#FFFFFF;whiteSpace=wrap;align=center;verticalAlign=middle;spacingLeft=0;fontStyle=1;fontSize=14;spacing=10;" vertex="1" parent="1">
                    <mxGeometry x="610" y="545" width="55" height="20" as="geometry"/>
                </mxCell>
                <mxCell id="69" value="&lt;font style=&quot;font-size: 24px&quot;&gt;8&lt;/font&gt;" style="ellipse;whiteSpace=wrap;html=1;aspect=fixed;strokeColor=#001DBC;fillColor=#0050ef;fontSize=24;labelBackgroundColor=none;fontColor=#FFFFFF;" vertex="1" parent="1">
                    <mxGeometry x="617.5" y="580" width="40" height="40" as="geometry"/>
                </mxCell>
                <mxCell id="70" value="&lt;font color=&quot;#000000&quot;&gt;&lt;font style=&quot;font-size: 10px&quot;&gt;Stage&lt;/font&gt;&lt;br&gt;Master&lt;/font&gt;" style="text;html=1;strokeColor=none;fillColor=none;align=left;verticalAlign=middle;whiteSpace=wrap;rounded=0;labelBackgroundColor=none;fontSize=12;fontColor=#FFFFFF;" vertex="1" parent="1">
                    <mxGeometry x="470" y="580" width="80" height="30" as="geometry"/>
                </mxCell>
                <mxCell id="71" value="&lt;font color=&quot;#000000&quot;&gt;&lt;font style=&quot;font-size: 10px&quot;&gt;Syr Version&lt;/font&gt;&lt;br&gt;3.13.00.00-00&lt;/font&gt;" style="text;html=1;strokeColor=none;fillColor=none;align=left;verticalAlign=middle;whiteSpace=wrap;rounded=0;labelBackgroundColor=none;fontSize=12;fontColor=#FFFFFF;" vertex="1" parent="1">
                    <mxGeometry x="470" y="620" width="80" height="30" as="geometry"/>
                </mxCell>
                <mxCell id="72" value="Idle" style="rounded=0;whiteSpace=wrap;html=1;labelBackgroundColor=none;fontSize=17;fontColor=#ffffff;strokeColor=#2D7600;fillColor=#60a917;" vertex="1" parent="1">
                    <mxGeometry x="460" y="720" width="210" height="30" as="geometry"/>
                </mxCell>
                <mxCell id="73" value="&lt;u&gt;DB-URL&lt;/u&gt;" style="text;html=1;strokeColor=none;fillColor=none;align=left;verticalAlign=middle;whiteSpace=wrap;rounded=0;labelBackgroundColor=none;fontSize=12;fontColor=#3333FF;" vertex="1" parent="1">
                    <mxGeometry x="470" y="650" width="60" height="30" as="geometry"/>
                </mxCell>
                <mxCell id="74" value="&lt;u&gt;GRR-URL&lt;/u&gt;" style="text;html=1;strokeColor=none;fillColor=none;align=left;verticalAlign=middle;whiteSpace=wrap;rounded=0;labelBackgroundColor=none;fontSize=12;fontColor=#3333FF;" vertex="1" parent="1">
                    <mxGeometry x="470" y="680" width="60" height="30" as="geometry"/>
                </mxCell>
                <mxCell id="75" value="" style="shape=image;verticalLabelPosition=bottom;verticalAlign=top;imageAspect=0;image=data:image/png,iVBORw0KGgoAAAANSUhEUgAAAIAAAACACAYAAADDPmHLAAAABHNCSVQICAgIfAhkiAAAAAlwSFlzAAADsQAAA7EB9YPtSQAAABl0RVh0U29mdHdhcmUAd3d3Lmlua3NjYXBlLm9yZ5vuPBoAAA63SURBVHic7Z1rdFVlesd/zz47AQIYEOUmjDLW2hnR1mlhVEDj6AAh5Aon7bIyU21nbHUt1uqq1UFBAgjOzLIf2umatbRVpzNMVw2ThOSQcBmRIBDBWS4vXLR1KjrcEzKgQAjJOfvph5OTQsjlXPblJGf/PsE+e7/PP+v/P+9+z768rzDUUKSgetE0FevrojpNhZsEpirWeEHGAeOA4SjZCCO7jrmA0AG0A62KtgpGM2L9Dsv4HKxPIeuj+rKqwwjq4V9nO+K1gFQpqi2aHIkwSzFmieoMhNuB0Q6V+xLlAIa+I5bsMUxtqiuuO+5QLVcYdAHIb8gfZl4adp+FlS8q+Qq3eizpY0UawNoyMjxs54byDR0e60mIQRGAvB155oizY75tWFqOUAKM8VpTH5xR2Aha2Tb2yzca728Mey1oINI6APlVZVMMifwlwuMoX/FaT4KcAH6Omi/XL6r61GsxfZGWASisLp1toUtBy4CA13pSxEJ4U4R/2VRSG/JaTE/SKgALqksXilgrUf7May2OoOwTZfWmxbUNXkuJkRYBWFhT8oBauhbhm15rcYm3UX22flHdDq+FeBqAeVVlk7KMyI9UWeKlDq8QdFPAkMdrS2qPeKfBA/J25Jmjzl7zhKqsBq7xQkPaoFwQ5MURkax1XvyEdD0A0QGe9VPgdrdrpzf6AYY8Xl9S2+RmVdcCEKwMBi4GOleo6ArAcKvuIEMFfnKiZcKT7z72cqcbBV0JQFFt0YSIJetRHnSj3mBH0Z1mgIfcuMzseAAW1pQ8oKrrgYlO1xpaaIvCdxrK6rY4WcWxAFRUVBi/ueO9NcAyJ+sMcSxE19aX1K106i6kI8bkvZY3fGRu7mvAXzjRfuah60+2THzUiXGB7QEoDBVeZ3UYmzLooo47CA2GaQVDhaE2e5u1kaLaogmRiPwa/yeeU7xjZFkFocLQabsatC0AxRuLp4Yt2Q56i11t+vTKIUsD8zYvqj5qR2O2BGBuden4LKydwB/Z0Z7PQMgnncjsbWU1zam2lPIFmcJQ4XVZWG/im+8ieksWVihYGRyVakspBSBYGRxhdRp1wG2pCvFJmJltWR01wcpgdiqNJB2AiooKo83sXA/cnYoAnxRQHmwzO16tqKhI2sekn7YZuTT3eeD7yR7vYxt3HJ9wUj55/b8bkzk4qUHgguqi+YLU49/USRcsQyQ/VLpxW6IHJhyABZULJoqZ9R7+tf20QqDZCOidid5ASugbHKwMBgwz+5f45qcdCuPDEf4zWBlM6LSeUADazI7Vin4rMWk+biHIfRcDnSsSOyZOup7k2Yl/3k93LEv13s2L6vbEs3NcZubtyDMtIv8a7/4+nmIERF7Jey1veFw7x7PTqDPXLAX549R0+biFwq0jc3OXxbPvgKeAeVVlk0yJfATkpqzMx006xIpM37R40yf97TRgD2CK9c/45g9GstUwfzjQTv32AF3P871hnyYftzEw8kJlNTv7+tzs7+Cu17V8ksQ0TP7qtiXcPfkujp8/wUsf/jtHz9lyGz9uLLXWAbP6+rxPexduLC5UizpHVGUApmGybOZTfHPSzO5t5zvPs3z3Sn579n/dFWMxv35x7dbePupzDKDKc84pGtr0Zj7AqKxRPD97FX8w5mZ3BRms7PujXlhYU5I3ZF/Rdpi+zI/hUQjuzq8q6vU00HsPoNY/OCpniGIaJj+Y+Y99mh/DixAI8mTv23tQULXoq0j4E/yrfgkRM/+uSfE/De/ymMCKiNy8pXTjZ5dvvMpkJfI3vW336ZtkzAfXewIjgPVoz41X9AB5O/LMkWdyPwcmu6FoKJCs+ZfjYk9wLCecfeOG8g2R2IYrvumjWnPn4psfN3aYD672BDe0Z3U+cPmGKwKghpQ7rWCoYJf5MdwKgWVZV3jcfQoIVgaz28yOk8BYRxUMAQb6qZcKZy+d5YntS/ni0pe2t93FmZxw9sTYdDTdPUB7VmcevvkD4qT5AGOGjWH2DX1eubWDsefN9tmx/3QHwMLKd7LqUMBp82Oc6zjvaPsBjPmxf3cHQFT8APSDW+Z/2LKfPcecnSdKodtrA6JTrqfBrNtpS7xX+FLlUOtHrNm7johGBt45NaYvqFwwEboCELaM2f3vn7nYPdrvi0OtH7GyaTUXwxcdrRNDTPMe6AqAoeroqGOw4qb5zzWtcs18AMWYBV0BUP/O31W4bX57uN3ROj0RrJkABoogTHe1eppjGoEhbX4UuR1FJL+m5GZD9bceKEhLouY/NcTNj2KErRsNUfmaZwrSjEwyHyBiytdNUZ2WTg9+js4ezZ/fupjrRlxH45G32Htinyt13Trn7z99gFVNz9Me8dZ8ABFjmtm1rl5aMGbYGNbNWcNXRk8FYPYNs/iPg+vZ8D+/crSuW+f8g62HWPV2epgPIKrTDEHTYjGmnubH+O5tDxP8w8WO1XWr2z/YeoiVTas97/YvR9EbDWC810L6Mj+GUyHIZPOjyPUG0aVUPWMg82PYHQLffFAYZwDXeiUgXvNj2BUC3/wo0hWAHC+KJ2p+jFRD4Jt/BTkGkNJEg8mQrPkxkg2BaQR4eoY7o/1BYD7AMNcDkKr5MRINQcz8uyfflVLdgRhE5kNXAFzDLvNjxBsC3/w+UQNwZa264YHh/HDO87aZH+O7tz1M6S3FfX7ulvkftHzIc3u8v7ybEMol1wKQN/Vepoye4kjbfz39kV5D4Kb5q99ey6XIJUfr2I5EA3DBjVqGOHu26RkC0wjw1IwnffP7p80Afu9GpcYjb3HywilHa8RCEDP/nsnOTmQ+yM0HtFUKqot3AHlulJuQM54X5qxlfM71jtb57IvPuCn3JkdrDH7zAdhuALYtQDQQp9qaeXrXM5xqc7YncNr8A6cPsmbvusFuPiqcNhD93M2iLW0t/GDXcsdD4BQHTh+komnN4Brt94WlnxtYhqsBgGgIlg3CEHSbnyb381PFEA4bYH3qRfHm7hCkvPCVKww18wEs+MwwsvSQVwKiIXg27UMwFM0HyDLkoKBIQU3xWeAar4SMz7meF+asZUKO58+mXMVQNR84W19ae62BoCgHvFTS3NbCM2l4OhjC5gPsR6L3AsDQdzwWw6m2ZpbvXknrxVavpQDwXvP70Ue3h6b5APug69UwsSSu1SWc5sSFEyzbvcLzELzX/D5r9q6jI+LKbRJPMCTquQFgRTp3eyvn/zl+/rinIcgE8wG9pNIEXQFoKG84CXzsqaTL8CoEGWI+CvtjC09ffotus0d6eiUWgt+3u3KvKmPMB0B1S+yf3QFQNK0CAF0h2LXc8RBklPmAwNUBONUysRGXbg0nwjGHQ5Bp5gNnciLDugf93QF497GXOxVqvdHUP06FIAPNB/hVbI5A6DFTqFi87r6e+Dh2/jjP7LJvTJCh5iMiV3h8RQAujPtiO3DMVUUJcPT8sa4QnEmpnUw1Hzg6ojOr8fINVwSg8f7GMPAzFwUlTDQEy5MOQQabD/Dq5TOFQy/rAhim9QpguSYpCZINQYabb6kGXu258aoAhIpCh0FC7mhKnqPnj/HM7vhPBxluPiAbGxZVX/XwT+/Pahv6T47rsYGj547yzO4VnBkgBL75IMiLvW/vg4Kq4r0Izr5FaRNTRk/hhdlrGDv86snOffMB2FNfVtvrbLB9vq0hymrn9NjL0XNHWdZLT+Cb34VS0ddH/c4PVVBd/BYwx249TjF19BQe/5O/ZeroKew+1sSrB37mm9/Ptx8GWDsY1ZWIvGm7JIc4cu4oy3Yt91pGemGwrP+P+6F+Ud0O4L9sFeTjIlpZX1K7q789BnxjU8Odfw98YZsmH7doj4jx9EA7DRiAhvKGk6hU2CLJx01e6LlKaG/E9c52TiTrJ8D7qSrycY2PreEdP4pnx7gCsKF8QwSDJ0jzS8Q+AEQE49HNCzbH9eZq3LM21JfUNiG6NnldPi6xelNZzdvx7pzQtB0zPvhGBbA9UUU+rtGYE85O6Eua8EThRbVFEyIReR+YmOixPo5yKqyBO7cuqj6RyEEJT9xTV1x3CtWHAMfXNvOJG0vRJYmaD0kEALouEImuS+ZYH0dY1VBW9+tkDkx+rQhFFtQUvyLwSNJt+NiArq8vrfsOgiZzdPJztwk6Mpz9PVU2Jt2GT0oIuunC2C8fSdb8aBspEqwMjmgzL20D8VcfdRNlX+eoiw9sm7ctpXkebVku6MHKYG622fGWwB12tOczIAfD4ex7t5ZvSPkZeVum73yjfMMXqoECwLPpZjKIgxKOzLPDfLCpB4hRsKlgLB1mCPDXInYCZZ+RbS0MFYZsm9vR1gl86xfWnzGyrLlAvZ3t+kQHfEa29S07zQebAwAQKgy15YSzi1F9xe62MxWFn59omVgWKgy12d22c2tGRmcfqwCW40DQMoQIsLq+tHZNKj/1+sPxRUMLqoruR+SXwCSnaw0ttAVLltQvrt3qZBVXVo2dW1063sT6hcBcN+oNARrDGngomWv7ieLessHRU8JTwFog4FrdwYUCP84JZz/b8yVOp3B93ej8qqJZhsi/Af6y9VdyUDC+l8jDHHbg+uBs86K6PdbwjjuB1cDgnnDfHtqBlTnh7G+4bT540ANcTvHG4qkRZa0qS7zU4RWCbhJTl0bfyPZKQxpQWF16n4W1lsy5grgLg2cHemnDDdIiADEWVBfNF+Q5wNnVnrxjj6JJP7zhBGkVgBj5VUWzBHlShCIG/0UkC6jF4MX6ktomr8X0JC0DEGNh5cIb1Aw8DPwdcKPXehLkOPALw7Re8vIcPxBpHYAYwcpgoD2r8wHLssoRKQWu9VpTH7QK1Kjyek4ke4dbv+VTYVAE4HL+9KXvZ00a33yvqs4H5gPTvdSj8KEBWyNYW5pbJu1697GXO73UkyiDLgA9KaotmmCF5R4V5oDOALkdyHWo3FlgvyK/CQi7Lqk0xWbdHqwM+gD0xoKqshuR8NdE5asi3KQwFZigME5gHJBDdHKM0V2HnAPCQJtGu/FW4JTAERU5rGodDoT1UKg89Dtv/iLn+D/v8CxSn3MQIQAAAABJRU5ErkJggg==;labelBackgroundColor=none;fontSize=12;fontColor=#3333FF;strokeColor=#000000;fillColor=#FFFFFF;aspect=fixed;" vertex="1" parent="1">
                    <mxGeometry x="532" y="685" width="20" height="20" as="geometry"/>
                </mxCell>
                <mxCell id="76" value="" style="shape=image;verticalLabelPosition=bottom;verticalAlign=top;imageAspect=0;aspect=fixed;image=data:image/png,iVBORw0KGgoAAAANSUhEUgAAAgAAAAIACAYAAAD0eNT6AAAABHNCSVQICAgIfAhkiAAAAAlwSFlzAAALEwAACxMBAJqcGAAAABl0RVh0U29mdHdhcmUAd3d3Lmlua3NjYXBlLm9yZ5vuPBoAACAASURBVHic7d15fF11mT/wz3PO7ZJ7k9KFguxbWaQjKGmS1lJIk7RYtK7UZXDf8TcLoiMjzkjFccF1FGdQZkYZEZ2hjo4iQtskDZTSJmkcRIqgZWlBsC10S+5Nm9xznt8fbaFL0iT3nnues3zef/iCJPecj6W5z+d8z3IFRBRp2tiYKUzona7FzHQAx6vqZMeRKao6GdDJojJZHUxWaE7UySo0J4LxAhyjCheCyYduENUAxh22m0EI+g77uZ0AihDsVsWAQPIqfkEgefGxU0V3ArJTRHb6vu4QkZ0AtkimuC076cytsmyZV8E/FiIqk1gHIEqzXZfNmeoW/ZMFeqoPPVWAkyFyMhQnQXEcBMcBmI74/a4qgG1QbAWwBQ6eVcXTEH3GUXlaIZu9jPPMMcvXbrcOSpRWcXtTIYoVBaR/Yd3JnufMcMSfoSozRGWGip4FYAaAnHVGSwL0KfC4QDeqyEbxsdF3nI2u4z1etaL7GdlXJIioAlgAiAKSXzD3RNWB86HOTIV/vqPOTBW9AECNdbaY2gvgcRFs8IFH4GMDVB+pvrT797IUvnU4orhjASAaI21szPRJ/lxxpRYqtQDOB/QiAFOts6WBAH1Q+a0v/gaB84gv6KkpVq2Xjo491tmI4oQFgOgoFJDe5vqzHZUGEb9BIQ0AXgFggnU2OsReAA8JtEvV6fRcrDtmZecfrUMRRRkLANFBdHFtti/vznaAeSrSAGgDeGQfVy9A0Ckqnb7IfdV56ZS1a/utQxFFBQsApZouvCCX9yfMUcjFojIX0Hng0X1SFSH4LYBW8XXNgD+4ekrHgzutQxFZYQGgVNHGxkxvpn+2qL8AkAUC1AHIWOciE0VR6QR0pQddWePnuqSjo2gdiigsLACUeDubas9yJfMaQBcIMB/AJOtMFEm7FFgF6MqMK3dXreh60joQUSWxAFDi6JIlbuH5za/0XV0swOugqLXORPGjwBMC+RXEvzO3w79XenoGrTMRBYkFgBJBF16Q6/OqFgn0jQBeA2CadSZKlBcAuVuBX1Rni7+WO3sK1oGIysUCQLGli2uzhbzTrI4sEcWbFKi2zkSpsAdAKwTLBuD9Ymprzy7rQESlYAGgWNk2d25NVdXgm6B4K4AW8Ip9srUXwEqo3FHwq35+XEdH34ivIIoIFgCKPF0yc3zhhexlPNKniNsDoFUVP6yelv+FLNswYB2I6GhYACiSFJDeloa54uPd4ugVUEyxzkQ0BtsV+lP19YeTVq1fYx2GaCgsABQp+ctqT9Bi5q2A/wFAXmGdhygAf1DBTzJ+5gdV7Q9ssg5DdAALAJnTJTPH922vfr2Ivg+KywC41pmIKsADcI+K/KB6R/GXvK2QrLEAkJn8grknqjf4Lgj+CsDJ1nmIQrQFglvdovPdqo51T1mHoXRiAaBQ6VI4+fvrmgTyYVW8CXwML6WbD0i7qt5SPe20n8myZZ51IEoPFgAKxQuLGiZNGNQPqOKvBDjTOg9R1AjwuC/4VrWz5/uy4qG8dR5KPhYAqqg9LXVnFiEfhuIjACZb5yGKgd2A3Op4+Gq2o/MZ6zCUXCwAVBG9C+ouheIaUXkdAMc6D1EM7QVwu/r6jZpV3Rusw1DysABQYBSQQlPd63yRvxfg1dZ5iJJCVNYA/o3Z9u5fCaDWeSgZWACobFpbOy4/xX0HFNcCON86D1GC/RaCb+R2eD/hbYRULhYAKtm++/ezHxTIp8Hb+IjCtFlFv1w9pfAffOQwlYoFgMbswBG/KD6rwFnWeYhSbLOIfCFbrPq+dHQUrcNQvLAA0KjpUjh999W/RQRfAHC2dR4ietFTIvKl7JRT/4PPEqDRYgGgER24uE9FPg/gQus8RDSs30Pw5dyU025nEaCRsADQUfW11LVAcSMgF1lnIaJR26CKz1W3d/2Udw3QcFgAaEj5+Q2Xq6s3QFFrnYWIStYN6Ger27rvsQ5C0cMCQIfIN82+SMX7OiCN1lmIKDCrALm6uq3zIesgFB0sAAQAKDTNOcmT4mcF8gHw43iJksiH4HZ1Mp+sWfHAVuswZI8FIOW2zZ1bM7Fq8FpRfBxA1joPEVXcdoV+rtrL/StvHUw3FoAUyzfVLVaRfwFwinUWIgrdH0RwTa616y7rIGSDBSCF+ubXXwgHNwGYZ52FiKxJq/r+1fzAofRhAUiRHY2vnDzOnfA5QD8GIGOdh4giYxCQmwe9vddP6Xhwp3UYCgcLQAooIPmW+nfBx9cgmG6dh4gia4tCrq5p6/wv6yBUeSwACbezqfasjDg3A7LAOgsRxYTg1y68q6paezZbR6HKYQFIKK2tHZc/xr0GgqUAJlrnIaLYKUBxQ27aaV/jY4WTiQUggXbPnzXXEfffIXqedRYiijdRWeM78qGa1nW/t85CwWIBSBCdM6cqn/Ouh+KT4MN8iCg4gxB8Izdu+/Vy98a91mEoGCwACbF7/qy5juN8H8A51lmIKKEUDzuOfCjb2rnOOgqVjwUg5rY2Nlbn3P4bFXoV+N+TiCrPB+Q7Obf/OlnxUN46DJWOAyPG8gvqZ6mP28GjfiIK35O+6jsntXc/YB2ESsMCEEMKSL654W8A/QqA8dZ5iCi1iir4QvWU0z7POwXihwUgZgoL607xi3IbBJdaZyEiAgAF1o4TfefE1u4nrLPQ6DnWAWj0epsbrvA9eZDDn4iiRIA5RZXf9DXXXWmdhUaPKwAxsG3u3JqJEwe+JpAPW2chIjoaESwbKA58mJ8pEH0sABFXaJpVr45zuypmWGchIhqlp3yRd01q7bzfOggNjwUgorSxMdOXKfyDKD4DfnIfEcVPUaA3ZKee/kVeIBhNLAARtLux9ljHzfwE0BbrLEREZVHcC5G3Vbd1brGOQodiAYiYfNPsi1T8/wFwunUWIqKAPOP4zhXZVes6rYPQS3gXQIT0tdS/W8W/Hxz+RJQsJ/uOf2++pe5D1kHoJVwBiABdNGNC395pN4kofzmIKNkEt+Xy7kdk7dp+6yhpxwJgrNDYcLKf0Z9C0WCdhYgoHPob13PfUtWx7inrJGnGAmCod0HdpeLLfwM43joLEVHInofoO6pbu1utg6QVrwEwoID0NTf8rfiyEhz+RJROx0Llnr6m+muVB6Mm+IceMl1cmy0U3P9U4ArrLEREkaC4I9fvvpfXBYSLBSBEuxtrj3WdzP+q6FzrLERE0SJdAF7P5wWEhwUgJLsWNJzt+noXgLOtsxARRdSTKs5ra1rX/d46SBrwGoAQ7J4/a67r6wPg8CciOpozBP6a3pbZjdZB0oAFoMJ6m+ve5jhOK4BjrbMQEUWeYoqov7yvue6d1lGSjgWgQhSQ3pb6pQL5CYCJ1nmIiGJkPCA/7G2pX8o7BCqHf7AVoEtmjs9vz/0bgHdbZyEiije5Nbez+GHp6Rm0TpI0LAAB29H4ysnj3PE/AzDfOgsRUSIo2gb9gSumdDy40zpKkrAABKi/pfZUT927AZxvnYWIKFEUDzu+LMp2dD5jHSUpWAAC0t84+/Si67cJcKZ1FiKihNrkeW7LMR1rN1oHSQIWgADsXlh7nuO5rQBOss5CRJRwf1bXX1CzYv3D1kHijgWgTPmWWa9S31kOwXTrLEREKbEVjl5WvbL7QesgccYCUIZ8c12dQu4BMNU6CxFRyux0gMuzbV1rrYPEFZ8DUKLeprpLFNIGDn8iIguTfWBlX0tdi3WQuGIBKEG+adYiEbkHQI11FiKiFMtB5Vf5+bNfbx0kjlgAxijfVLdYxfk5gCrrLEREhAnq+Mt6mxv4EetjxAIwBn1N9e9QkZ8BmGCdhYiIXjReoP/V11T3XusgccKLAEepr6nhXRC9FSxNRERR5QP6nuq27h9ZB4kDFoBRyDfXv1GBZQAy1lmIiOioPBX9y5rW7jusg0QdC8AI+pobFgB6J7jsT0QUFwMieHOutesu6yBRxgJwFLvnz5rrOM5yADnrLERENCb9Ks7lNa3rOqyDRBULwDAK82c3+I6/ErzVj4gorvK+yGsmtXbebx0kilgAhtA3v/5COGgHH/JDRBR3u0Sdplz7ut9YB4kaFoDD7G6uP8cB7gNwvHUWIiIKgGKbijTWtHU+Yh0lSnhL20F2NtWe5UBXgcOfiCg5BNMFumJPSx0/rv0gXAHYr7Cw7hTfk9UATrPOQkREFfGk48kl2Y7OZ6yDRAFXAAC8sKhhku/hLnD4ExEl2Rm+q8t3NL5ysnWQKEh9AdDa2nETBvA/gLzCOgsREVXc+ePccT/XJTPHWwexluoCoIDkJ7v/Big/TpKIKDWkMb89d7N1CmupLgB9LfXXA3iPdQ4iIgrd+/NN9Z+xDmEptRcB9jY3vF2gP0aK/wyIiFJOofKe6vbO26yDWEjl8OttqrtERFaAz/cnIkq7AVUsqmnvarcOErbUFYDeltkvF/hroJhinYWIiCJhu+/7r560av1j1kHClKoCsLux9lg3465VxQzrLEREFClPAjKnuq1zi3WQsKTmIkCdM6dKXPdODn8iIhrCGYDeqYtrs9ZBwpKKAqCAFLLeDwWYbZ2FiIgiqy5fcP7DOkRYUlEA8k31n1LgCuscREQUdfL2vub6a6xThCHx1wD0NtU3iWA5gIx1FiIiioWiirOgpnVdh3WQSkp0ASgsrDvFL0oPBNOtsxARUaxsdTypTfIHByX2FIAumjHB9+R/OPyJiKgEx/kZ/akumpHY58UktgD0DUz9DoA66xxERBRTioa+wan/bB2jUhJ5CiDf0vBhVf2edQ4iIoo/AT6Ya+tK3N0BiSsAhaZZ9b4494GP+SUiomDsEQfzciu71lsHCVKiCsDu5vppDrAewOnWWYiIKFE2+55XO6mj53nrIEFJzDUA2tiYcYA7wOFPRETBO9XJuLfrkiWudZCgJKYA9GUK/wCgyToHEREllGJhYfuma61jBCURpwDyzXV1ClkDYJx1FiIiSrSiIzIv29q5zjpIuWK/ArC1sbFaIbeDw5+IiCovo6o/2jZ3bo11kHLFvgBkM4V/BXC2dQ4iIkoHBc6qmjj4Tesc5Yr1KYDe5oYrBLrMOgcREaWPQt9e09b939Y5ShXbAlBobDjZd/W3AKZaZyEiolTa6Yp3YVVrz2brIKWI5SkAXQrHd/WH4PAnIiI7kz11b4vrrYGxLACF++o/DWC+dQ4iIkq9S/LbN33COkQpYncKID+/oVYdfQDAeOssREREAAYd9S/Otq/vsg4yFrFaAdja2Fitjv4EHP5ERBQd43xxfqgLL8hZBxmLWBWAnFP4CnjLHxERRc+5+eLEz1uHGIvYnALobZndKOq3I0aZiYgoVXxfdd6k9u4HrIOMRixWAHRxbdaB/2/g8CciouhyHMF3dcnMWJymjkUByBcyX1LFDOscRERERyevKOzIfso6xWhE/oi60Fw/xwdWA4jlfZZERJQ6exVyUU1b5yPWQY4m0isAumjGBF/l++DwJyKi+JjgQL+nS6M9YyMdrrB36t9D9DzrHERERGOhwMV999d9xDrH0UT2FMCuBQ1nu74+BGCidRYiIqIS7HY8mZnt6HzGOshQIrsC4Hp6Mzj8iYgovib5rn7XOsRwIlkA+prr3wNBs3UOIiKiMr22t6XurdYhhhK5UwA7L754Smb8wGMQTLfOQkREFIAtA+KdO7W1Z5d1kINFbgVg3IS9n+fwJyKiBDl+PJyl1iEOF6kVgN6Fs/5CPOf/AGSssxAREQWoCEhtdVvnQ9ZBDojMCoACIkXnO+DwJyKi5MkA+h2N0IF3ZApAvrnuSggutc5BRERUIfP6WuqWWIc4IBJNZNvcuTVVEwcfA3CCdRYiIqIKejqX9c6TO3sK1kEisQIwceLg34PDn4iIku+UQiHzSesQQARWAApNc07yxfsDgKx1FiIiokoToA8Z75zc8p7nLHOYrwD44n8ZHP5ERJQSClRr0f28dQ7TFYB8y6xXqTrrEYEiQkREFCJf1KnLta/7jVUA08GrvvNV6wxEREQGHBX/a6YBrHacn99wOZ/3T0REKTa/r7nuNVY7NysA6uB6q30TERFFg3xZl9rMYpOdFprq3wRovcW+iYiIIuTCvvvq32Kx49ALgALiC4/+iYiIAEAE/6SNjaE/Bj/0AtDXXPdWABeGvV8iIqKIOqfgFt4T9k5DvQ1Qlyxx89s3/Q7Ay8PcLxERUcQ9nRu//Wy5e+PesHYY6gpAfsemK8HhT0REdLhT+gamfCDMHYa2ArD/6P8RAOeEtU8iIqIYCXUVILQVgMILm94HDn8iIqLhnFLYO/V9Ye0slBUAra0dl5/sPgbgjDD2R0REFFOhrQKEsgLQNznzYXD4ExERjeSUwsDU94axo4qvAOiSmePz23MbAZxS6X0RERElwFM5L3u2dHQUK7mTiq8AFHZUvxMc/kRERKN1et7Nv73SO6loAVBAVPUTldwHERFRAn1KK7xKX9EC0N9U/0YA51dyH0RERMkjryi01F9eyT1UtAB4gr+r5PaJiIiSShXXVnL7FSsAvQvqLhVgTqW2T0RElHDzdjfVvbpSG6/cCoDimoptm4iIKAVcqdwsrcgFBrsa58xwXe8xGHzaIBERUYJ4GdFzJrZ2PxH0hisyoF3X/+tKbZuIiChF3KLK/6vEhgNfAdg2d25N1cTBZwBMCnrbREREKdS7d7ycPO3uzt1BbjQT5MYAoGri4IfA4U8VIpOnQE47AzjxZEjNJCCbA4qDwJ490K1boM89A33qSWBwwDoqJcm48ZDTz4CceDJk+vHAxIlAZhxQyEN37wb2/73TXTusk1Iy1Ywf8N8L4NtBbjTQFQBdCqdvdf0fBTgzyO1SiolAzpsJ59JmOBfVQ045beTX7N0L/9EN0HWr4d/XDt3+QuVzUuLI1GPhXNoEmT0PznkzgfHjR3yNPr0Jfk8X/HtboY9uCCElpYUAj2fndZ0jS+EHuM3g5Oc3XK6O3hXkNimlMhk48xfCfcs79h3xl8r34d+/Ct4dt0Mf/0Nw+Six5Oxz4S65Es7cRsAp/VIm3fQEvGU/hn9vK1Cs6CPdKS0Er6lu7Voe3OYC1NdcfyeA1wW5TUof58KL4F718fIG/+FU4d/fgeItNwHPbw1uu5QYMnUa3Pd/DE7TQkCCe2vUPz0N77vfgr9+XWDbpHRS4H9r2rreFNT2Avtb3t9Se6qn7hMA3KC2SSkzfjzc918F9w1LKrYLzffB+9ZX4K9ur9g+KH5k9sXIXHPdvutKKsRvW47iTV8F9u6p2D4o8TxXM2dVtT+wKYiNBXarXlHdj4DDn0o1dRrGffN7FR3+ACC5amQ+/Tm47/tIoEd5FFMicN/3UYy7/ssVHf4A4DRfhnFf/1fI1GMruh9KNLfoFN8X1MYCeQfU2tpx+cnOU4CcGMT2KF3kxJMw7ovfAo5/Waj79VvvRvGbXwL8wK6poThxHGQ+/mk4LYvC3e+WP2Pwur+FPvuncPdLSfFcbqd3mvT0DJa7oUBWAPomZ97A4U8lmTrNZPgDgNOyCJm//xzgcuEqdRwHmU98JvzhDwDHvwzjbrwJOPa48PdNSXBCYbL72iA2FEgBEOD9QWyHUmbCBIz7/NdMhv8Bzrz5yPzdZ8u62ptixnGQ+dT1cJous8tw7HEYd/2XR3VrIdHhfNFATgOU/a5XaJpzEqALgwhD6ZL58N9AzjzbOgacS5u5EpAWB478L222TgKZcQ7cD/6VdQyKIVG5PH9Z7QnlbqfsAuCL/27w4j8aI+eiOjiXv8E6xou4EpACUTjyP4y7+M1wLrzIOgbFT0YHM1eWu5Hy3+0U7y57G5QumQzcq662TnEE59JmZD51PUtAEh0Y/hE48j+ce9XVXH2isRP9YLmbKOudbndLw8UQPa/cEJQuTtNCyMmjeKSvAZ4OSKAILfsPRU47E86lLdYxKH7OLcyf3VDOBsoqAOLz6J/GSATum99hneKoeDogQSK47D8Ud0nZq7mUQir+e8p5fcnvcLpk5ngRfXM5O6f0kfNmBvuI3wrhSkACRPzI/2By+pmQc15uHYNiRgVv0yUzS76VpOQCUNieuxzAtFJfT+kUhzfjA7gSEGMxOfI/WJx+NygyphZ25BaU+uLSVwAU0V7HpUhyass6ZRU6rgTEUIyO/A/m1NZbR6AYUh9/WeprSyoA2+bOrYHwU/9obGTyFMhJp1jHGDOuBMRIDI/8D5BTz4BMOsY6BsWN4I1bGxurS3lpSe9oVRMH3wwgW8prKb3ktDNi+wE8XAmIgZge+b9IBHLq6dYpKH6y2Uzh9aW8sMRDGnlbaa+jVDvhZOsEZeFKQITF+Mj/ECfG+3eEbCi0pJk85ney7S21xwAa04pNluSY+C9vciUgguJ+5H8QOWaydQSKIVG57IVFDWP+POsxF4Dx6iwGwE+woLGbMME6QSC4EhAhSTnyP2DiROsEFE8Txg/4Y/5oyzG/gynkLWN9DREAwPOtEwSGKwERkKAj/xcl6HeEwuXI2GfzmAqALq7NCsBP/qPS7Om3ThAorgQYStqR/wH9BesEFFOqeK0uvCA3lteM6Z2rr5C5HLz6n0qkz2+1jhA4rgQYSOKR/366bYt1BIqvbH9x4pgO0MdUAAT6xrHlIXqJ/ulp6wgVwZWAECX1yH8/ffYZ6wgUY75gTJ+xPup3LF2yxAXwmjEnItpPn3oS2LvHOkZFcCUgBAk+8gcA7N0D3bzJOgXFmeLy/bN6VEZdAPpeeGou+Ox/KkdxEP6jj1inqBiuBFRQwo/8AcDf8DugOGgdg+JMML1/+6ZRP1N61O9UIsJH/1LZdN1q6wgVxZWACkj6kf9+Sf/doHB4GP1j+kd/qKKyuKQ0RAfx72sH/GTf6sSVgACl4MgfAOB58O/vsE5BCSBBF4A9LXVnQvS80iMR7aPbX4B//yrrGBXHlYAApOTIHwD8+9qgO7Zbx6BkuKC/cfbpo/nBURWAQV8uLysO0UG8ZbcDqtYxKo4rAWVIy5E/AKgP744fWaegBPEzOqrbAUf3zuTogrLSEB1EN/4Bfvty6xih4EpACVJ05A8A/opfQ596wjoGJYmObmaPWAC0sTEjKpeWn4joJd73b4b27raOEQquBIxBmo78AejuXfBu/Z51DEoYBVpGczvgiO9IvZn+2QDi/zFuFCm6/QV4X/unVJwKALgSMCopO/KHKorf/BJ05w7rJJQ8k/uff3rWSD80YgEQ9bn8TxXhdz0Ab1l6zn068+Yj88l/5ErAUBwHmb/7bGqO/AHA+68fQtfdbx2DEkpdb8TZPYp3ImEBoIrxbr0Ffuvd1jFC4zS28HTA4Q4M/8YW6ySh8Vf+Gt5t/24dgxJMdeTZfdR3oW1z59YIUBdcJKLD7F8GTctFgcD+EsDTAfscWPZP0/BfvQrFb92YmtNfZGa2Lq496of3HbUAVE0cmAsgE2gkosP5Popf/0K6SsC8+chcuzTdJeDA8E/Rsr+/ehWKNy4FPM86CiXf+PweZ87RfmCkdchLAgxDNDyWgHTh8CeqOPWPPsOPWgAUvP2PQsQSkA4c/kShkBEO4mW4b+icOVX5rLcTwPjAUxEdDQdEcvG/LVGY9uS87BTp6Bjyc9iHXQHoq/LmgMOfLHAlIJk4/InCNrHXLQx7If+wBcARubgyeYhGgSUgWTj8iUy4wLzhvjdsAVDoUa8eJKo4loBk4PAnMuOLNgz3vSELgO67NoD3/5M9loB44/AnMiUqs4f73pAFoHf+rHMATKtYIqKxYAmIJw5/oig4bmdT7VlDfWPIAuC4zrBLBkQmWALihcOfKDIy4gy5CjBkARAVFgCKHpaAeODwJ4qU4Wb6MNcAaH1l4xCViCUg2jj8iSJHZZQFQJfMHA/gFRVPRFQqloBo4vAniii9QGtrxx3+1SMKQH5n9nwAE0LJRFQqloBo4fAnirKJfdPk3MO/eEQBEHUuCicPUZlYAqKBw58o8qTovurwrw1xDYAe8UNEkcUSYIvDnygmjpztRxYAX1gAKF5YAoxCcPgTxYaMUAB0KRyIXhheIqKAsASEvHMOf6J4kVfqYZ8AfEgB2Ht/3ekKVIcbiiggLAEh7ZTDnyiGJvc3Npx08BcOKQCeyvnh5iEKGEtAhXfG4U8UV35GZx7874eeAlDMBFHcsQRUaCcc/kQxd8hB/qEXAQpeHmoUokphCQh44xz+RLF32EH+4XcBcAWAkoMlIKCNcvgTJYEOtwKggAhwXviRiCqIJaDMjXH4EyWFADMPvhPgxQLQv7DuZN4BQInEElDiRjj8iRJmUmHB3BMO/MuLBcArytk2eYhCwBIwxhdz+BMlkecPnnXgn18sAI4jM2ziEIWEJWCUL+LwJ0oqR1+a9S9dA6B61tA/TpQgLAEj/DCHP1GSqaNHrgCIcgWAUoIlYJgf4vAnSjoZcgVAlAWA0oMl4LBvcvgTpcJBs/6lFQDgTJs0REZYAvZ/MY3Dv53Dn9JJcWgB2N1cP423AFIqpb0EpHb4f47Dn9LqmBcWNUwCgAwAOI6eAl+O/hKipNpfAjKOC6exxTpNKJx585HZPwDT8v8ZAPyOVhS/egPg+9ZRiMyM97xTATycAQDxcIpy/lOa+T6KX70BGd9LzdFwmgY/sP/I/2uf5/Cn1HOKOAXAww4A+IJTjPMQ2Uvh6YC04LI/0UEc9xRg/zUAog4LABHAEpBAHP5Eh/J9vFQAIDjZNA1RlLAEJAaHP9GRRPRU4MXbAPVEyzBEkcMSEHsc/kTD0ROAl54DcLxhEqJoYgmILQ5/oqOR4wEWAKKjYwmIHQ5/ohEdBwCijY2ZvFvYi4OeCkhEh0nhA3PiiMOfaFS83NTTJjiFCb3TweFPdHRcCYg8Dn+iUXP7+jZOdeDJy6yTEMUCS0BkcfgTjZHnHu+ousda5yCKDZaAyOHwJyqB5053FP5U6xxEscISEBkc/kQlEn+K40AmW+cgih2WAHMc/kSlc1SmOKpgCVdL6AAAIABJREFUASAqBUuAGQ5/ovIodLID0WOsgxDFFktA6Dj8icqn6kx2RHkKgKgsLAGh4fAnCobj6GRHHZ4CICobS0DFcfgTBUcVUxwoqq2DECUCS0DFcPgTBUuBnANF1joIUWKwBASOw58oeCLIOiqosg5ClCgsAYHh8CeqEEWVI+AKAFHgWALKxuFPVEGCrANwBYCoIlgCSsbhT1RhiioHXAEgqhyWgDHj8CcKRdaBYqJ1CqJEYwkYNQ5/otBUOXCQsU5BlHgsASPi8CcKVcaBsgAQhYIlYFgc/kShcx0ArnUKotRgCTgChz9R+ATIsAAQhY0l4EUc/kQ2lCsAREZYAjj8iWxxBYDITIpLAIc/kTnXsU5ARGkk1gGIUs8BwApOZMFxkPnEZ+A0XWadJHTOvPnIXLsUcLkASWTEYwEgspDi4X8ASwCRqSILAFHYOPxfxBJAZEO4AkAUMg7/I7AEEIVPgaIDQdE6CFEqcPgPiyWAKHSeA58FgKjiOPxHxBJAFKqiA8Ee6xREicbhP2osAUSh6XcAFKxTECUWh/+YsQQQhaLgAOi3TkGUSBz+JWMJIKowQb+jXAEgCh6Hf9lYAogqSFFwRLkCQBQoDv/AsAQQVYig34FwBYAoMBz+gWMJIAqeKgoOBH3WQYgSgcO/YlgCiIIlQN4RlR3WQYhij8O/4lgCiIIjiu2OD91pHYQo1jj8Q8MSQBQMX2SnI8Au6yBEscXhHzqWAKLyCXSnIyJcASAqBYe/GZYAojKp7HB8+CwARGPF4W+OJYCodA50pyPq8CJAorHg8I8MlgCi0ngiOx34utU6CFFscPhHDksAUQl8f6sD1S3WOYhigcM/slgCiMZG1d/i5Kafvg2Abx2GKNI4/COPJYBo1Io1jT3bHVm2zIPiBes0RJHF4R8bLAFEo7JNlsJ39v8LTwMQDYXDP3ZYAohGtAUAWACIhsPhH1ssAURHIdgKHCgAIs+ZhiGKGg7/2GMJIBqG4jngxRUA/2nLLESRwuGfGCwBREdSyGZgfwFQAQsAEcDhn0AsAUSHcmTfQb+z73/2tQGiVOPwTyyWAKKXqOKlAqAqXAGgdHMcZP7us6ka/n5HK/yOVusYoXHmzUfmk/8IOM7IP0yUYApnMwBkAKC4d9zTmQkDtomIrBw48m9ssU4SGn91O4pf+zygiozvpab4OI0tyLguijcuBTzPOg6RiYHxeAYA5MAX8s31vQpU20UiMpDCZX9/dTuKN37upQGYyj+DVSwBlFY7q9u6pgAvPQcACjxul4fIQCoH32HDHwB8H8WvfwF++3K7YCHjNQGUYhsP/MOLBUCgG4f+WaIE4vA/7JssAUTpIC8e7L+0AiDCAkDpwOE/zA+xBBAlnYoOuQLAUwCUfBz+I/wwSwBRkok/xAqArw5XACjZOPxH+SKWAKKk8odaAXA9/NEmDlEIOPzH+GKWAKIkcjPeiwXgxdsAFZB8c/0uADUmqYgqhcO/dKn8s+MtgpRYu3NtXZMFUOCQawCgAB41i0VUCakcYAENf4ArAUQJosCGA8MfOKgA7PdIyHmIKofDP6CNsgQQJcSGg/+FBYCSicM/4I2zBBDFnagMXwBEDm0HRLHE4V+hnbAEEMXcIQf5hxQAx+EKAMUch3+Fd8YSQBRXDpzhVwAmvrprE4DeUBMRBYXDP6SdsgQQxY5gR7Z97Z8O/tKhpwCWwgfwYKihiILA4R/yzlkCiGJF8X+Hf+nwiwAByBE/RBRpHP5GIVgCiOLjyNl+ZAFQnwWA4oPD3zgMSwBRPBw524coAFwBoJjg8I8GlgCiyFP/yNP7RxSAnGY3ANgTSiKiUnH4RwtLAFGU9Vdr7rHDv3hEAZCOjiKAh0OJRFQKDv9oYgkgiij53f7ZfoghLgIEBNpZ+UBEJeDwjzaWAKII8tcO9dUhC4CqwwJA0cPhHw8sAUTRojLkTB+yAHgu1lU2DdEYcfjHC0sAUWS4maFnugz1RQUk31y/FcCxFU1FNBoc/vGVyv92q1C8cWn8/9tRUmytbus6fqhvDHMNABSCrspmIhqFVA6QhAx/gCsBRMYUeGC47w1ZAABAVHkagGxx+CcDSwCRGZHhL+oftgD4cO6vTByiUeDwTxaWACITvqerh/vesAWguuCsA7C3IomIjobDP5lYAojC1l8zcef64b45/CmAtWv7RWXYFxJVBId/srEEEIVpndy9cdgD+WELAAD4ovcGn4doGBz+6cASQBQKFdx3tO8ftQDICC8mCkwqh/+q9A3/A1gCiCpP5agH8UctAIVidg2AI54fTBSo1A7/pekc/gewBBBV0kB1tnjUp/oetQAc19HRp+DzAKiCRJD5+KfTNfw7WlH88vXpHv4HHCgBHa3WSULjzJuPzN9eC8iQz2EjCoZirdzZUzjajxy1AAAABCsDC0R0GPe9H4HTssg6Rmj8jlYUv3oD4PvWUaLD91H86g3pKgELLof77g9Zx6AEE4w8u0csAOr5LABUEU7DXLhLrrSOERp/9SoUv/Z5Dv+hHCgBKTod4L7tXZDZF1vHoKQSXTHSj4xYAGq0uhPArkACEe0nU4+F+4l/SM0yqH9vG5f9R3LgdMC9bdZJwrH/9JdMmWqdhJJGsCM79fTfjPRjIxYA6egoKtARSCii/dwPXAWpqbGOEQp/9Sou+4+W76P4lc+lZiVAJh0D970ftY5BCSNAqyxbNuLRxsjXAOzbHE8DUGDk7HPhzF9oHSMUPPIvQcpWApwFiyBnzrCOQYmio5rZoyoAGXV/VV4Yope4S96ZiqV/HvmXIU0rASL7fieIAuL440Y8/w+MsgBUtT+wCcCGshIRYd+5f2fupdYxKo5H/gFI0UqAM28+rwWgoDy4f2aPaJSnAAAIuApAZXMubQac0f+1iyMe+QcoLSsBrgtnXpN1CkoAhdw52p8d9TuxD2EBoLIl/bYnHvlXQEpWAmROsn83KByuL3eN9mdHXQBqppy6FsDzJSUiAoBx4+GcN9M6RcXwyL+CUrAS4Lz8L4DMOOsYFG9bqy5d1z3aHx51AZBlyzwI7i4tExEgp58BjB9vHaMieOQfgqSvBEyYCDn1dOsUFGeid8lSjPoIZEwnYxXyi7EnItpHTjzZOkJF8Mg/RAlfCZATT7KOQDEmKr8cy8+PqQBUVxXvBpAfUyKi/eTY46wjBI5H/gYSvBIg04+3jkAxJUBftuCOqRmPqQDInT0FUUlm9abKm1hlnSBQPPI3lNSVgKqsdQKKKYXcJWvX9o/lNWO+H0sd/Z+xvoYIAOAm5/Y/HvlHQBJXAhL0O0LhUh37bB7z37b+/nF3Atgz1tcRYe9e6wSB4JF/hCRtJaB/TAdwRAf09/vZMV+kP+YCMH3Nml4A6fngbgqM7or/h0ryyD+CErQSoLvj/ztC4VPgnuM6OvrG+rrS1ptU7ijpdZRuzz1jnaAsPPKPsKSsBDwb798RslLaTC6pAOQy/T8D7wagMdKnngRUrWOUhEf+MRD3lQBV6OanrFNQ/OSr3f5RP/73YCUVAFnxUB58NDCNke7aAf3TZusYY8Yj/xiJ8UqAbnqSpwCoBPLzfTN57Eq+5FR8+XGpr6X08td3WUcYEx75x1BMVwL8nk7rCBRDol7Js7jkApDdPXg3gBdKfT2lk39vfK4f5ZF/jMVwJSBOvxsUEYpt2V1a8l+c0lcAenoGFXwmAI2NPvYIdNMT1jFGxCP/BIjRSoA++Tj0j49Zx6CYEZFl0tMzWOrry3rqhPr6w3JeTymkCu+nP7FOcVQ88k+QmKwEeHf8yDoCxZCo95/lvL6sAjBp1fo1UHm0nG1Q+vgdKyN7tTOP/BMo4isB+tQT8Fe3W8eg+NmQbS/voqrynzvp+GU1EEqhYhHezf9sneII/r1tKH7lczzyT6IDKwFRKwGq8G7+JgsnlUB/UO4Wyi8ARdwKoFj2dihV/AfXw7vr59YxXsRl/xSI4OkA787/gf/Q/1nHoPgpwsPt5W6k7AJQ3dH9ZwhWlLsdSh/vlpugj//BOgaX/dMkQqcD9I+Pwfv3f7WOQTGkwF3VHd1/Lnc7gXz0lEK+H8R2KGUGBlD87KeALc+ZReCRfwpFYSVgy3MoLv0UMDhgl4FiyxEpe/kfCKgAVO8o/hLQZ4PYFqWLbn8eg9ddDWwpu8yOmb/y1zzyT6sDKwGtY/4AtfJteQ6D110N3c7HqFBJnsvuKP46iA0FUgCkp2dQA2oklD767J8weM1HwzsdoArvJ/+J4je/xCP/NPN9FL/xRXj/fVton1Ghf3wMg9dcBX32T6Hsj5JHBbeUc+//wSSIjQBAYWHdKb4nTwJwg9ompcy48XA/cBXc118BSGB/NQ+hu3fB+8YX4Xeuqcj2KZ5k9lxkPn4dZNIxFduH37YcxZu+AuzdW7F9UOIVHU/OyHZ0BvKxkYG+y/Y11/8SwOIgt0np47ziVXA/9nHI6WcGt1FV+O0r4P3Hv0B3bA9uu5QYMukYOH/5XrivfwsggSyOAgD0mU3wvvttPuufyqbAz2vaut4c1PYCLQD5plmLVJxAzk1QyrkunEtb4C65EmUVAc+Dv7od3h0/gj75eGDxKLnkzBlwl7wTzrz5gFv6gqY++Ti8O3607yE/vM6EgqByWXV7Z2B33QVaAHQpnMLq+j8ocFaQ26V0k3PPh3NJE5zaesipZ4x8emBPP/xHHoZ23g9/9Soe8VNJZMpUOPOaILPnwnn5XwATq47+AlXopifh93TCv68d+offhxOUUkEEG7MXd50rSxHYhUuBn2jtban/a1F8O+jtEgGA1EyCnH4m8LITIVOmAhMmAEUP2NMP3bYF+uwz+x4zXOSzqShAmQzk1DMgJ54EmX78vjKQcYG9e/ddzf/nZ6GbnoD29lonpYRS6P+raesO9MERgRcAXVybzRfczQCmBb1tIiKiFNqec/ecKiseyge50eCudNlP7uwpqOC7QW+XiIgojRT6naCHP1CBArBvq5lvA9hTkW0TERGlx17xcHMlNlyRAlCz4oGtAH5ciW0TERGlhQK3BvHc/6FUZgUAgO96XwWCu1qRiIgoZRTifKtSG69YAZi0oudRCO6p1PaJiIiSTIFf1rSuq9j9pBUrAACgPr5eye0TEREllaKyM7QyD1w/SF9zQyeg9ZXeDxERUYJ0V7d1VXR2VnQFAAAgWrHzF0REREmkiq9Weh8VLwC5YvYOAJsrvR8iIqIkUOCJ6mmn/azS+6l4AZCOjqKKfrnS+yEiIkoCR+RGWbas4p8gVflTAACqd/j/DuDJMPZFREQUY5uzU/puDWNHoRQA6ekZFOALYeyLiIgorgT4oizbMBDGvkIpAACQnXrarQAeC2t/REREMfN0dmr+B2HtLLQCsO98hv5TWPsjIiKKE9Hwjv6BEAsAAOSmnv4TAI+EuU8iIqIY2JydsD20o38g5AIgy5Z5Kvq5MPdJREQUeSpL5e6Ne8PcZagFAACqW7uXAXgw7P0SERFF1B9yftVtYe809AIggIrI0rD3S0REFEUqcp10dBTD3m/FPwtgOPyMACIiSj1BT661q04ADXvXoa8AvMS/3m7fREREEeDLdRbDHzAsANVt3fcAWG61fyIiIlvSWt3eucJq74YrAIBCrgEQ+nkPIiIiY0X1/astA5gWgJq2zkcE+j3LDERERKET/U7Nqu4NlhFMCwAADO6d8I8AXrDOQUREFJLtvor5k3HNC8Dk++/fodAbrHMQERGFQUX/YVJbl/mBr3kBAIBqL/evUDxsnYOIiKjCHqku5v7NOgQQkQIgHR1FuGp6MQQREVHFqXzc4qE/Q4lEAQCA6pXdbQB+ZZ2DiIioEhT4ueVtf4eLTAEAgKJ6VwMI9cMQiIiIQjDgO3KtdYiDRaoATG7veRyQ71jnICIiCpTKN45Z2flH6xgHi1QBAIABKX4ewBbrHERERAF5bu8EfMk6xOEiVwCmtvbsUggvCCQiokRQkb+ednfnbuschzP7NMCR9DbX/68Ab7DOQUREVIZfVbd1LbYOMZTIrQAc4DjjPgZgl3UOIiKiEu12PLnKOsRwIlsAcivXPKuQz1jnICIiKoUAn8p2dD5jnWM4kS0AAFA9r/NmAe63zkFERDRG92Xbum6xDnE0kS4AshS+5/sfBLDHOgsREdEo7VVxPiqAWgc5mkgXAACYtGr9YwKJ3O0TREREQxHghprWdb+3zjGSyBcAAMhO7fsyPyyIiIiiT3+X3el91TrFaMSiAMiyDQMO/A8A8KyzEBERDcN3IB+Rnp5B6yCjEYsCAADZ9vVdgPyLdQ4iIqJh/HO2rWutdYjRik0BAICc238dgMescxARER3m97ms94/WIcYiVgVAVjyUF3X+EsCAdRYiIqL9BgX6Hrmzp2AdZCxiVQAAINe+7jeALLXOQUREBABQuS7X1t1tHWOsYlcAACA3r/NGAO3WOYiIKOUU9+Yu6fyGdYxSRPbDgEZSaGw42Xf1twCmWmchIqIUEuxw4b2yqrVns3WUUsRyBQAAsh2dz6joh6xzEBFROin0o3Ed/kCMCwAA1LR2/wyQW61zEBFRuqjKv9W0dt9hnaMcsS4AAJBz+/8KwB+scxARUTqIYOOevZlPWOcoV+wLgKx4KC8OrgQQiycvERFRrBXFc945fc2aXusg5Yp9AQCA3Mqu9QL5J+scRESUcKL/mF21rtM6RhASUQAAIDv11C8A0mqdg4iIEuue3MXdX7EOEZTY3gY4lF2XzZnqFr31AM6wzkJERImyyfe8WZM6ep63DhKUxKwAAMAxy9duh6NvBtBvnYWIiBJjj/jyliQNfyBhBQAAqld2PwiVj1jnICKihFD5WG5VZ491jKAlrgAAQHV7520KvcU6BxERxZsIvlPd3vkD6xyVkMgCAADVO/2/EpU11jmIiCieFFiXnZKP/f3+w0lsAZCenkGMKy4B8Jx1FiIiip0trrpXyLINif34+cQWAADILe95TiFXAihaZyEiotgoqqNvy7av/ZN1kEpKdAEAgJq2zlVQ+bR1DiIiigv5ZM3K7nutU1Raop4DMBwFJN9U/18QvNU6CxERRZjix9XtXVdaxwhD4lcAAEAAzfW771VgrXUWIiKKKunK5bzUfMx8KgoAAMjatf3qea8XwUbrLEREFC0KPKGuu1ju7ClYZwlLKk4BHGxX45wZruutBXCsdRYiIoqEF3zfnztp1frHrIOEKTUrAAcc07F2ow+8GcBe6yxERGRuQCFL0jb8gRQWAACY1Na1WqHvAaDWWYiIyIwC+oGats5V1kEspLIAAEBNW/d/C/R66xxERGRE9Lrqtu4fWcewkrprAA7X21J/syg+ap2DiIhC9R/VbV0ftA5hKbUrAAdU7/D+BtCV1jmIiCg0y3NeNvUHfqkvANLTM7h3vHMFgIessxARUcVtGBDvbdLRkfpHxKf+FMABhaY5J3ni3SfAmdZZiIgoeAI8DmfcJbmVa561zhIFLAAH6W+pPdVT9z4Ap1lnISKiQD3jurikakXXk9ZBoiL1pwAOVtXas9lzZAGAP1tnISKigCi2qTgLOfwPxRWAIfQ1N1wA6CoAU62zEBFRWXaK+E251vX/Zx0kargCMITqts6HHN+5HECvdRYiIirZboEu5PAfGgvAMLKr1nX6vr8IQN46CxERjVm/Ovr6XFt3t3WQqGIBOIpJq9avAeRN4OcGEBHFyYD4ckXNyu57rYNEGQvACKrbOlcK8HYAqb9nlIgoBjxVvDO3qvPX1kGijgVgFHJtXf8L6PsA+NZZiIhoWD6g76lp71pmHSQOWABGqbqt+0cKuRLAoHUWIiI6ggfg/dVt3bdbB4kL3gY4RvmmusUqcgeAidZZiIgIADCgou+oae3+mXWQOGEBKEFvc8N8B/pLBaqtsxARpVwBgjdXt3Yttw4SNywAJdrdXD/PAX4FYJJ1FiKiNBKgz1e8oaa9q906SxyxAJQhP7+hVh1dDmCadRYiolQR7HAgl2dbO9dZR4krFoAy9c6vmymOrARwgnUWIqKU2AIfl1Wv6vqtdZA4YwEIwO75s851HKcVwMnWWYiIEu459XVBzaruDdZB4o63AQZg0qr1j7mauVgEG62zEBEl2FNF9eZx+AeDBSAgVe0PbJKizIfiYessREQJ9JA44+ZObu953DpIUrAABCjb0flMwc/OgYCPoCQiCoyuHBDvktzKNc9aJ0kSXgNQAdrYmOnLFG4SxUetsxARxdz3czu9j0pPD5/CGjAWgArqa274W0C/Aa60EBGNlarghprWrqXWQZKKBaDCepsbrhDobeCjg4mIRmsvBO+vbu36sXWQJGMBCEGhuX6Or/gFBNOtsxARRdx2VX1TTXv3fdZBko4FICQ7m2rPyoj7awDnWGchIooiBZ5Q37980qr1j1lnSQOemw7J5Paex33g1QBWW2chIooaBdbBzczh8A8PC0CIJrV1vZAruJcB+l/WWYiIIkPx42ovO79mxQNbraOkCU8BGMm3NHxYVb8DYJx1FiIiI0Uo/qG6vetG6yBpxAJgaP9HCt8B4GXWWYiIQqXYpsDb+VG+dlgAjBWa5pzkibdMgDnWWYiIQrLeFe8tVa09m62DpBmvATCWbV/7p2ovewkEXAIjosRT6C25qfm5HP72uAIQIX3Nde8E5HsAstZZiIgCtkdE/l+utfP71kFoHxaAiOlbUPdK+PIzAGdYZyEiCshmgV6Ra+vutg5CL+EpgIipXtn9oA/UAVhunYWIKAD3eBn3VRz+0cMCEEGT2rpeyE097bUCfAYAPwGLiOJoEKKfzs3reu0xy9dutw5DR+IpgIjLL6ifpT5uBx8hTETx8aQDXJlt61prHYSGxxWAiMut7FqfK7ivBOTb1lmIiEYkuK3gZS/g8I8+rgDESG9L3ZtF5RYA06yzEBEdZqdCrqpp6+SjzmOCBSBm+hrrXgZXfgDgNdZZiIj2a3fUfXe2fe2frIPQ6LEAxJACkm9u+BtAvwJgvHUeIkqtQRV8sfrirhtkKXzrMDQ2LAAx1rtw1l+IJz8G5BXWWYgoZVQeFciVufZ1v7GOQqXhRYAxVrNi/cO5rD8bov8MwLPOQ0Sp4EHxzVyuWMvhH29cAUiIfMusV6nKvwNykXUWIkoq/Z3jux/KrlrXaZ2EyscVgITIta7/v5yXa4Di7wHssc5DRIkyCMGNuamFWRz+ycEVgATa1Thnhut6twCYb52FiOJNVNb4jnyopnXd762zULBYABJKAcm31L8Lim8CmGqdh4hiZxcg1+fmdd7EK/yTiQUg4fKX1Z6AonOTQt5inYWIYuNXjqsfy67ofto6CFUOC0BK9LbUvVVUvg3geOssRBRZzynkb2raOn9qHYQqjxcBpkRNa/cdA+KdC8GNAAas8xBRpAwC8u294+U8Dv/04ApACu2eP+tcx3G+BeAy6yxEZO5XRfWuntze87h1EAoXC0CK5ZvqFqvITQBOs85CRCFTeVTgXZNrX3+3dRSywVMAKZZr774zl/XO3//sgN3WeYgoFNsBuTrnV72Cwz/duAJAAPbdLeAXnaUC+QAA1zoPEQWuqNDvq+d/ZlJHz/PWYcgeCwAdordl9ssF/teguNw6CxEFRNGmGf/qmhXrH7aOQtHBAkBD6mupvwyqX+RnCxDF2nqofKa6vXOFdRCKHhYAGpYCUmiqe50KvsCPHCaKEZVHFfrZ6vaunwqg1nEomngRIA1LAM21d9+Z83IXCfBBAHwqGFG0bYbK+3PTTv2LmvauZRz+dDRcAaBR0yUzx+d35N6uiusFONM6DxG96GlAvp7zqr4nHR38NFAaFRYAGrMDRUAUn1XgLOs8RCm2GZBvcPBTKVgAqGS6ZOb4wgu596vgWgCnW+chSgsFnnBEbsxO6btVlm3go72pJCwAVDZdCqdwX91rVeSzAGZZ5yFKLv0NRL6VK2Z/LB0dRes0FG8sABSo3S0NFzuq1wJ4nXUWooRQQNpE/W/n2rvvtA5DycECQBWxu6nu1a7gGoW8EXyyIFEp9qjKbZopfmPSip5HrcNQ8rAAUEX1N84+3cv4H4XiQwCmWuchioFdgPynOJkbcyvXPGsdhpKLBYBCsW3u3JqJEwfe54j8tSpmWOchihoRbPRVv1md9W+VO3sK1nko+VgAKFS6FE7+/romgXxYFW8CkLHORGTIB6RdVW+pnnbaz2TZMs86EKUHCwCZyV9We4IOuu+G4GMATrXOQxSi5yD4oetnbq5qf2CTdRhKJxYAMqeNjZmCW3idAu8HsAhcFaBkGlTRux04388Wq+7ibXxkjQWAIqWvse5lcJ23Afo+ABda5yEqm8qjgN4KkVur2zq3WMchOoAFgCKr0NIwW319twqWADjWOg/RqCm2icgy8eWH2VXrOq3jEA2FBYAiT5cscfM7npoPyLuheCOAGutMREPoF8Gv4Ott2V3+PdLTM2gdiOhoWAAoVnThBbm8P/ENqnirAJcBmGidiVKtX4Hlorgjl/N+wdv3KE5YACi2dM6cqkJVsUUdWcKVAQpRP4A2CJbtHSf/O+3uzt3WgYhKwQJAiaBz5lT1V3mv8QVvgOJyCKZbZ6JE2QrIrwX6i2zBXS5r1/ZbByIqFwsAJY4uhVO4t+FVvquLBXgdFBeBf9dp7B6B4E5AW3PFXAdv26Ok4ZsiJV5/S+2pPjKvgfoLVaQJiinWmSiStougDdCV4uCe7Irup60DEVUSCwClii5Z4vY///Qsdb0FqrIAwBwA46xzkYkBKNYKsFLgr6yadkYPH8VLacICQKmmi2uzvf2Zixxf50KkBdC5AKqsc1FFDELwEIBW8XXNngnOvbyAj9KMBYDoILpoxoTegan1LjBPgdkAGgAcZ52LSrJFRTtFnXW+YHXNlL4uWbZhwDoUUVSwABCNYGdT7VkZcWaLSoOKNAB6Afj8gajph+AhqHRCtDMDXTextfsJ61BEUcYCQDTHjmmrAAABZElEQVRG2tiY6ZP8uRA5Hw5miqIWigbeehia3aLyOxX0iGCDBzxSM+6Fbrl7417rYERxwgJAFJCdF188xZk4ONMFzlfFTADnQ/VCFoOS7YbgjwAegY8NAn3EdbBhQmv3kwKodTiiuGMBIKqw/IK5J/rewAzHcWb4qmeJYgZEZwByFoBjrPMZ2wnB41DZqNDHRWWjL7rRzXgbc8t7nrMOR5RkLABEhl5Y1DBp/B7/FAfOaXBxsu/jFBE9FYKXQfUEQKYDmA7Atc46Rh6AbQC2QvBnKP6skE2O4Bn43tO+yuY9A+M3T1+zptc6KFFasQAQRZwC0rfw1dOBgePgudMh/hRHZYpCJ6s6kx3xpyhksqhUqWASoBMgyMKXnIqOF+AYCJyDNjgRR97q2A/BnoN+xldgl6gMwNE8FAVA9opit4r2i2CH78tOEX+niLPDh78T6uyA72/FuHHbqlc8sI3L9ETR9v8BCBrLJ5MXMaYAAAAASUVORK5CYII=" vertex="1" parent="1">
                    <mxGeometry x="311" y="685" width="20" height="20" as="geometry"/>
                </mxCell>
                <mxCell id="77" value="&lt;span&gt;GRR-URL&lt;/span&gt;" style="text;html=1;strokeColor=none;fillColor=none;align=left;verticalAlign=middle;whiteSpace=wrap;rounded=0;labelBackgroundColor=none;fontSize=12;fontColor=#6E6E6E;fontStyle=0" vertex="1" parent="1">
                    <mxGeometry x="690" y="678" width="60" height="30" as="geometry"/>
                </mxCell>
                <mxCell id="78" value="" style="shape=image;verticalLabelPosition=bottom;verticalAlign=top;imageAspect=0;aspect=fixed;image=data:image/png,iVBORw0KGgoAAAANSUhEUgAAAgAAAAIACAYAAAD0eNT6AAAABHNCSVQICAgIfAhkiAAAAAlwSFlzAAALEwAACxMBAJqcGAAAABl0RVh0U29mdHdhcmUAd3d3Lmlua3NjYXBlLm9yZ5vuPBoAACAASURBVHic7d15fF11mT/wz3PO7ZJ7k9KFguxbWaQjKGmS1lJIk7RYtK7UZXDf8TcLoiMjzkjFccF1FGdQZkYZEZ2hjo4iQtskDZTSJmkcRIqgZWlBsC10S+5Nm9xznt8fbaFL0iT3nnues3zef/iCJPecj6W5z+d8z3IFRBRp2tiYKUzona7FzHQAx6vqZMeRKao6GdDJojJZHUxWaE7UySo0J4LxAhyjCheCyYduENUAxh22m0EI+g77uZ0AihDsVsWAQPIqfkEgefGxU0V3ArJTRHb6vu4QkZ0AtkimuC076cytsmyZV8E/FiIqk1gHIEqzXZfNmeoW/ZMFeqoPPVWAkyFyMhQnQXEcBMcBmI74/a4qgG1QbAWwBQ6eVcXTEH3GUXlaIZu9jPPMMcvXbrcOSpRWcXtTIYoVBaR/Yd3JnufMcMSfoSozRGWGip4FYAaAnHVGSwL0KfC4QDeqyEbxsdF3nI2u4z1etaL7GdlXJIioAlgAiAKSXzD3RNWB86HOTIV/vqPOTBW9AECNdbaY2gvgcRFs8IFH4GMDVB+pvrT797IUvnU4orhjASAaI21szPRJ/lxxpRYqtQDOB/QiAFOts6WBAH1Q+a0v/gaB84gv6KkpVq2Xjo491tmI4oQFgOgoFJDe5vqzHZUGEb9BIQ0AXgFggnU2OsReAA8JtEvV6fRcrDtmZecfrUMRRRkLANFBdHFtti/vznaAeSrSAGgDeGQfVy9A0Ckqnb7IfdV56ZS1a/utQxFFBQsApZouvCCX9yfMUcjFojIX0Hng0X1SFSH4LYBW8XXNgD+4ekrHgzutQxFZYQGgVNHGxkxvpn+2qL8AkAUC1AHIWOciE0VR6QR0pQddWePnuqSjo2gdiigsLACUeDubas9yJfMaQBcIMB/AJOtMFEm7FFgF6MqMK3dXreh60joQUSWxAFDi6JIlbuH5za/0XV0swOugqLXORPGjwBMC+RXEvzO3w79XenoGrTMRBYkFgBJBF16Q6/OqFgn0jQBeA2CadSZKlBcAuVuBX1Rni7+WO3sK1oGIysUCQLGli2uzhbzTrI4sEcWbFKi2zkSpsAdAKwTLBuD9Ymprzy7rQESlYAGgWNk2d25NVdXgm6B4K4AW8Ip9srUXwEqo3FHwq35+XEdH34ivIIoIFgCKPF0yc3zhhexlPNKniNsDoFUVP6yelv+FLNswYB2I6GhYACiSFJDeloa54uPd4ugVUEyxzkQ0BtsV+lP19YeTVq1fYx2GaCgsABQp+ctqT9Bi5q2A/wFAXmGdhygAf1DBTzJ+5gdV7Q9ssg5DdAALAJnTJTPH922vfr2Ivg+KywC41pmIKsADcI+K/KB6R/GXvK2QrLEAkJn8grknqjf4Lgj+CsDJ1nmIQrQFglvdovPdqo51T1mHoXRiAaBQ6VI4+fvrmgTyYVW8CXwML6WbD0i7qt5SPe20n8myZZ51IEoPFgAKxQuLGiZNGNQPqOKvBDjTOg9R1AjwuC/4VrWz5/uy4qG8dR5KPhYAqqg9LXVnFiEfhuIjACZb5yGKgd2A3Op4+Gq2o/MZ6zCUXCwAVBG9C+ouheIaUXkdAMc6D1EM7QVwu/r6jZpV3Rusw1DysABQYBSQQlPd63yRvxfg1dZ5iJJCVNYA/o3Z9u5fCaDWeSgZWACobFpbOy4/xX0HFNcCON86D1GC/RaCb+R2eD/hbYRULhYAKtm++/ezHxTIp8Hb+IjCtFlFv1w9pfAffOQwlYoFgMbswBG/KD6rwFnWeYhSbLOIfCFbrPq+dHQUrcNQvLAA0KjpUjh999W/RQRfAHC2dR4ietFTIvKl7JRT/4PPEqDRYgGgER24uE9FPg/gQus8RDSs30Pw5dyU025nEaCRsADQUfW11LVAcSMgF1lnIaJR26CKz1W3d/2Udw3QcFgAaEj5+Q2Xq6s3QFFrnYWIStYN6Ger27rvsQ5C0cMCQIfIN82+SMX7OiCN1lmIKDCrALm6uq3zIesgFB0sAAQAKDTNOcmT4mcF8gHw43iJksiH4HZ1Mp+sWfHAVuswZI8FIOW2zZ1bM7Fq8FpRfBxA1joPEVXcdoV+rtrL/StvHUw3FoAUyzfVLVaRfwFwinUWIgrdH0RwTa616y7rIGSDBSCF+ubXXwgHNwGYZ52FiKxJq/r+1fzAofRhAUiRHY2vnDzOnfA5QD8GIGOdh4giYxCQmwe9vddP6Xhwp3UYCgcLQAooIPmW+nfBx9cgmG6dh4gia4tCrq5p6/wv6yBUeSwACbezqfasjDg3A7LAOgsRxYTg1y68q6paezZbR6HKYQFIKK2tHZc/xr0GgqUAJlrnIaLYKUBxQ27aaV/jY4WTiQUggXbPnzXXEfffIXqedRYiijdRWeM78qGa1nW/t85CwWIBSBCdM6cqn/Ouh+KT4MN8iCg4gxB8Izdu+/Vy98a91mEoGCwACbF7/qy5juN8H8A51lmIKKEUDzuOfCjb2rnOOgqVjwUg5rY2Nlbn3P4bFXoV+N+TiCrPB+Q7Obf/OlnxUN46DJWOAyPG8gvqZ6mP28GjfiIK35O+6jsntXc/YB2ESsMCEEMKSL654W8A/QqA8dZ5iCi1iir4QvWU0z7POwXihwUgZgoL607xi3IbBJdaZyEiAgAF1o4TfefE1u4nrLPQ6DnWAWj0epsbrvA9eZDDn4iiRIA5RZXf9DXXXWmdhUaPKwAxsG3u3JqJEwe+JpAPW2chIjoaESwbKA58mJ8pEH0sABFXaJpVr45zuypmWGchIhqlp3yRd01q7bzfOggNjwUgorSxMdOXKfyDKD4DfnIfEcVPUaA3ZKee/kVeIBhNLAARtLux9ljHzfwE0BbrLEREZVHcC5G3Vbd1brGOQodiAYiYfNPsi1T8/wFwunUWIqKAPOP4zhXZVes6rYPQS3gXQIT0tdS/W8W/Hxz+RJQsJ/uOf2++pe5D1kHoJVwBiABdNGNC395pN4kofzmIKNkEt+Xy7kdk7dp+6yhpxwJgrNDYcLKf0Z9C0WCdhYgoHPob13PfUtWx7inrJGnGAmCod0HdpeLLfwM43joLEVHInofoO6pbu1utg6QVrwEwoID0NTf8rfiyEhz+RJROx0Llnr6m+muVB6Mm+IceMl1cmy0U3P9U4ArrLEREkaC4I9fvvpfXBYSLBSBEuxtrj3WdzP+q6FzrLERE0SJdAF7P5wWEhwUgJLsWNJzt+noXgLOtsxARRdSTKs5ra1rX/d46SBrwGoAQ7J4/a67r6wPg8CciOpozBP6a3pbZjdZB0oAFoMJ6m+ve5jhOK4BjrbMQEUWeYoqov7yvue6d1lGSjgWgQhSQ3pb6pQL5CYCJ1nmIiGJkPCA/7G2pX8o7BCqHf7AVoEtmjs9vz/0bgHdbZyEiije5Nbez+GHp6Rm0TpI0LAAB29H4ysnj3PE/AzDfOgsRUSIo2gb9gSumdDy40zpKkrAABKi/pfZUT927AZxvnYWIKFEUDzu+LMp2dD5jHSUpWAAC0t84+/Si67cJcKZ1FiKihNrkeW7LMR1rN1oHSQIWgADsXlh7nuO5rQBOss5CRJRwf1bXX1CzYv3D1kHijgWgTPmWWa9S31kOwXTrLEREKbEVjl5WvbL7QesgccYCUIZ8c12dQu4BMNU6CxFRyux0gMuzbV1rrYPEFZ8DUKLeprpLFNIGDn8iIguTfWBlX0tdi3WQuGIBKEG+adYiEbkHQI11FiKiFMtB5Vf5+bNfbx0kjlgAxijfVLdYxfk5gCrrLEREhAnq+Mt6mxv4EetjxAIwBn1N9e9QkZ8BmGCdhYiIXjReoP/V11T3XusgccKLAEepr6nhXRC9FSxNRERR5QP6nuq27h9ZB4kDFoBRyDfXv1GBZQAy1lmIiOioPBX9y5rW7jusg0QdC8AI+pobFgB6J7jsT0QUFwMieHOutesu6yBRxgJwFLvnz5rrOM5yADnrLERENCb9Ks7lNa3rOqyDRBULwDAK82c3+I6/ErzVj4gorvK+yGsmtXbebx0kilgAhtA3v/5COGgHH/JDRBR3u0Sdplz7ut9YB4kaFoDD7G6uP8cB7gNwvHUWIiIKgGKbijTWtHU+Yh0lSnhL20F2NtWe5UBXgcOfiCg5BNMFumJPSx0/rv0gXAHYr7Cw7hTfk9UATrPOQkREFfGk48kl2Y7OZ6yDRAFXAAC8sKhhku/hLnD4ExEl2Rm+q8t3NL5ysnWQKEh9AdDa2nETBvA/gLzCOgsREVXc+ePccT/XJTPHWwexluoCoIDkJ7v/Big/TpKIKDWkMb89d7N1CmupLgB9LfXXA3iPdQ4iIgrd+/NN9Z+xDmEptRcB9jY3vF2gP0aK/wyIiFJOofKe6vbO26yDWEjl8OttqrtERFaAz/cnIkq7AVUsqmnvarcOErbUFYDeltkvF/hroJhinYWIiCJhu+/7r560av1j1kHClKoCsLux9lg3465VxQzrLEREFClPAjKnuq1zi3WQsKTmIkCdM6dKXPdODn8iIhrCGYDeqYtrs9ZBwpKKAqCAFLLeDwWYbZ2FiIgiqy5fcP7DOkRYUlEA8k31n1LgCuscREQUdfL2vub6a6xThCHx1wD0NtU3iWA5gIx1FiIiioWiirOgpnVdh3WQSkp0ASgsrDvFL0oPBNOtsxARUaxsdTypTfIHByX2FIAumjHB9+R/OPyJiKgEx/kZ/akumpHY58UktgD0DUz9DoA66xxERBRTioa+wan/bB2jUhJ5CiDf0vBhVf2edQ4iIoo/AT6Ya+tK3N0BiSsAhaZZ9b4494GP+SUiomDsEQfzciu71lsHCVKiCsDu5vppDrAewOnWWYiIKFE2+55XO6mj53nrIEFJzDUA2tiYcYA7wOFPRETBO9XJuLfrkiWudZCgJKYA9GUK/wCgyToHEREllGJhYfuma61jBCURpwDyzXV1ClkDYJx1FiIiSrSiIzIv29q5zjpIuWK/ArC1sbFaIbeDw5+IiCovo6o/2jZ3bo11kHLFvgBkM4V/BXC2dQ4iIkoHBc6qmjj4Tesc5Yr1KYDe5oYrBLrMOgcREaWPQt9e09b939Y5ShXbAlBobDjZd/W3AKZaZyEiolTa6Yp3YVVrz2brIKWI5SkAXQrHd/WH4PAnIiI7kz11b4vrrYGxLACF++o/DWC+dQ4iIkq9S/LbN33COkQpYncKID+/oVYdfQDAeOssREREAAYd9S/Otq/vsg4yFrFaAdja2Fitjv4EHP5ERBQd43xxfqgLL8hZBxmLWBWAnFP4CnjLHxERRc+5+eLEz1uHGIvYnALobZndKOq3I0aZiYgoVXxfdd6k9u4HrIOMRixWAHRxbdaB/2/g8CciouhyHMF3dcnMWJymjkUByBcyX1LFDOscRERERyevKOzIfso6xWhE/oi60Fw/xwdWA4jlfZZERJQ6exVyUU1b5yPWQY4m0isAumjGBF/l++DwJyKi+JjgQL+nS6M9YyMdrrB36t9D9DzrHERERGOhwMV999d9xDrH0UT2FMCuBQ1nu74+BGCidRYiIqIS7HY8mZnt6HzGOshQIrsC4Hp6Mzj8iYgovib5rn7XOsRwIlkA+prr3wNBs3UOIiKiMr22t6XurdYhhhK5UwA7L754Smb8wGMQTLfOQkREFIAtA+KdO7W1Z5d1kINFbgVg3IS9n+fwJyKiBDl+PJyl1iEOF6kVgN6Fs/5CPOf/AGSssxAREQWoCEhtdVvnQ9ZBDojMCoACIkXnO+DwJyKi5MkA+h2N0IF3ZApAvrnuSggutc5BRERUIfP6WuqWWIc4IBJNZNvcuTVVEwcfA3CCdRYiIqIKejqX9c6TO3sK1kEisQIwceLg34PDn4iIku+UQiHzSesQQARWAApNc07yxfsDgKx1FiIiokoToA8Z75zc8p7nLHOYrwD44n8ZHP5ERJQSClRr0f28dQ7TFYB8y6xXqTrrEYEiQkREFCJf1KnLta/7jVUA08GrvvNV6wxEREQGHBX/a6YBrHacn99wOZ/3T0REKTa/r7nuNVY7NysA6uB6q30TERFFg3xZl9rMYpOdFprq3wRovcW+iYiIIuTCvvvq32Kx49ALgALiC4/+iYiIAEAE/6SNjaE/Bj/0AtDXXPdWABeGvV8iIqKIOqfgFt4T9k5DvQ1Qlyxx89s3/Q7Ay8PcLxERUcQ9nRu//Wy5e+PesHYY6gpAfsemK8HhT0REdLhT+gamfCDMHYa2ArD/6P8RAOeEtU8iIqIYCXUVILQVgMILm94HDn8iIqLhnFLYO/V9Ye0slBUAra0dl5/sPgbgjDD2R0REFFOhrQKEsgLQNznzYXD4ExERjeSUwsDU94axo4qvAOiSmePz23MbAZxS6X0RERElwFM5L3u2dHQUK7mTiq8AFHZUvxMc/kRERKN1et7Nv73SO6loAVBAVPUTldwHERFRAn1KK7xKX9EC0N9U/0YA51dyH0RERMkjryi01F9eyT1UtAB4gr+r5PaJiIiSShXXVnL7FSsAvQvqLhVgTqW2T0RElHDzdjfVvbpSG6/cCoDimoptm4iIKAVcqdwsrcgFBrsa58xwXe8xGHzaIBERUYJ4GdFzJrZ2PxH0hisyoF3X/+tKbZuIiChF3KLK/6vEhgNfAdg2d25N1cTBZwBMCnrbREREKdS7d7ycPO3uzt1BbjQT5MYAoGri4IfA4U8VIpOnQE47AzjxZEjNJCCbA4qDwJ490K1boM89A33qSWBwwDoqJcm48ZDTz4CceDJk+vHAxIlAZhxQyEN37wb2/73TXTusk1Iy1Ywf8N8L4NtBbjTQFQBdCqdvdf0fBTgzyO1SiolAzpsJ59JmOBfVQ045beTX7N0L/9EN0HWr4d/XDt3+QuVzUuLI1GPhXNoEmT0PznkzgfHjR3yNPr0Jfk8X/HtboY9uCCElpYUAj2fndZ0jS+EHuM3g5Oc3XK6O3hXkNimlMhk48xfCfcs79h3xl8r34d+/Ct4dt0Mf/0Nw+Six5Oxz4S65Es7cRsAp/VIm3fQEvGU/hn9vK1Cs6CPdKS0Er6lu7Voe3OYC1NdcfyeA1wW5TUof58KL4F718fIG/+FU4d/fgeItNwHPbw1uu5QYMnUa3Pd/DE7TQkCCe2vUPz0N77vfgr9+XWDbpHRS4H9r2rreFNT2Avtb3t9Se6qn7hMA3KC2SSkzfjzc918F9w1LKrYLzffB+9ZX4K9ur9g+KH5k9sXIXHPdvutKKsRvW47iTV8F9u6p2D4o8TxXM2dVtT+wKYiNBXarXlHdj4DDn0o1dRrGffN7FR3+ACC5amQ+/Tm47/tIoEd5FFMicN/3UYy7/ssVHf4A4DRfhnFf/1fI1GMruh9KNLfoFN8X1MYCeQfU2tpx+cnOU4CcGMT2KF3kxJMw7ovfAo5/Waj79VvvRvGbXwL8wK6poThxHGQ+/mk4LYvC3e+WP2Pwur+FPvuncPdLSfFcbqd3mvT0DJa7oUBWAPomZ97A4U8lmTrNZPgDgNOyCJm//xzgcuEqdRwHmU98JvzhDwDHvwzjbrwJOPa48PdNSXBCYbL72iA2FEgBEOD9QWyHUmbCBIz7/NdMhv8Bzrz5yPzdZ8u62ptixnGQ+dT1cJous8tw7HEYd/2XR3VrIdHhfNFATgOU/a5XaJpzEqALgwhD6ZL58N9AzjzbOgacS5u5EpAWB478L222TgKZcQ7cD/6VdQyKIVG5PH9Z7QnlbqfsAuCL/27w4j8aI+eiOjiXv8E6xou4EpACUTjyP4y7+M1wLrzIOgbFT0YHM1eWu5Hy3+0U7y57G5QumQzcq662TnEE59JmZD51PUtAEh0Y/hE48j+ce9XVXH2isRP9YLmbKOudbndLw8UQPa/cEJQuTtNCyMmjeKSvAZ4OSKAILfsPRU47E86lLdYxKH7OLcyf3VDOBsoqAOLz6J/GSATum99hneKoeDogQSK47D8Ud0nZq7mUQir+e8p5fcnvcLpk5ngRfXM5O6f0kfNmBvuI3wrhSkACRPzI/2By+pmQc15uHYNiRgVv0yUzS76VpOQCUNieuxzAtFJfT+kUhzfjA7gSEGMxOfI/WJx+NygyphZ25BaU+uLSVwAU0V7HpUhyass6ZRU6rgTEUIyO/A/m1NZbR6AYUh9/WeprSyoA2+bOrYHwU/9obGTyFMhJp1jHGDOuBMRIDI/8D5BTz4BMOsY6BsWN4I1bGxurS3lpSe9oVRMH3wwgW8prKb3ktDNi+wE8XAmIgZge+b9IBHLq6dYpKH6y2Uzh9aW8sMRDGnlbaa+jVDvhZOsEZeFKQITF+Mj/ECfG+3eEbCi0pJk85ney7S21xwAa04pNluSY+C9vciUgguJ+5H8QOWaydQSKIVG57IVFDWP+POsxF4Dx6iwGwE+woLGbMME6QSC4EhAhSTnyP2DiROsEFE8Txg/4Y/5oyzG/gynkLWN9DREAwPOtEwSGKwERkKAj/xcl6HeEwuXI2GfzmAqALq7NCsBP/qPS7Om3ThAorgQYStqR/wH9BesEFFOqeK0uvCA3lteM6Z2rr5C5HLz6n0qkz2+1jhA4rgQYSOKR/366bYt1BIqvbH9x4pgO0MdUAAT6xrHlIXqJ/ulp6wgVwZWAECX1yH8/ffYZ6wgUY75gTJ+xPup3LF2yxAXwmjEnItpPn3oS2LvHOkZFcCUgBAk+8gcA7N0D3bzJOgXFmeLy/bN6VEZdAPpeeGou+Ox/KkdxEP6jj1inqBiuBFRQwo/8AcDf8DugOGgdg+JMML1/+6ZRP1N61O9UIsJH/1LZdN1q6wgVxZWACkj6kf9+Sf/doHB4GP1j+kd/qKKyuKQ0RAfx72sH/GTf6sSVgACl4MgfAOB58O/vsE5BCSBBF4A9LXVnQvS80iMR7aPbX4B//yrrGBXHlYAApOTIHwD8+9qgO7Zbx6BkuKC/cfbpo/nBURWAQV8uLysO0UG8ZbcDqtYxKo4rAWVIy5E/AKgP744fWaegBPEzOqrbAUf3zuTogrLSEB1EN/4Bfvty6xih4EpACVJ05A8A/opfQ596wjoGJYmObmaPWAC0sTEjKpeWn4joJd73b4b27raOEQquBIxBmo78AejuXfBu/Z51DEoYBVpGczvgiO9IvZn+2QDi/zFuFCm6/QV4X/unVJwKALgSMCopO/KHKorf/BJ05w7rJJQ8k/uff3rWSD80YgEQ9bn8TxXhdz0Ab1l6zn068+Yj88l/5ErAUBwHmb/7bGqO/AHA+68fQtfdbx2DEkpdb8TZPYp3ImEBoIrxbr0Ffuvd1jFC4zS28HTA4Q4M/8YW6ySh8Vf+Gt5t/24dgxJMdeTZfdR3oW1z59YIUBdcJKLD7F8GTctFgcD+EsDTAfscWPZP0/BfvQrFb92YmtNfZGa2Lq496of3HbUAVE0cmAsgE2gkosP5Popf/0K6SsC8+chcuzTdJeDA8E/Rsr+/ehWKNy4FPM86CiXf+PweZ87RfmCkdchLAgxDNDyWgHTh8CeqOPWPPsOPWgAUvP2PQsQSkA4c/kShkBEO4mW4b+icOVX5rLcTwPjAUxEdDQdEcvG/LVGY9uS87BTp6Bjyc9iHXQHoq/LmgMOfLHAlIJk4/InCNrHXLQx7If+wBcARubgyeYhGgSUgWTj8iUy4wLzhvjdsAVDoUa8eJKo4loBk4PAnMuOLNgz3vSELgO67NoD3/5M9loB44/AnMiUqs4f73pAFoHf+rHMATKtYIqKxYAmIJw5/oig4bmdT7VlDfWPIAuC4zrBLBkQmWALihcOfKDIy4gy5CjBkARAVFgCKHpaAeODwJ4qU4Wb6MNcAaH1l4xCViCUg2jj8iSJHZZQFQJfMHA/gFRVPRFQqloBo4vAniii9QGtrxx3+1SMKQH5n9nwAE0LJRFQqloBo4fAnirKJfdPk3MO/eEQBEHUuCicPUZlYAqKBw58o8qTovurwrw1xDYAe8UNEkcUSYIvDnygmjpztRxYAX1gAKF5YAoxCcPgTxYaMUAB0KRyIXhheIqKAsASEvHMOf6J4kVfqYZ8AfEgB2Ht/3ekKVIcbiiggLAEh7ZTDnyiGJvc3Npx08BcOKQCeyvnh5iEKGEtAhXfG4U8UV35GZx7874eeAlDMBFHcsQRUaCcc/kQxd8hB/qEXAQpeHmoUokphCQh44xz+RLF32EH+4XcBcAWAkoMlIKCNcvgTJYEOtwKggAhwXviRiCqIJaDMjXH4EyWFADMPvhPgxQLQv7DuZN4BQInEElDiRjj8iRJmUmHB3BMO/MuLBcArytk2eYhCwBIwxhdz+BMlkecPnnXgn18sAI4jM2ziEIWEJWCUL+LwJ0oqR1+a9S9dA6B61tA/TpQgLAEj/DCHP1GSqaNHrgCIcgWAUoIlYJgf4vAnSjoZcgVAlAWA0oMl4LBvcvgTpcJBs/6lFQDgTJs0REZYAvZ/MY3Dv53Dn9JJcWgB2N1cP423AFIqpb0EpHb4f47Dn9LqmBcWNUwCgAwAOI6eAl+O/hKipNpfAjKOC6exxTpNKJx585HZPwDT8v8ZAPyOVhS/egPg+9ZRiMyM97xTATycAQDxcIpy/lOa+T6KX70BGd9LzdFwmgY/sP/I/2uf5/Cn1HOKOAXAww4A+IJTjPMQ2Uvh6YC04LI/0UEc9xRg/zUAog4LABHAEpBAHP5Eh/J9vFQAIDjZNA1RlLAEJAaHP9GRRPRU4MXbAPVEyzBEkcMSEHsc/kTD0ROAl54DcLxhEqJoYgmILQ5/oqOR4wEWAKKjYwmIHQ5/ohEdBwCijY2ZvFvYi4OeCkhEh0nhA3PiiMOfaFS83NTTJjiFCb3TweFPdHRcCYg8Dn+iUXP7+jZOdeDJy6yTEMUCS0BkcfgTjZHnHu+ousda5yCKDZaAyOHwJyqB5053FP5U6xxEscISEBkc/kQlEn+K40AmW+cgih2WAHMc/kSlc1SmOKpgCVdL6AAAIABJREFUASAqBUuAGQ5/ovIodLID0WOsgxDFFktA6Dj8icqn6kx2RHkKgKgsLAGh4fAnCobj6GRHHZ4CICobS0DFcfgTBUcVUxwoqq2DECUCS0DFcPgTBUuBnANF1joIUWKwBASOw58oeCLIOiqosg5ClCgsAYHh8CeqEEWVI+AKAFHgWALKxuFPVEGCrANwBYCoIlgCSsbhT1RhiioHXAEgqhyWgDHj8CcKRdaBYqJ1CqJEYwkYNQ5/otBUOXCQsU5BlHgsASPi8CcKVcaBsgAQhYIlYFgc/kShcx0ArnUKotRgCTgChz9R+ATIsAAQhY0l4EUc/kQ2lCsAREZYAjj8iWxxBYDITIpLAIc/kTnXsU5ARGkk1gGIUs8BwApOZMFxkPnEZ+A0XWadJHTOvPnIXLsUcLkASWTEYwEgspDi4X8ASwCRqSILAFHYOPxfxBJAZEO4AkAUMg7/I7AEEIVPgaIDQdE6CFEqcPgPiyWAKHSeA58FgKjiOPxHxBJAFKqiA8Ee6xREicbhP2osAUSh6XcAFKxTECUWh/+YsQQQhaLgAOi3TkGUSBz+JWMJIKowQb+jXAEgCh6Hf9lYAogqSFFwRLkCQBQoDv/AsAQQVYig34FwBYAoMBz+gWMJIAqeKgoOBH3WQYgSgcO/YlgCiIIlQN4RlR3WQYhij8O/4lgCiIIjiu2OD91pHYQo1jj8Q8MSQBQMX2SnI8Au6yBEscXhHzqWAKLyCXSnIyJcASAqBYe/GZYAojKp7HB8+CwARGPF4W+OJYCodA50pyPq8CJAorHg8I8MlgCi0ngiOx34utU6CFFscPhHDksAUQl8f6sD1S3WOYhigcM/slgCiMZG1d/i5Kafvg2Abx2GKNI4/COPJYBo1Io1jT3bHVm2zIPiBes0RJHF4R8bLAFEo7JNlsJ39v8LTwMQDYXDP3ZYAohGtAUAWACIhsPhH1ssAURHIdgKHCgAIs+ZhiGKGg7/2GMJIBqG4jngxRUA/2nLLESRwuGfGCwBREdSyGZgfwFQAQsAEcDhn0AsAUSHcmTfQb+z73/2tQGiVOPwTyyWAKKXqOKlAqAqXAGgdHMcZP7us6ka/n5HK/yOVusYoXHmzUfmk/8IOM7IP0yUYApnMwBkAKC4d9zTmQkDtomIrBw48m9ssU4SGn91O4pf+zygiozvpab4OI0tyLguijcuBTzPOg6RiYHxeAYA5MAX8s31vQpU20UiMpDCZX9/dTuKN37upQGYyj+DVSwBlFY7q9u6pgAvPQcACjxul4fIQCoH32HDHwB8H8WvfwF++3K7YCHjNQGUYhsP/MOLBUCgG4f+WaIE4vA/7JssAUTpIC8e7L+0AiDCAkDpwOE/zA+xBBAlnYoOuQLAUwCUfBz+I/wwSwBRkok/xAqArw5XACjZOPxH+SKWAKKk8odaAXA9/NEmDlEIOPzH+GKWAKIkcjPeiwXgxdsAFZB8c/0uADUmqYgqhcO/dKn8s+MtgpRYu3NtXZMFUOCQawCgAB41i0VUCakcYAENf4ArAUQJosCGA8MfOKgA7PdIyHmIKofDP6CNsgQQJcSGg/+FBYCSicM/4I2zBBDFnagMXwBEDm0HRLHE4V+hnbAEEMXcIQf5hxQAx+EKAMUch3+Fd8YSQBRXDpzhVwAmvrprE4DeUBMRBYXDP6SdsgQQxY5gR7Z97Z8O/tKhpwCWwgfwYKihiILA4R/yzlkCiGJF8X+Hf+nwiwAByBE/RBRpHP5GIVgCiOLjyNl+ZAFQnwWA4oPD3zgMSwBRPBw524coAFwBoJjg8I8GlgCiyFP/yNP7RxSAnGY3ANgTSiKiUnH4RwtLAFGU9Vdr7rHDv3hEAZCOjiKAh0OJRFQKDv9oYgkgiij53f7ZfoghLgIEBNpZ+UBEJeDwjzaWAKII8tcO9dUhC4CqwwJA0cPhHw8sAUTRojLkTB+yAHgu1lU2DdEYcfjHC0sAUWS4maFnugz1RQUk31y/FcCxFU1FNBoc/vGVyv92q1C8cWn8/9tRUmytbus6fqhvDHMNABSCrspmIhqFVA6QhAx/gCsBRMYUeGC47w1ZAABAVHkagGxx+CcDSwCRGZHhL+oftgD4cO6vTByiUeDwTxaWACITvqerh/vesAWguuCsA7C3IomIjobDP5lYAojC1l8zcef64b45/CmAtWv7RWXYFxJVBId/srEEEIVpndy9cdgD+WELAAD4ovcGn4doGBz+6cASQBQKFdx3tO8ftQDICC8mCkwqh/+q9A3/A1gCiCpP5agH8UctAIVidg2AI54fTBSo1A7/pekc/gewBBBV0kB1tnjUp/oetQAc19HRp+DzAKiCRJD5+KfTNfw7WlH88vXpHv4HHCgBHa3WSULjzJuPzN9eC8iQz2EjCoZirdzZUzjajxy1AAAABCsDC0R0GPe9H4HTssg6Rmj8jlYUv3oD4PvWUaLD91H86g3pKgELLof77g9Zx6AEE4w8u0csAOr5LABUEU7DXLhLrrSOERp/9SoUv/Z5Dv+hHCgBKTod4L7tXZDZF1vHoKQSXTHSj4xYAGq0uhPArkACEe0nU4+F+4l/SM0yqH9vG5f9R3LgdMC9bdZJwrH/9JdMmWqdhJJGsCM79fTfjPRjIxYA6egoKtARSCii/dwPXAWpqbGOEQp/9Sou+4+W76P4lc+lZiVAJh0D970ftY5BCSNAqyxbNuLRxsjXAOzbHE8DUGDk7HPhzF9oHSMUPPIvQcpWApwFiyBnzrCOQYmio5rZoyoAGXV/VV4Yope4S96ZiqV/HvmXIU0rASL7fieIAuL440Y8/w+MsgBUtT+wCcCGshIRYd+5f2fupdYxKo5H/gFI0UqAM28+rwWgoDy4f2aPaJSnAAAIuApAZXMubQac0f+1iyMe+QcoLSsBrgtnXpN1CkoAhdw52p8d9TuxD2EBoLIl/bYnHvlXQEpWAmROsn83KByuL3eN9mdHXQBqppy6FsDzJSUiAoBx4+GcN9M6RcXwyL+CUrAS4Lz8L4DMOOsYFG9bqy5d1z3aHx51AZBlyzwI7i4tExEgp58BjB9vHaMieOQfgqSvBEyYCDn1dOsUFGeid8lSjPoIZEwnYxXyi7EnItpHTjzZOkJF8Mg/RAlfCZATT7KOQDEmKr8cy8+PqQBUVxXvBpAfUyKi/eTY46wjBI5H/gYSvBIg04+3jkAxJUBftuCOqRmPqQDInT0FUUlm9abKm1hlnSBQPPI3lNSVgKqsdQKKKYXcJWvX9o/lNWO+H0sd/Z+xvoYIAOAm5/Y/HvlHQBJXAhL0O0LhUh37bB7z37b+/nF3Atgz1tcRYe9e6wSB4JF/hCRtJaB/TAdwRAf09/vZMV+kP+YCMH3Nml4A6fngbgqM7or/h0ryyD+CErQSoLvj/ztC4VPgnuM6OvrG+rrS1ptU7ijpdZRuzz1jnaAsPPKPsKSsBDwb798RslLaTC6pAOQy/T8D7wagMdKnngRUrWOUhEf+MRD3lQBV6OanrFNQ/OSr3f5RP/73YCUVAFnxUB58NDCNke7aAf3TZusYY8Yj/xiJ8UqAbnqSpwCoBPLzfTN57Eq+5FR8+XGpr6X08td3WUcYEx75x1BMVwL8nk7rCBRDol7Js7jkApDdPXg3gBdKfT2lk39vfK4f5ZF/jMVwJSBOvxsUEYpt2V1a8l+c0lcAenoGFXwmAI2NPvYIdNMT1jFGxCP/BIjRSoA++Tj0j49Zx6CYEZFl0tMzWOrry3rqhPr6w3JeTymkCu+nP7FOcVQ88k+QmKwEeHf8yDoCxZCo95/lvL6sAjBp1fo1UHm0nG1Q+vgdKyN7tTOP/BMo4isB+tQT8Fe3W8eg+NmQbS/voqrynzvp+GU1EEqhYhHezf9sneII/r1tKH7lczzyT6IDKwFRKwGq8G7+JgsnlUB/UO4Wyi8ARdwKoFj2dihV/AfXw7vr59YxXsRl/xSI4OkA787/gf/Q/1nHoPgpwsPt5W6k7AJQ3dH9ZwhWlLsdSh/vlpugj//BOgaX/dMkQqcD9I+Pwfv3f7WOQTGkwF3VHd1/Lnc7gXz0lEK+H8R2KGUGBlD87KeALc+ZReCRfwpFYSVgy3MoLv0UMDhgl4FiyxEpe/kfCKgAVO8o/hLQZ4PYFqWLbn8eg9ddDWwpu8yOmb/y1zzyT6sDKwGtY/4AtfJteQ6D110N3c7HqFBJnsvuKP46iA0FUgCkp2dQA2oklD767J8weM1HwzsdoArvJ/+J4je/xCP/NPN9FL/xRXj/fVton1Ghf3wMg9dcBX32T6Hsj5JHBbeUc+//wSSIjQBAYWHdKb4nTwJwg9ompcy48XA/cBXc118BSGB/NQ+hu3fB+8YX4Xeuqcj2KZ5k9lxkPn4dZNIxFduH37YcxZu+AuzdW7F9UOIVHU/OyHZ0BvKxkYG+y/Y11/8SwOIgt0np47ziVXA/9nHI6WcGt1FV+O0r4P3Hv0B3bA9uu5QYMukYOH/5XrivfwsggSyOAgD0mU3wvvttPuufyqbAz2vaut4c1PYCLQD5plmLVJxAzk1QyrkunEtb4C65EmUVAc+Dv7od3h0/gj75eGDxKLnkzBlwl7wTzrz5gFv6gqY++Ti8O3607yE/vM6EgqByWXV7Z2B33QVaAHQpnMLq+j8ocFaQ26V0k3PPh3NJE5zaesipZ4x8emBPP/xHHoZ23g9/9Soe8VNJZMpUOPOaILPnwnn5XwATq47+AlXopifh93TCv68d+offhxOUUkEEG7MXd50rSxHYhUuBn2jtban/a1F8O+jtEgGA1EyCnH4m8LITIVOmAhMmAEUP2NMP3bYF+uwz+x4zXOSzqShAmQzk1DMgJ54EmX78vjKQcYG9e/ddzf/nZ6GbnoD29lonpYRS6P+raesO9MERgRcAXVybzRfczQCmBb1tIiKiFNqec/ecKiseyge50eCudNlP7uwpqOC7QW+XiIgojRT6naCHP1CBArBvq5lvA9hTkW0TERGlx17xcHMlNlyRAlCz4oGtAH5ciW0TERGlhQK3BvHc/6FUZgUAgO96XwWCu1qRiIgoZRTifKtSG69YAZi0oudRCO6p1PaJiIiSTIFf1rSuq9j9pBUrAACgPr5eye0TEREllaKyM7QyD1w/SF9zQyeg9ZXeDxERUYJ0V7d1VXR2VnQFAAAgWrHzF0REREmkiq9Weh8VLwC5YvYOAJsrvR8iIqIkUOCJ6mmn/azS+6l4AZCOjqKKfrnS+yEiIkoCR+RGWbas4p8gVflTAACqd/j/DuDJMPZFREQUY5uzU/puDWNHoRQA6ekZFOALYeyLiIgorgT4oizbMBDGvkIpAACQnXrarQAeC2t/REREMfN0dmr+B2HtLLQCsO98hv5TWPsjIiKKE9Hwjv6BEAsAAOSmnv4TAI+EuU8iIqIY2JydsD20o38g5AIgy5Z5Kvq5MPdJREQUeSpL5e6Ne8PcZagFAACqW7uXAXgw7P0SERFF1B9yftVtYe809AIggIrI0rD3S0REFEUqcp10dBTD3m/FPwtgOPyMACIiSj1BT661q04ADXvXoa8AvMS/3m7fREREEeDLdRbDHzAsANVt3fcAWG61fyIiIlvSWt3eucJq74YrAIBCrgEQ+nkPIiIiY0X1/astA5gWgJq2zkcE+j3LDERERKET/U7Nqu4NlhFMCwAADO6d8I8AXrDOQUREFJLtvor5k3HNC8Dk++/fodAbrHMQERGFQUX/YVJbl/mBr3kBAIBqL/evUDxsnYOIiKjCHqku5v7NOgQQkQIgHR1FuGp6MQQREVHFqXzc4qE/Q4lEAQCA6pXdbQB+ZZ2DiIioEhT4ueVtf4eLTAEAgKJ6VwMI9cMQiIiIQjDgO3KtdYiDRaoATG7veRyQ71jnICIiCpTKN45Z2flH6xgHi1QBAIABKX4ewBbrHERERAF5bu8EfMk6xOEiVwCmtvbsUggvCCQiokRQkb+ednfnbuschzP7NMCR9DbX/68Ab7DOQUREVIZfVbd1LbYOMZTIrQAc4DjjPgZgl3UOIiKiEu12PLnKOsRwIlsAcivXPKuQz1jnICIiKoUAn8p2dD5jnWM4kS0AAFA9r/NmAe63zkFERDRG92Xbum6xDnE0kS4AshS+5/sfBLDHOgsREdEo7VVxPiqAWgc5mkgXAACYtGr9YwKJ3O0TREREQxHghprWdb+3zjGSyBcAAMhO7fsyPyyIiIiiT3+X3el91TrFaMSiAMiyDQMO/A8A8KyzEBERDcN3IB+Rnp5B6yCjEYsCAADZ9vVdgPyLdQ4iIqJh/HO2rWutdYjRik0BAICc238dgMescxARER3m97ms94/WIcYiVgVAVjyUF3X+EsCAdRYiIqL9BgX6Hrmzp2AdZCxiVQAAINe+7jeALLXOQUREBABQuS7X1t1tHWOsYlcAACA3r/NGAO3WOYiIKOUU9+Yu6fyGdYxSRPbDgEZSaGw42Xf1twCmWmchIqIUEuxw4b2yqrVns3WUUsRyBQAAsh2dz6joh6xzEBFROin0o3Ed/kCMCwAA1LR2/wyQW61zEBFRuqjKv9W0dt9hnaMcsS4AAJBz+/8KwB+scxARUTqIYOOevZlPWOcoV+wLgKx4KC8OrgQQiycvERFRrBXFc945fc2aXusg5Yp9AQCA3Mqu9QL5J+scRESUcKL/mF21rtM6RhASUQAAIDv11C8A0mqdg4iIEuue3MXdX7EOEZTY3gY4lF2XzZnqFr31AM6wzkJERImyyfe8WZM6ep63DhKUxKwAAMAxy9duh6NvBtBvnYWIiBJjj/jyliQNfyBhBQAAqld2PwiVj1jnICKihFD5WG5VZ491jKAlrgAAQHV7520KvcU6BxERxZsIvlPd3vkD6xyVkMgCAADVO/2/EpU11jmIiCieFFiXnZKP/f3+w0lsAZCenkGMKy4B8Jx1FiIiip0trrpXyLINif34+cQWAADILe95TiFXAihaZyEiotgoqqNvy7av/ZN1kEpKdAEAgJq2zlVQ+bR1DiIiigv5ZM3K7nutU1Raop4DMBwFJN9U/18QvNU6CxERRZjix9XtXVdaxwhD4lcAAEAAzfW771VgrXUWIiKKKunK5bzUfMx8KgoAAMjatf3qea8XwUbrLEREFC0KPKGuu1ju7ClYZwlLKk4BHGxX45wZruutBXCsdRYiIoqEF3zfnztp1frHrIOEKTUrAAcc07F2ow+8GcBe6yxERGRuQCFL0jb8gRQWAACY1Na1WqHvAaDWWYiIyIwC+oGats5V1kEspLIAAEBNW/d/C/R66xxERGRE9Lrqtu4fWcewkrprAA7X21J/syg+ap2DiIhC9R/VbV0ftA5hKbUrAAdU7/D+BtCV1jmIiCg0y3NeNvUHfqkvANLTM7h3vHMFgIessxARUcVtGBDvbdLRkfpHxKf+FMABhaY5J3ni3SfAmdZZiIgoeAI8DmfcJbmVa561zhIFLAAH6W+pPdVT9z4Ap1lnISKiQD3jurikakXXk9ZBoiL1pwAOVtXas9lzZAGAP1tnISKigCi2qTgLOfwPxRWAIfQ1N1wA6CoAU62zEBFRWXaK+E251vX/Zx0kargCMITqts6HHN+5HECvdRYiIirZboEu5PAfGgvAMLKr1nX6vr8IQN46CxERjVm/Ovr6XFt3t3WQqGIBOIpJq9avAeRN4OcGEBHFyYD4ckXNyu57rYNEGQvACKrbOlcK8HYAqb9nlIgoBjxVvDO3qvPX1kGijgVgFHJtXf8L6PsA+NZZiIhoWD6g76lp71pmHSQOWABGqbqt+0cKuRLAoHUWIiI6ggfg/dVt3bdbB4kL3gY4RvmmusUqcgeAidZZiIgIADCgou+oae3+mXWQOGEBKEFvc8N8B/pLBaqtsxARpVwBgjdXt3Yttw4SNywAJdrdXD/PAX4FYJJ1FiKiNBKgz1e8oaa9q906SxyxAJQhP7+hVh1dDmCadRYiolQR7HAgl2dbO9dZR4krFoAy9c6vmymOrARwgnUWIqKU2AIfl1Wv6vqtdZA4YwEIwO75s851HKcVwMnWWYiIEu459XVBzaruDdZB4o63AQZg0qr1j7mauVgEG62zEBEl2FNF9eZx+AeDBSAgVe0PbJKizIfiYessREQJ9JA44+ZObu953DpIUrAABCjb0flMwc/OgYCPoCQiCoyuHBDvktzKNc9aJ0kSXgNQAdrYmOnLFG4SxUetsxARxdz3czu9j0pPD5/CGjAWgArqa274W0C/Aa60EBGNlarghprWrqXWQZKKBaDCepsbrhDobeCjg4mIRmsvBO+vbu36sXWQJGMBCEGhuX6Or/gFBNOtsxARRdx2VX1TTXv3fdZBko4FICQ7m2rPyoj7awDnWGchIooiBZ5Q37980qr1j1lnSQOemw7J5Paex33g1QBWW2chIooaBdbBzczh8A8PC0CIJrV1vZAruJcB+l/WWYiIIkPx42ovO79mxQNbraOkCU8BGMm3NHxYVb8DYJx1FiIiI0Uo/qG6vetG6yBpxAJgaP9HCt8B4GXWWYiIQqXYpsDb+VG+dlgAjBWa5pzkibdMgDnWWYiIQrLeFe8tVa09m62DpBmvATCWbV/7p2ovewkEXAIjosRT6C25qfm5HP72uAIQIX3Nde8E5HsAstZZiIgCtkdE/l+utfP71kFoHxaAiOlbUPdK+PIzAGdYZyEiCshmgV6Ra+vutg5CL+EpgIipXtn9oA/UAVhunYWIKAD3eBn3VRz+0cMCEEGT2rpeyE097bUCfAYAPwGLiOJoEKKfzs3reu0xy9dutw5DR+IpgIjLL6ifpT5uBx8hTETx8aQDXJlt61prHYSGxxWAiMut7FqfK7ivBOTb1lmIiEYkuK3gZS/g8I8+rgDESG9L3ZtF5RYA06yzEBEdZqdCrqpp6+SjzmOCBSBm+hrrXgZXfgDgNdZZiIj2a3fUfXe2fe2frIPQ6LEAxJACkm9u+BtAvwJgvHUeIkqtQRV8sfrirhtkKXzrMDQ2LAAx1rtw1l+IJz8G5BXWWYgoZVQeFciVufZ1v7GOQqXhRYAxVrNi/cO5rD8bov8MwLPOQ0Sp4EHxzVyuWMvhH29cAUiIfMusV6nKvwNykXUWIkoq/Z3jux/KrlrXaZ2EyscVgITIta7/v5yXa4Di7wHssc5DRIkyCMGNuamFWRz+ycEVgATa1Thnhut6twCYb52FiOJNVNb4jnyopnXd762zULBYABJKAcm31L8Lim8CmGqdh4hiZxcg1+fmdd7EK/yTiQUg4fKX1Z6AonOTQt5inYWIYuNXjqsfy67ofto6CFUOC0BK9LbUvVVUvg3geOssRBRZzynkb2raOn9qHYQqjxcBpkRNa/cdA+KdC8GNAAas8xBRpAwC8u294+U8Dv/04ApACu2eP+tcx3G+BeAy6yxEZO5XRfWuntze87h1EAoXC0CK5ZvqFqvITQBOs85CRCFTeVTgXZNrX3+3dRSywVMAKZZr774zl/XO3//sgN3WeYgoFNsBuTrnV72Cwz/duAJAAPbdLeAXnaUC+QAA1zoPEQWuqNDvq+d/ZlJHz/PWYcgeCwAdordl9ssF/teguNw6CxEFRNGmGf/qmhXrH7aOQtHBAkBD6mupvwyqX+RnCxDF2nqofKa6vXOFdRCKHhYAGpYCUmiqe50KvsCPHCaKEZVHFfrZ6vaunwqg1nEomngRIA1LAM21d9+Z83IXCfBBAHwqGFG0bYbK+3PTTv2LmvauZRz+dDRcAaBR0yUzx+d35N6uiusFONM6DxG96GlAvp7zqr4nHR38NFAaFRYAGrMDRUAUn1XgLOs8RCm2GZBvcPBTKVgAqGS6ZOb4wgu596vgWgCnW+chSgsFnnBEbsxO6btVlm3go72pJCwAVDZdCqdwX91rVeSzAGZZ5yFKLv0NRL6VK2Z/LB0dRes0FG8sABSo3S0NFzuq1wJ4nXUWooRQQNpE/W/n2rvvtA5DycECQBWxu6nu1a7gGoW8EXyyIFEp9qjKbZopfmPSip5HrcNQ8rAAUEX1N84+3cv4H4XiQwCmWuchioFdgPynOJkbcyvXPGsdhpKLBYBCsW3u3JqJEwfe54j8tSpmWOchihoRbPRVv1md9W+VO3sK1nko+VgAKFS6FE7+/romgXxYFW8CkLHORGTIB6RdVW+pnnbaz2TZMs86EKUHCwCZyV9We4IOuu+G4GMATrXOQxSi5yD4oetnbq5qf2CTdRhKJxYAMqeNjZmCW3idAu8HsAhcFaBkGlTRux04388Wq+7ibXxkjQWAIqWvse5lcJ23Afo+ABda5yEqm8qjgN4KkVur2zq3WMchOoAFgCKr0NIwW319twqWADjWOg/RqCm2icgy8eWH2VXrOq3jEA2FBYAiT5cscfM7npoPyLuheCOAGutMREPoF8Gv4Ott2V3+PdLTM2gdiOhoWAAoVnThBbm8P/ENqnirAJcBmGidiVKtX4Hlorgjl/N+wdv3KE5YACi2dM6cqkJVsUUdWcKVAQpRP4A2CJbtHSf/O+3uzt3WgYhKwQJAiaBz5lT1V3mv8QVvgOJyCKZbZ6JE2QrIrwX6i2zBXS5r1/ZbByIqFwsAJY4uhVO4t+FVvquLBXgdFBeBf9dp7B6B4E5AW3PFXAdv26Ok4ZsiJV5/S+2pPjKvgfoLVaQJiinWmSiStougDdCV4uCe7Irup60DEVUSCwClii5Z4vY///Qsdb0FqrIAwBwA46xzkYkBKNYKsFLgr6yadkYPH8VLacICQKmmi2uzvf2Zixxf50KkBdC5AKqsc1FFDELwEIBW8XXNngnOvbyAj9KMBYDoILpoxoTegan1LjBPgdkAGgAcZ52LSrJFRTtFnXW+YHXNlL4uWbZhwDoUUVSwABCNYGdT7VkZcWaLSoOKNAB6Afj8gajph+AhqHRCtDMDXTextfsJ61BEUcYCQDTHjmmrAAABZElEQVRG2tiY6ZP8uRA5Hw5miqIWigbeehia3aLyOxX0iGCDBzxSM+6Fbrl7417rYERxwgJAFJCdF188xZk4ONMFzlfFTADnQ/VCFoOS7YbgjwAegY8NAn3EdbBhQmv3kwKodTiiuGMBIKqw/IK5J/rewAzHcWb4qmeJYgZEZwByFoBjrPMZ2wnB41DZqNDHRWWjL7rRzXgbc8t7nrMOR5RkLABEhl5Y1DBp/B7/FAfOaXBxsu/jFBE9FYKXQfUEQKYDmA7Atc46Rh6AbQC2QvBnKP6skE2O4Bn43tO+yuY9A+M3T1+zptc6KFFasQAQRZwC0rfw1dOBgePgudMh/hRHZYpCJ6s6kx3xpyhksqhUqWASoBMgyMKXnIqOF+AYCJyDNjgRR97q2A/BnoN+xldgl6gMwNE8FAVA9opit4r2i2CH78tOEX+niLPDh78T6uyA72/FuHHbqlc8sI3L9ETR9v8BCBrLJ5MXMaYAAAAASUVORK5CYII=" vertex="1" parent="1">
                    <mxGeometry x="751" y="683" width="20" height="20" as="geometry"/>
                </mxCell>
                <mxCell id="79" value="&lt;font style=&quot;font-size: 27px&quot;&gt;Releaseschiene '3.14' ist im Vorwärtsmodus&lt;/font&gt;" style="rounded=0;whiteSpace=wrap;html=1;fillColor=#0050ef;strokeColor=#001DBC;fontColor=#ffffff;" vertex="1" parent="1">
                    <mxGeometry x="240" y="470" width="830" height="60" as="geometry"/>
                </mxCell>
                <mxCell id="80" value="&lt;font color=&quot;#000000&quot;&gt;&lt;font style=&quot;font-size: 12px&quot;&gt;Stage&lt;/font&gt;&lt;br&gt;&lt;font style=&quot;font-size: 15px&quot;&gt;Master&lt;/font&gt;&lt;/font&gt;" style="text;html=1;strokeColor=none;fillColor=none;align=left;verticalAlign=middle;whiteSpace=wrap;rounded=0;labelBackgroundColor=none;fontSize=12;fontColor=#FFFFFF;" vertex="1" parent="1">
                    <mxGeometry x="1095" y="191" width="205" height="39" as="geometry"/>
                </mxCell>
                <mxCell id="81" value="&lt;font color=&quot;#000000&quot;&gt;&lt;font style=&quot;font-size: 12px&quot;&gt;Syrius Version&lt;/font&gt;&lt;br&gt;&lt;font style=&quot;font-size: 15px&quot;&gt;3.13.00.00-00&lt;/font&gt;&lt;/font&gt;" style="text;html=1;strokeColor=none;fillColor=none;align=left;verticalAlign=middle;whiteSpace=wrap;rounded=0;labelBackgroundColor=none;fontSize=12;fontColor=#FFFFFF;" vertex="1" parent="1">
                    <mxGeometry x="1092.5" y="236" width="205" height="44" as="geometry"/>
                </mxCell>
                <mxCell id="82" value="&lt;font color=&quot;#000000&quot;&gt;&lt;font style=&quot;font-size: 12px&quot;&gt;Agent Version&lt;/font&gt;&lt;br&gt;&lt;span style=&quot;font-size: 15px&quot;&gt;0.0.851&lt;/span&gt;&lt;br&gt;&lt;/font&gt;" style="text;html=1;strokeColor=none;fillColor=none;align=left;verticalAlign=middle;whiteSpace=wrap;rounded=0;labelBackgroundColor=none;fontSize=12;fontColor=#FFFFFF;" vertex="1" parent="1">
                    <mxGeometry x="1095" y="286" width="205" height="44" as="geometry"/>
                </mxCell>
                <mxCell id="83" value="&lt;font color=&quot;#000000&quot;&gt;&lt;font style=&quot;font-size: 12px&quot;&gt;Threads&lt;/font&gt;&lt;br&gt;&lt;span style=&quot;font-size: 15px&quot;&gt;15&lt;/span&gt;&lt;br&gt;&lt;/font&gt;" style="text;html=1;strokeColor=none;fillColor=none;align=left;verticalAlign=middle;whiteSpace=wrap;rounded=0;labelBackgroundColor=none;fontSize=12;fontColor=#FFFFFF;" vertex="1" parent="1">
                    <mxGeometry x="1095" y="333" width="205" height="44" as="geometry"/>
                </mxCell>
                <mxCell id="98" value="" style="group" vertex="1" connectable="0" parent="1">
                    <mxGeometry x="1096.25" y="570" width="207.5" height="55" as="geometry"/>
                </mxCell>
                <mxCell id="84" value="Agent URL" style="text;fontColor=#000000;fontSize=12;verticalAlign=middle;strokeColor=none;fillColor=none;shadow=1;container=0;" vertex="1" parent="98">
                    <mxGeometry width="207.5" height="30" as="geometry"/>
                </mxCell>
                <mxCell id="85" value="http://127.0.0.1:5123" style="text;fontSize=16;verticalAlign=middle;strokeColor=none;fillColor=none;shadow=1;fontColor=#000000;container=0;" vertex="1" parent="98">
                    <mxGeometry y="20" width="207.5" height="30" as="geometry"/>
                </mxCell>
                <mxCell id="86" value="" style="dashed=0;shape=line;strokeWidth=2;noLabel=1;strokeColor=#eeeeee;shadow=1;fontSize=15;fontColor=#6E6E6E;fillColor=#6666FF;container=0;" vertex="1" parent="98">
                    <mxGeometry y="45" width="207.5" height="10" as="geometry"/>
                </mxCell>
                <mxCell id="99" value="" style="group" vertex="1" connectable="0" parent="1">
                    <mxGeometry x="1095" y="700" width="207.5" height="55" as="geometry"/>
                </mxCell>
                <mxCell id="90" value="Stage" style="text;fontColor=#000000;fontSize=12;verticalAlign=middle;strokeColor=none;fillColor=none;shadow=1;" vertex="1" parent="99">
                    <mxGeometry width="207.5" height="30" as="geometry"/>
                </mxCell>
                <mxCell id="95" value="" style="group" vertex="1" connectable="0" parent="99">
                    <mxGeometry y="20" width="207.5" height="35" as="geometry"/>
                </mxCell>
                <mxCell id="91" value="Master" style="text;fontSize=16;verticalAlign=middle;strokeColor=none;fillColor=none;shadow=1;fontColor=#000000;" vertex="1" parent="95">
                    <mxGeometry width="207.5" height="30" as="geometry"/>
                </mxCell>
                <mxCell id="92" value="" style="dashed=0;shape=line;strokeWidth=2;noLabel=1;strokeColor=#eeeeee;shadow=1;fontSize=15;fontColor=#6E6E6E;fillColor=#6666FF;" vertex="1" parent="95">
                    <mxGeometry y="25" width="207.5" height="10" as="geometry"/>
                </mxCell>
                <mxCell id="100" value="" style="group" vertex="1" connectable="0" parent="1">
                    <mxGeometry x="1095" y="635" width="207.5" height="55" as="geometry"/>
                </mxCell>
                <mxCell id="87" value="Releaseschiene" style="text;fontColor=#000000;fontSize=12;verticalAlign=middle;strokeColor=none;fillColor=none;shadow=1;" vertex="1" parent="100">
                    <mxGeometry width="207.5" height="30" as="geometry"/>
                </mxCell>
                <mxCell id="94" value="" style="group" vertex="1" connectable="0" parent="100">
                    <mxGeometry y="20" width="207.5" height="35" as="geometry"/>
                </mxCell>
                <mxCell id="88" value="3.14" style="text;fontSize=16;verticalAlign=middle;strokeColor=none;fillColor=none;shadow=1;fontColor=#000000;" vertex="1" parent="94">
                    <mxGeometry width="207.5" height="30" as="geometry"/>
                </mxCell>
                <mxCell id="89" value="" style="dashed=0;shape=line;strokeWidth=2;noLabel=1;strokeColor=#eeeeee;shadow=1;fontSize=15;fontColor=#6E6E6E;fillColor=#6666FF;" vertex="1" parent="94">
                    <mxGeometry y="25" width="207.5" height="10" as="geometry"/>
                </mxCell>
                <mxCell id="101" value="" style="group" vertex="1" connectable="0" parent="1">
                    <mxGeometry x="1095" y="760" width="207.5" height="55" as="geometry"/>
                </mxCell>
                <mxCell id="102" value="Stage" style="text;fontColor=#000000;fontSize=12;verticalAlign=middle;strokeColor=none;fillColor=none;shadow=1;" vertex="1" parent="101">
                    <mxGeometry width="207.5" height="30" as="geometry"/>
                </mxCell>
                <mxCell id="103" value="" style="group" vertex="1" connectable="0" parent="101">
                    <mxGeometry y="20" width="207.5" height="35" as="geometry"/>
                </mxCell>
                <mxCell id="104" value="Master" style="text;fontSize=16;verticalAlign=middle;strokeColor=none;fillColor=none;shadow=1;fontColor=#000000;" vertex="1" parent="103">
                    <mxGeometry width="207.5" height="30" as="geometry"/>
                </mxCell>
                <mxCell id="105" value="" style="dashed=0;shape=line;strokeWidth=2;noLabel=1;strokeColor=#eeeeee;shadow=1;fontSize=15;fontColor=#6E6E6E;fillColor=#6666FF;" vertex="1" parent="103">
                    <mxGeometry y="25" width="207.5" height="10" as="geometry"/>
                </mxCell>
                <mxCell id="106" value="&lt;font color=&quot;#000000&quot;&gt;&lt;font style=&quot;font-size: 12px&quot;&gt;Steht auf Paket Nr.&lt;/font&gt;&lt;br&gt;&lt;span style=&quot;font-size: 15px&quot;&gt;8&lt;/span&gt;&lt;br&gt;&lt;/font&gt;" style="text;html=1;strokeColor=none;fillColor=none;align=left;verticalAlign=middle;whiteSpace=wrap;rounded=0;labelBackgroundColor=none;fontSize=12;fontColor=#FFFFFF;" vertex="1" parent="1">
                    <mxGeometry x="1097.5" y="385" width="205" height="44" as="geometry"/>
                </mxCell>
                <mxCell id="107" value="&lt;u&gt;1 Paket(e) können importiert werden&lt;/u&gt;" style="text;html=1;strokeColor=none;fillColor=none;align=left;verticalAlign=middle;whiteSpace=wrap;rounded=0;shadow=1;fontSize=12;fontColor=#000000;" vertex="1" parent="1">
                    <mxGeometry x="1098" y="429" width="202" height="30" as="geometry"/>
                </mxCell>
            </root>
        </mxGraphModel>
    </diagram>
</mxfile>